Sarala-Bold.ufo
<glyph name="two" format="1">
  <advance width="538"/>
  <unicode hex="0032"/>
  <outline>
    <contour>
      <point x="167" y="712"/>
      <point x="96" y="698"/>
      <point x="31" y="670" type="curve"/>
      <point x="53" y="560" type="line"/>
      <point x="97" y="581"/>
      <point x="152" y="594"/>
      <point x="198" y="594" type="curve" smooth="yes"/>
      <point x="280" y="594"/>
      <point x="326" y="554"/>
      <point x="326" y="483" type="curve" smooth="yes"/>
      <point x="326" y="399"/>
      <point x="287" y="329"/>
      <point x="155" y="216" type="curve"/>
      <point x="30" y="98" type="line"/>
      <point x="35" y="0" type="line"/>
      <point x="497" y="0" type="line"/>
      <point x="497" y="126" type="line"/>
      <point x="412" y="116"/>
      <point x="307" y="107"/>
      <point x="213" y="107" type="curve"/>
      <point x="306" y="191" type="line" smooth="yes"/>
      <point x="448" y="323"/>
      <point x="482" y="389"/>
      <point x="482" y="490" type="curve" smooth="yes"/>
      <point x="482" y="626"/>
      <point x="385" y="712"/>
      <point x="234" y="712" type="curve" smooth="yes"/>
    </contour>
  </outline>
</glyph>
<glyph name="L" format="1">
  <advance width="532"/>
  <unicode hex="004C"/>
  <outline>
    <contour>
      <point x="227" y="709" type="line"/>
      <point x="81" y="709" type="line"/>
      <point x="81" y="0" type="line"/>
      <point x="525" y="0" type="line"/>
      <point x="525" y="116" type="line"/>
      <point x="227" y="116" type="line"/>
    </contour>
  </outline>
</glyph>
<glyph name="bracketleft" format="1">
  <advance width="338"/>
  <unicode hex="005B"/>
  <outline>
    <contour>
      <point x="327" y="774" type="line"/>
      <point x="79" y="774" type="line"/>
      <point x="79" y="-193" type="line"/>
      <point x="327" y="-193" type="line"/>
      <point x="327" y="-92" type="line"/>
      <point x="195" y="-92" type="line"/>
      <point x="195" y="673" type="line"/>
      <point x="327" y="673" type="line"/>
    </contour>
  </outline>
</glyph>
<glyph name="b" format="1">
  <advance width="626"/>
  <unicode hex="0062"/>
  <outline>
    <contour>
      <point x="224" y="752" type="line"/>
      <point x="74" y="752" type="line"/>
      <point x="74" y="26" type="line"/>
      <point x="126" y="7"/>
      <point x="217" y="-7"/>
      <point x="310" y="-7" type="curve" smooth="yes"/>
      <point x="487" y="-7"/>
      <point x="595" y="99"/>
      <point x="595" y="273" type="curve" smooth="yes"/>
      <point x="595" y="437"/>
      <point x="510" y="532"/>
      <point x="365" y="532" type="curve" smooth="yes"/>
      <point x="309" y="532"/>
      <point x="262" y="512"/>
      <point x="224" y="474" type="curve"/>
    </contour>
    <contour>
      <point x="405" y="426"/>
      <point x="443" y="372"/>
      <point x="443" y="268" type="curve" smooth="yes"/>
      <point x="443" y="155"/>
      <point x="394" y="95"/>
      <point x="303" y="95" type="curve" smooth="yes"/>
      <point x="272" y="95"/>
      <point x="247" y="99"/>
      <point x="224" y="108" type="curve"/>
      <point x="224" y="342" type="line"/>
      <point x="237" y="393"/>
      <point x="279" y="426"/>
      <point x="334" y="426" type="curve" smooth="yes"/>
    </contour>
  </outline>
</glyph>
<glyph name="i" format="1">
  <advance width="296"/>
  <unicode hex="0069"/>
  <outline>
    <contour>
      <point x="223" y="735" type="line"/>
      <point x="73" y="735" type="line"/>
      <point x="73" y="598" type="line"/>
      <point x="223" y="598" type="line"/>
    </contour>
    <contour>
      <point x="223" y="518" type="line"/>
      <point x="73" y="518" type="line"/>
      <point x="73" y="0" type="line"/>
      <point x="223" y="0" type="line"/>
    </contour>
  </outline>
</glyph>
<glyph name="p" format="1">
  <advance width="627"/>
  <unicode hex="0070"/>
  <outline>
    <contour>
      <point x="303" y="531"/>
      <point x="256" y="510"/>
      <point x="212" y="462" type="curve"/>
      <point x="189" y="524" type="line"/>
      <point x="74" y="524" type="line"/>
      <point x="74" y="-229" type="line"/>
      <point x="224" y="-229" type="line"/>
      <point x="224" y="3" type="line"/>
      <point x="258" y="-5"/>
      <point x="282" y="-8"/>
      <point x="312" y="-8" type="curve" smooth="yes"/>
      <point x="486" y="-8"/>
      <point x="595" y="97"/>
      <point x="595" y="272" type="curve" smooth="yes"/>
      <point x="595" y="438"/>
      <point x="509" y="531"/>
      <point x="365" y="531" type="curve" smooth="yes"/>
    </contour>
    <contour>
      <point x="276" y="94"/>
      <point x="264" y="95"/>
      <point x="224" y="105" type="curve"/>
      <point x="224" y="343" type="line"/>
      <point x="241" y="395"/>
      <point x="280" y="425"/>
      <point x="334" y="425" type="curve" smooth="yes"/>
      <point x="403" y="425"/>
      <point x="444" y="377"/>
      <point x="444" y="267" type="curve" smooth="yes"/>
      <point x="444" y="152"/>
      <point x="393" y="94"/>
      <point x="303" y="94" type="curve" smooth="yes"/>
    </contour>
  </outline>
</glyph>
<glyph name="bar" format="1">
  <advance width="260"/>
  <unicode hex="007C"/>
  <outline>
    <contour>
      <point x="188" y="774" type="line"/>
      <point x="72" y="774" type="line"/>
      <point x="72" y="-193" type="line"/>
      <point x="188" y="-193" type="line"/>
    </contour>
  </outline>
</glyph>
<glyph name="section" format="1">
  <advance width="414"/>
  <unicode hex="00A7"/>
  <outline>
    <contour>
      <point x="132" y="774"/>
      <point x="54" y="706"/>
      <point x="54" y="602" type="curve" smooth="yes"/>
      <point x="54" y="551"/>
      <point x="73" y="506"/>
      <point x="107" y="467" type="curve"/>
      <point x="50" y="427"/>
      <point x="18" y="369"/>
      <point x="18" y="300" type="curve" smooth="yes"/>
      <point x="18" y="124"/>
      <point x="229" y="73"/>
      <point x="229" y="-24" type="curve" smooth="yes"/>
      <point x="229" y="-74"/>
      <point x="200" y="-101"/>
      <point x="145" y="-101" type="curve" smooth="yes"/>
      <point x="118" y="-101"/>
      <point x="92" y="-97"/>
      <point x="68" y="-91" type="curve"/>
      <point x="54" y="-180" type="line"/>
      <point x="98" y="-191"/>
      <point x="132" y="-196"/>
      <point x="164" y="-196" type="curve" smooth="yes"/>
      <point x="282" y="-196"/>
      <point x="360" y="-128"/>
      <point x="360" y="-24" type="curve" smooth="yes"/>
      <point x="360" y="27"/>
      <point x="342" y="70"/>
      <point x="307" y="111" type="curve"/>
      <point x="364" y="149"/>
      <point x="396" y="208"/>
      <point x="396" y="278" type="curve" smooth="yes"/>
      <point x="396" y="449"/>
      <point x="185" y="510"/>
      <point x="185" y="603" type="curve" smooth="yes"/>
      <point x="185" y="653"/>
      <point x="215" y="680"/>
      <point x="270" y="680" type="curve" smooth="yes"/>
      <point x="293" y="680"/>
      <point x="321" y="676"/>
      <point x="346" y="670" type="curve"/>
      <point x="361" y="759" type="line"/>
      <point x="321" y="769"/>
      <point x="283" y="774"/>
      <point x="250" y="774" type="curve" smooth="yes"/>
    </contour>
    <contour>
      <point x="254" y="342"/>
      <point x="290" y="306"/>
      <point x="290" y="251" type="curve" smooth="yes"/>
      <point x="290" y="216"/>
      <point x="280" y="184"/>
      <point x="258" y="154" type="curve"/>
      <point x="160" y="236"/>
      <point x="124" y="272"/>
      <point x="124" y="328" type="curve" smooth="yes"/>
      <point x="124" y="361"/>
      <point x="135" y="393"/>
      <point x="156" y="424" type="curve"/>
    </contour>
  </outline>
</glyph>
<glyph name="uni00AD" format="1">
  <advance width="600"/>
  <unicode hex="00AD"/>
  <outline>
    <contour>
      <point x="436" y="374" type="line"/>
      <point x="65" y="374" type="line"/>
      <point x="65" y="268" type="line"/>
      <point x="436" y="268" type="line"/>
    </contour>
  </outline>
</glyph>
<glyph name="plusminus" format="1">
  <advance width="562"/>
  <unicode hex="00B1"/>
  <outline>
    <contour>
      <point x="49" y="331" type="line"/>
      <point x="229" y="331" type="line"/>
      <point x="229" y="151" type="line"/>
      <point x="329" y="151" type="line"/>
      <point x="329" y="331" type="line"/>
      <point x="512" y="331" type="line"/>
      <point x="512" y="424" type="line"/>
      <point x="329" y="424" type="line"/>
      <point x="329" y="603" type="line"/>
      <point x="229" y="603" type="line"/>
      <point x="229" y="424" type="line"/>
      <point x="49" y="424" type="line"/>
    </contour>
    <contour>
      <point x="512" y="102" type="line"/>
      <point x="49" y="102" type="line"/>
      <point x="49" y="10" type="line"/>
      <point x="512" y="10" type="line"/>
    </contour>
  </outline>
</glyph>
<glyph name="Atilde" format="1">
  <advance width="681"/>
  <unicode hex="00C3"/>
  <outline>
    <contour>
      <point x="187" y="927"/>
      <point x="138" y="873"/>
      <point x="138" y="785" type="curve"/>
      <point x="223" y="785" type="line"/>
      <point x="223" y="821"/>
      <point x="241" y="842"/>
      <point x="269" y="842" type="curve" smooth="yes"/>
      <point x="315" y="842"/>
      <point x="335" y="774"/>
      <point x="412" y="774" type="curve" smooth="yes"/>
      <point x="487" y="774"/>
      <point x="536" y="830"/>
      <point x="536" y="916" type="curve"/>
      <point x="452" y="916" type="line"/>
      <point x="452" y="882"/>
      <point x="436" y="860"/>
      <point x="411" y="860" type="curve" smooth="yes"/>
      <point x="355" y="860"/>
      <point x="347" y="927"/>
      <point x="265" y="927" type="curve" smooth="yes"/>
    </contour>
    <contour>
      <point x="675" y="0" type="line"/>
      <point x="439" y="709" type="line"/>
      <point x="237" y="709" type="line"/>
      <point x="7" y="0" type="line"/>
      <point x="157" y="0" type="line"/>
      <point x="215" y="182" type="line"/>
      <point x="467" y="182" type="line"/>
      <point x="527" y="0" type="line"/>
    </contour>
    <contour>
      <point x="249" y="295" type="line"/>
      <point x="336" y="578" type="line"/>
      <point x="343" y="578" type="line"/>
      <point x="432" y="295" type="line"/>
    </contour>
  </outline>
</glyph>
<glyph name="Adieresis" format="1">
  <advance width="681"/>
  <unicode hex="00C4"/>
  <outline>
    <contour>
      <point x="297" y="901" type="line"/>
      <point x="175" y="901" type="line"/>
      <point x="175" y="783" type="line"/>
      <point x="297" y="783" type="line"/>
    </contour>
    <contour>
      <point x="503" y="901" type="line"/>
      <point x="382" y="901" type="line"/>
      <point x="382" y="783" type="line"/>
      <point x="503" y="783" type="line"/>
    </contour>
    <contour>
      <point x="675" y="0" type="line"/>
      <point x="439" y="709" type="line"/>
      <point x="237" y="709" type="line"/>
      <point x="7" y="0" type="line"/>
      <point x="157" y="0" type="line"/>
      <point x="215" y="182" type="line"/>
      <point x="467" y="182" type="line"/>
      <point x="527" y="0" type="line"/>
    </contour>
    <contour>
      <point x="249" y="295" type="line"/>
      <point x="336" y="578" type="line"/>
      <point x="343" y="578" type="line"/>
      <point x="432" y="295" type="line"/>
    </contour>
  </outline>
</glyph>
<glyph name="Ecircumflex" format="1">
  <advance width="587"/>
  <unicode hex="00CA"/>
  <outline>
    <contour>
      <point x="489" y="801" type="line"/>
      <point x="333" y="942" type="line"/>
      <point x="302" y="942" type="line"/>
      <point x="146" y="801" type="line"/>
      <point x="187" y="751" type="line"/>
      <point x="317" y="838" type="line"/>
      <point x="448" y="751" type="line"/>
    </contour>
    <contour>
      <point x="543" y="709" type="line"/>
      <point x="81" y="709" type="line"/>
      <point x="81" y="0" type="line"/>
      <point x="553" y="0" type="line"/>
      <point x="553" y="113" type="line"/>
      <point x="234" y="113" type="line"/>
      <point x="234" y="310" type="line"/>
      <point x="513" y="310" type="line"/>
      <point x="513" y="421" type="line"/>
      <point x="234" y="421" type="line"/>
      <point x="234" y="596" type="line"/>
      <point x="543" y="596" type="line"/>
    </contour>
  </outline>
</glyph>
<glyph name="Uacute" format="1">
  <advance width="724"/>
  <unicode hex="00DA"/>
  <outline>
    <contour>
      <point x="450" y="965" type="line"/>
      <point x="294" y="804" type="line"/>
      <point x="335" y="754" type="line"/>
      <point x="515" y="879" type="line"/>
    </contour>
    <contour>
      <point x="658" y="709" type="line"/>
      <point x="505" y="709" type="line"/>
      <point x="505" y="240" type="line" smooth="yes"/>
      <point x="505" y="154"/>
      <point x="456" y="111"/>
      <point x="362" y="111" type="curve" smooth="yes"/>
      <point x="266" y="111"/>
      <point x="219" y="154"/>
      <point x="219" y="240" type="curve" smooth="yes"/>
      <point x="219" y="709" type="line"/>
      <point x="66" y="709" type="line"/>
      <point x="66" y="242" type="line" smooth="yes"/>
      <point x="66" y="76"/>
      <point x="168" y="-10"/>
      <point x="362" y="-10" type="curve" smooth="yes"/>
      <point x="553" y="-10"/>
      <point x="658" y="78"/>
      <point x="658" y="242" type="curve" smooth="yes"/>
    </contour>
  </outline>
</glyph>
<glyph name="ae" format="1">
  <advance width="873"/>
  <unicode hex="00E6"/>
  <outline>
    <contour>
      <point x="841" y="234" type="line"/>
      <point x="841" y="268" type="line" smooth="yes"/>
      <point x="841" y="444"/>
      <point x="763" y="532"/>
      <point x="609" y="532" type="curve" smooth="yes"/>
      <point x="535" y="532"/>
      <point x="475" y="509"/>
      <point x="433" y="467" type="curve"/>
      <point x="399" y="509"/>
      <point x="344" y="531"/>
      <point x="271" y="531" type="curve" smooth="yes"/>
      <point x="204" y="531"/>
      <point x="125" y="516"/>
      <point x="54" y="487" type="curve"/>
      <point x="86" y="389" type="line"/>
      <point x="133" y="410"/>
      <point x="200" y="425"/>
      <point x="246" y="425" type="curve" smooth="yes"/>
      <point x="312" y="425"/>
      <point x="347" y="395"/>
      <point x="349" y="334" type="curve" smooth="yes"/>
      <point x="349" y="321" type="line"/>
      <point x="285" y="321" type="line" smooth="yes"/>
      <point x="120" y="321"/>
      <point x="25" y="256"/>
      <point x="25" y="145" type="curve" smooth="yes"/>
      <point x="25" y="50"/>
      <point x="92" y="-10"/>
      <point x="200" y="-10" type="curve" smooth="yes"/>
      <point x="289" y="-10"/>
      <point x="368" y="22"/>
      <point x="426" y="66" type="curve"/>
      <point x="469" y="17"/>
      <point x="532" y="-9"/>
      <point x="610" y="-9" type="curve" smooth="yes"/>
      <point x="679" y="-9"/>
      <point x="747" y="9"/>
      <point x="815" y="45" type="curve"/>
      <point x="779" y="134" type="line"/>
      <point x="725" y="112"/>
      <point x="677" y="100"/>
      <point x="627" y="100" type="curve" smooth="yes"/>
      <point x="547" y="100"/>
      <point x="497" y="140"/>
      <point x="489" y="234" type="curve"/>
    </contour>
    <contour>
      <point x="492" y="320" type="line"/>
      <point x="504" y="393"/>
      <point x="543" y="429"/>
      <point x="608" y="429" type="curve" smooth="yes"/>
      <point x="668" y="429"/>
      <point x="700" y="393"/>
      <point x="705" y="320" type="curve"/>
    </contour>
    <contour>
      <point x="349" y="236" type="line"/>
      <point x="349" y="136" type="line"/>
      <point x="324" y="107"/>
      <point x="280" y="87"/>
      <point x="239" y="87" type="curve" smooth="yes"/>
      <point x="190" y="87"/>
      <point x="163" y="110"/>
      <point x="163" y="154" type="curve" smooth="yes"/>
      <point x="163" y="207"/>
      <point x="210" y="236"/>
      <point x="294" y="236" type="curve" smooth="yes"/>
    </contour>
  </outline>
</glyph>
<glyph name="eth" format="1">
  <advance width="593"/>
  <unicode hex="00F0"/>
  <outline>
    <contour>
      <point x="382" y="719" type="line"/>
      <point x="328" y="761" type="line"/>
      <point x="286" y="708" type="line"/>
      <point x="241" y="729"/>
      <point x="192" y="746"/>
      <point x="139" y="759" type="curve"/>
      <point x="108" y="658" type="line"/>
      <point x="148" y="647"/>
      <point x="184" y="634"/>
      <point x="216" y="620" type="curve"/>
      <point x="170" y="562" type="line"/>
      <point x="225" y="519" type="line"/>
      <point x="278" y="586" type="line"/>
      <point x="328" y="553"/>
      <point x="363" y="511"/>
      <point x="384" y="457" type="curve"/>
      <point x="349" y="480"/>
      <point x="307" y="494"/>
      <point x="260" y="494" type="curve" smooth="yes"/>
      <point x="116" y="494"/>
      <point x="29" y="402"/>
      <point x="29" y="251" type="curve" smooth="yes"/>
      <point x="29" y="88"/>
      <point x="127" y="-9"/>
      <point x="292" y="-9" type="curve" smooth="yes"/>
      <point x="455" y="-9"/>
      <point x="553" y="103"/>
      <point x="553" y="300" type="curve" smooth="yes"/>
      <point x="553" y="471"/>
      <point x="475" y="595"/>
      <point x="348" y="675" type="curve"/>
    </contour>
    <contour>
      <point x="215" y="103"/>
      <point x="173" y="155"/>
      <point x="173" y="252" type="curve" smooth="yes"/>
      <point x="173" y="346"/>
      <point x="214" y="395"/>
      <point x="291" y="395" type="curve" smooth="yes"/>
      <point x="337" y="395"/>
      <point x="376" y="380"/>
      <point x="407" y="353" type="curve"/>
      <point x="408" y="337"/>
      <point x="409" y="321"/>
      <point x="409" y="304" type="curve" smooth="yes"/>
      <point x="409" y="165"/>
      <point x="369" y="103"/>
      <point x="290" y="103" type="curve" smooth="yes"/>
    </contour>
  </outline>
</glyph>
<glyph name="otilde" format="1">
  <advance width="598"/>
  <unicode hex="00F5"/>
  <outline>
    <contour>
      <point x="147" y="743"/>
      <point x="98" y="689"/>
      <point x="98" y="601" type="curve"/>
      <point x="183" y="601" type="line"/>
      <point x="183" y="637"/>
      <point x="201" y="658"/>
      <point x="229" y="658" type="curve" smooth="yes"/>
      <point x="275" y="658"/>
      <point x="295" y="590"/>
      <point x="372" y="590" type="curve" smooth="yes"/>
      <point x="447" y="590"/>
      <point x="496" y="646"/>
      <point x="496" y="732" type="curve"/>
      <point x="412" y="732" type="line"/>
      <point x="412" y="698"/>
      <point x="396" y="676"/>
      <point x="371" y="676" type="curve" smooth="yes"/>
      <point x="315" y="676"/>
      <point x="307" y="743"/>
      <point x="225" y="743" type="curve" smooth="yes"/>
    </contour>
    <contour>
      <point x="127" y="536"/>
      <point x="32" y="439"/>
      <point x="32" y="263" type="curve" smooth="yes"/>
      <point x="32" y="87"/>
      <point x="128" y="-11"/>
      <point x="299" y="-11" type="curve" smooth="yes"/>
      <point x="470" y="-11"/>
      <point x="566" y="86"/>
      <point x="566" y="263" type="curve" smooth="yes"/>
      <point x="566" y="439"/>
      <point x="471" y="536"/>
      <point x="299" y="536" type="curve" smooth="yes"/>
    </contour>
    <contour>
      <point x="376" y="424"/>
      <point x="415" y="370"/>
      <point x="415" y="263" type="curve" smooth="yes"/>
      <point x="415" y="155"/>
      <point x="376" y="102"/>
      <point x="299" y="102" type="curve" smooth="yes"/>
      <point x="222" y="102"/>
      <point x="183" y="155"/>
      <point x="183" y="263" type="curve" smooth="yes"/>
      <point x="183" y="370"/>
      <point x="222" y="424"/>
      <point x="299" y="424" type="curve" smooth="yes"/>
    </contour>
  </outline>
</glyph>
<glyph name="divide" format="1">
  <advance width="572"/>
  <unicode hex="00F7"/>
  <outline>
    <contour>
      <point x="32" y="354" type="line"/>
      <point x="32" y="254" type="line"/>
      <point x="526" y="254" type="line"/>
      <point x="526" y="354" type="line"/>
    </contour>
    <contour>
      <point x="220" y="180" type="line"/>
      <point x="220" y="70" type="line"/>
      <point x="330" y="70" type="line"/>
      <point x="330" y="180" type="line"/>
    </contour>
    <contour>
      <point x="220" y="543" type="line"/>
      <point x="220" y="433" type="line"/>
      <point x="330" y="433" type="line"/>
      <point x="330" y="543" type="line"/>
    </contour>
  </outline>
</glyph>
<glyph name="uacute" format="1">
  <advance width="628"/>
  <unicode hex="00FA"/>
  <outline>
    <contour>
      <point x="398" y="781" type="line"/>
      <point x="242" y="620" type="line"/>
      <point x="283" y="570" type="line"/>
      <point x="463" y="695" type="line"/>
    </contour>
    <contour>
      <point x="62" y="176" type="line" smooth="yes"/>
      <point x="62" y="58"/>
      <point x="124" y="-8"/>
      <point x="237" y="-8" type="curve" smooth="yes"/>
      <point x="309" y="-8"/>
      <point x="370" y="20"/>
      <point x="414" y="73" type="curve"/>
      <point x="431" y="0" type="line"/>
      <point x="555" y="0" type="line"/>
      <point x="555" y="524" type="line"/>
      <point x="405" y="524" type="line"/>
      <point x="405" y="158" type="line"/>
      <point x="379" y="120"/>
      <point x="334" y="98"/>
      <point x="288" y="98" type="curve" smooth="yes"/>
      <point x="235" y="98"/>
      <point x="212" y="124"/>
      <point x="212" y="184" type="curve" smooth="yes"/>
      <point x="212" y="524" type="line"/>
      <point x="62" y="524" type="line"/>
    </contour>
  </outline>
</glyph>
<glyph name="ccircumflex" format="1">
  <advance width="477"/>
  <unicode hex="0109"/>
  <outline>
    <contour>
      <point x="447" y="617" type="line"/>
      <point x="291" y="758" type="line"/>
      <point x="260" y="758" type="line"/>
      <point x="104" y="617" type="line"/>
      <point x="145" y="567" type="line"/>
      <point x="275" y="654" type="line"/>
      <point x="406" y="567" type="line"/>
    </contour>
    <contour>
      <point x="131" y="532"/>
      <point x="32" y="434"/>
      <point x="32" y="263" type="curve" smooth="yes"/>
      <point x="32" y="89"/>
      <point x="127" y="-8"/>
      <point x="300" y="-8" type="curve" smooth="yes"/>
      <point x="351" y="-8"/>
      <point x="410" y="5"/>
      <point x="458" y="26" type="curve"/>
      <point x="434" y="128" type="line"/>
      <point x="400" y="113"/>
      <point x="359" y="104"/>
      <point x="324" y="104" type="curve" smooth="yes"/>
      <point x="234" y="104"/>
      <point x="183" y="161"/>
      <point x="183" y="263" type="curve" smooth="yes"/>
      <point x="183" y="365"/>
      <point x="232" y="424"/>
      <point x="319" y="424" type="curve" smooth="yes"/>
      <point x="353" y="424"/>
      <point x="386" y="415"/>
      <point x="422" y="396" type="curve"/>
      <point x="455" y="495" type="line"/>
      <point x="408" y="519"/>
      <point x="355" y="532"/>
      <point x="303" y="532" type="curve" smooth="yes"/>
    </contour>
  </outline>
</glyph>
<glyph name="dcaron" format="1">
  <advance width="693"/>
  <unicode hex="010F"/>
  <outline>
    <contour>
      <point x="732" y="752" type="line"/>
      <point x="624" y="768" type="line"/>
      <point x="622" y="562" type="line"/>
      <point x="686" y="555" type="line"/>
    </contour>
    <contour>
      <point x="403" y="752" type="line"/>
      <point x="403" y="522" type="line"/>
      <point x="368" y="529"/>
      <point x="344" y="532"/>
      <point x="315" y="532" type="curve" smooth="yes"/>
      <point x="140" y="532"/>
      <point x="32" y="428"/>
      <point x="32" y="252" type="curve" smooth="yes"/>
      <point x="32" y="87"/>
      <point x="117" y="-7"/>
      <point x="261" y="-7" type="curve" smooth="yes"/>
      <point x="323" y="-7"/>
      <point x="371" y="14"/>
      <point x="415" y="63" type="curve"/>
      <point x="438" y="1" type="line"/>
      <point x="553" y="1" type="line"/>
      <point x="553" y="752" type="line"/>
    </contour>
    <contour>
      <point x="223" y="99"/>
      <point x="183" y="147"/>
      <point x="183" y="257" type="curve" smooth="yes"/>
      <point x="183" y="373"/>
      <point x="234" y="431"/>
      <point x="323" y="431" type="curve" smooth="yes"/>
      <point x="350" y="431"/>
      <point x="364" y="429"/>
      <point x="403" y="419" type="curve"/>
      <point x="403" y="182" type="line"/>
      <point x="386" y="131"/>
      <point x="345" y="99"/>
      <point x="292" y="99" type="curve" smooth="yes"/>
    </contour>
  </outline>
</glyph>
<glyph name="eogonek" format="1">
  <advance width="564"/>
  <unicode hex="0119"/>
  <outline>
    <contour>
      <point x="291" y="-179"/>
      <point x="339" y="-211"/>
      <point x="396" y="-211" type="curve" smooth="yes"/>
      <point x="441" y="-211"/>
      <point x="475" y="-199"/>
      <point x="516" y="-178" type="curve"/>
      <point x="498" y="-126" type="line"/>
      <point x="483" y="-133"/>
      <point x="466" y="-137"/>
      <point x="450" y="-137" type="curve" smooth="yes"/>
      <point x="426" y="-137"/>
      <point x="407" y="-121"/>
      <point x="407" y="-88" type="curve" smooth="yes"/>
      <point x="407" y="-35"/>
      <point x="448" y="8"/>
      <point x="519" y="48" type="curve"/>
      <point x="482" y="137" type="line"/>
      <point x="415" y="111"/>
      <point x="366" y="99"/>
      <point x="316" y="99" type="curve" smooth="yes"/>
      <point x="225" y="99"/>
      <point x="182" y="156"/>
      <point x="178" y="229" type="curve"/>
      <point x="178" y="234" type="line"/>
      <point x="531" y="234" type="line"/>
      <point x="531" y="268" type="line" smooth="yes"/>
      <point x="531" y="444"/>
      <point x="453" y="533"/>
      <point x="296" y="533" type="curve" smooth="yes"/>
      <point x="131" y="533"/>
      <point x="32" y="432"/>
      <point x="32" y="263" type="curve" smooth="yes"/>
      <point x="32" y="94"/>
      <point x="132" y="-8"/>
      <point x="298" y="-8" type="curve" smooth="yes"/>
      <point x="315" y="-8"/>
      <point x="334" y="-6"/>
      <point x="343" y="-5" type="curve"/>
      <point x="345" y="-10" type="line"/>
      <point x="313" y="-38"/>
      <point x="291" y="-75"/>
      <point x="291" y="-116" type="curve" smooth="yes"/>
    </contour>
    <contour>
      <point x="181" y="320" type="line"/>
      <point x="193" y="392"/>
      <point x="231" y="429"/>
      <point x="297" y="429" type="curve" smooth="yes"/>
      <point x="357" y="429"/>
      <point x="389" y="394"/>
      <point x="393" y="320" type="curve"/>
    </contour>
  </outline>
</glyph>
<glyph name="Iogonek" format="1">
  <advance width="317"/>
  <unicode hex="012E"/>
  <outline>
    <contour>
      <point x="30" y="-185"/>
      <point x="74" y="-225"/>
      <point x="136" y="-225" type="curve" smooth="yes"/>
      <point x="181" y="-225"/>
      <point x="215" y="-214"/>
      <point x="257" y="-192" type="curve"/>
      <point x="239" y="-141" type="line"/>
      <point x="224" y="-148"/>
      <point x="206" y="-152"/>
      <point x="191" y="-152" type="curve" smooth="yes"/>
      <point x="159" y="-152"/>
      <point x="147" y="-131"/>
      <point x="147" y="-105" type="curve" smooth="yes"/>
      <point x="147" y="-63"/>
      <point x="174" y="-28"/>
      <point x="224" y="0" type="curve"/>
      <point x="235" y="0" type="line"/>
      <point x="235" y="709" type="line"/>
      <point x="82" y="709" type="line"/>
      <point x="82" y="0" type="line"/>
      <point x="112" y="0" type="line"/>
      <point x="66" y="-30"/>
      <point x="30" y="-75"/>
      <point x="30" y="-130" type="curve" smooth="yes"/>
    </contour>
  </outline>
</glyph>
<glyph name="uni0136" format="1">
  <advance width="683"/>
  <unicode hex="0136"/>
  <outline>
    <contour>
      <point x="234" y="709" type="line"/>
      <point x="81" y="709" type="line"/>
      <point x="81" y="0" type="line"/>
      <point x="234" y="0" type="line"/>
    </contour>
    <contour>
      <point x="485" y="709" type="line"/>
      <point x="248" y="379" type="line"/>
      <point x="507" y="0" type="line"/>
      <point x="681" y="0" type="line"/>
      <point x="414" y="381" type="line"/>
      <point x="657" y="709" type="line"/>
    </contour>
    <contour>
      <point x="310" y="-45" type="line"/>
      <point x="309" y="-107"/>
      <point x="300" y="-158"/>
      <point x="277" y="-220" type="curve"/>
      <point x="359" y="-220" type="line"/>
      <point x="403" y="-152"/>
      <point x="420" y="-109"/>
      <point x="428" y="-45" type="curve"/>
    </contour>
  </outline>
</glyph>
<glyph name="Lacute" format="1">
  <advance width="532"/>
  <unicode hex="0139"/>
  <outline>
    <contour>
      <point x="245" y="953" type="line"/>
      <point x="89" y="792" type="line"/>
      <point x="130" y="742" type="line"/>
      <point x="310" y="867" type="line"/>
    </contour>
    <contour>
      <point x="227" y="709" type="line"/>
      <point x="81" y="709" type="line"/>
      <point x="81" y="0" type="line"/>
      <point x="525" y="0" type="line"/>
      <point x="525" y="116" type="line"/>
      <point x="227" y="116" type="line"/>
    </contour>
  </outline>
</glyph>
<glyph name="lslash" format="1">
  <advance width="324"/>
  <unicode hex="0142"/>
  <outline>
    <contour>
      <point x="308" y="429" type="line"/>
      <point x="308" y="545" type="line"/>
      <point x="237" y="504" type="line"/>
      <point x="237" y="754" type="line"/>
      <point x="87" y="754" type="line"/>
      <point x="87" y="417" type="line"/>
      <point x="15" y="375" type="line"/>
      <point x="15" y="260" type="line"/>
      <point x="87" y="302" type="line"/>
      <point x="87" y="0" type="line"/>
      <point x="237" y="0" type="line"/>
      <point x="237" y="388" type="line"/>
    </contour>
  </outline>
</glyph>
<glyph name="nacute" format="1">
  <advance width="625"/>
  <unicode hex="0144"/>
  <outline>
    <contour>
      <point x="413" y="781" type="line"/>
      <point x="257" y="620" type="line"/>
      <point x="298" y="570" type="line"/>
      <point x="478" y="695" type="line"/>
    </contour>
    <contour>
      <point x="196" y="524" type="line"/>
      <point x="71" y="524" type="line"/>
      <point x="71" y="0" type="line"/>
      <point x="221" y="0" type="line"/>
      <point x="221" y="366" type="line"/>
      <point x="246" y="404"/>
      <point x="291" y="427"/>
      <point x="339" y="427" type="curve" smooth="yes"/>
      <point x="392" y="427"/>
      <point x="415" y="401"/>
      <point x="415" y="340" type="curve" smooth="yes"/>
      <point x="415" y="0" type="line"/>
      <point x="565" y="0" type="line"/>
      <point x="565" y="348" type="line" smooth="yes"/>
      <point x="565" y="466"/>
      <point x="503" y="532"/>
      <point x="394" y="532" type="curve" smooth="yes"/>
      <point x="319" y="532"/>
      <point x="258" y="505"/>
      <point x="212" y="451" type="curve"/>
    </contour>
  </outline>
</glyph>
<glyph name="Eng" format="1">
  <advance width="756"/>
  <unicode hex="014A"/>
  <outline>
    <contour>
      <point x="673" y="709" type="line"/>
      <point x="534" y="709" type="line"/>
      <point x="534" y="237" type="line"/>
      <point x="204" y="709" type="line"/>
      <point x="82" y="709" type="line"/>
      <point x="82" y="0" type="line"/>
      <point x="222" y="0" type="line"/>
      <point x="222" y="472" type="line"/>
      <point x="529" y="34" type="line"/>
      <point x="513" y="-32"/>
      <point x="462" y="-86"/>
      <point x="377" y="-130" type="curve"/>
      <point x="420" y="-217" type="line"/>
      <point x="573" y="-158"/>
      <point x="666" y="-53"/>
      <point x="673" y="64" type="curve"/>
    </contour>
  </outline>
</glyph>
<glyph name="OE" format="1">
  <advance width="1000"/>
  <unicode hex="0152"/>
  <outline>
    <contour>
      <point x="36" y="120"/>
      <point x="156" y="-9"/>
      <point x="379" y="-9" type="curve" smooth="yes"/>
      <point x="425" y="-9"/>
      <point x="467" y="-4"/>
      <point x="507" y="0" type="curve"/>
      <point x="963" y="0" type="line"/>
      <point x="963" y="113" type="line"/>
      <point x="649" y="113" type="line"/>
      <point x="649" y="310" type="line"/>
      <point x="924" y="310" type="line"/>
      <point x="924" y="421" type="line"/>
      <point x="649" y="421" type="line"/>
      <point x="649" y="596" type="line"/>
      <point x="954" y="596" type="line"/>
      <point x="954" y="709" type="line"/>
      <point x="523" y="709" type="line" smooth="yes"/>
      <point x="479" y="709"/>
      <point x="432" y="717"/>
      <point x="379" y="717" type="curve" smooth="yes"/>
      <point x="159" y="717"/>
      <point x="36" y="588"/>
      <point x="36" y="357" type="curve" smooth="yes"/>
    </contour>
    <contour>
      <point x="496" y="117" type="line"/>
      <point x="465" y="113"/>
      <point x="428" y="111"/>
      <point x="387" y="111" type="curve" smooth="yes"/>
      <point x="260" y="111"/>
      <point x="193" y="196"/>
      <point x="193" y="357" type="curve" smooth="yes"/>
      <point x="193" y="514"/>
      <point x="260" y="597"/>
      <point x="387" y="597" type="curve" smooth="yes"/>
      <point x="427" y="597"/>
      <point x="464" y="595"/>
      <point x="496" y="594" type="curve"/>
    </contour>
  </outline>
</glyph>
<glyph name="uni0156" format="1">
  <advance width="645"/>
  <unicode hex="0156"/>
  <outline>
    <contour>
      <point x="623" y="0" type="line"/>
      <point x="468" y="297" type="line"/>
      <point x="552" y="331"/>
      <point x="599" y="398"/>
      <point x="599" y="488" type="curve" smooth="yes"/>
      <point x="599" y="632"/>
      <point x="500" y="709"/>
      <point x="324" y="709" type="curve" smooth="yes"/>
      <point x="81" y="709" type="line"/>
      <point x="81" y="0" type="line"/>
      <point x="232" y="0" type="line"/>
      <point x="232" y="270" type="line"/>
      <point x="312" y="270" type="line"/>
      <point x="330" y="270" type="line"/>
      <point x="460" y="0" type="line"/>
    </contour>
    <contour>
      <point x="232" y="380" type="line"/>
      <point x="232" y="596" type="line"/>
      <point x="318" y="596" type="line" smooth="yes"/>
      <point x="405" y="596"/>
      <point x="447" y="564"/>
      <point x="447" y="488" type="curve" smooth="yes"/>
      <point x="447" y="414"/>
      <point x="405" y="380"/>
      <point x="318" y="380" type="curve" smooth="yes"/>
    </contour>
    <contour>
      <point x="343" y="-220" type="line"/>
      <point x="387" y="-152"/>
      <point x="404" y="-109"/>
      <point x="412" y="-45" type="curve"/>
      <point x="294" y="-45" type="line"/>
      <point x="293" y="-107"/>
      <point x="284" y="-158"/>
      <point x="261" y="-220" type="curve"/>
    </contour>
  </outline>
</glyph>
<glyph name="scedilla" format="1">
  <advance width="469"/>
  <unicode hex="015F"/>
  <outline>
    <contour>
      <point x="439" y="275"/>
      <point x="339" y="298"/>
      <point x="263" y="319" type="curve" smooth="yes"/>
      <point x="218" y="332"/>
      <point x="181" y="346"/>
      <point x="181" y="380" type="curve" smooth="yes"/>
      <point x="181" y="412"/>
      <point x="211" y="432"/>
      <point x="261" y="432" type="curve" smooth="yes"/>
      <point x="293" y="432"/>
      <point x="329" y="424"/>
      <point x="398" y="402" type="curve"/>
      <point x="429" y="500" type="line"/>
      <point x="359" y="524"/>
      <point x="306" y="534"/>
      <point x="256" y="534" type="curve" smooth="yes"/>
      <point x="120" y="534"/>
      <point x="39" y="475"/>
      <point x="39" y="377" type="curve" smooth="yes"/>
      <point x="39" y="262"/>
      <point x="126" y="236"/>
      <point x="197" y="216" type="curve" smooth="yes"/>
      <point x="249" y="201"/>
      <point x="294" y="189"/>
      <point x="294" y="149" type="curve" smooth="yes"/>
      <point x="294" y="113"/>
      <point x="267" y="93"/>
      <point x="215" y="93" type="curve" smooth="yes"/>
      <point x="177" y="93"/>
      <point x="134" y="104"/>
      <point x="59" y="131" type="curve"/>
      <point x="23" y="32" type="line"/>
      <point x="83" y="6"/>
      <point x="145" y="-8"/>
      <point x="212" y="-10" type="curve"/>
      <point x="177" y="-56" type="line"/>
      <point x="187" y="-82" type="line"/>
      <point x="227" y="-91"/>
      <point x="244" y="-104"/>
      <point x="244" y="-124" type="curve" smooth="yes"/>
      <point x="244" y="-144"/>
      <point x="230" y="-154"/>
      <point x="209" y="-154" type="curve" smooth="yes"/>
      <point x="191" y="-154"/>
      <point x="171" y="-148"/>
      <point x="160" y="-142" type="curve"/>
      <point x="138" y="-189" type="line"/>
      <point x="162" y="-203"/>
      <point x="197" y="-216"/>
      <point x="233" y="-216" type="curve" smooth="yes"/>
      <point x="283" y="-216"/>
      <point x="326" y="-187"/>
      <point x="326" y="-128" type="curve" smooth="yes"/>
      <point x="326" y="-94"/>
      <point x="294" y="-58"/>
      <point x="252" y="-45" type="curve"/>
      <point x="264" y="-8" type="line"/>
      <point x="374" y="3"/>
      <point x="439" y="63"/>
      <point x="439" y="154" type="curve" smooth="yes"/>
    </contour>
  </outline>
</glyph>
<glyph name="Tcaron" format="1">
  <advance width="558"/>
  <unicode hex="0164"/>
  <outline>
    <contour>
      <point x="456" y="899" type="line"/>
      <point x="415" y="949" type="line"/>
      <point x="284" y="862" type="line"/>
      <point x="154" y="949" type="line"/>
      <point x="113" y="899" type="line"/>
      <point x="269" y="758" type="line"/>
      <point x="300" y="758" type="line"/>
    </contour>
    <contour>
      <point x="7" y="593" type="line"/>
      <point x="206" y="593" type="line"/>
      <point x="206" y="0" type="line"/>
      <point x="359" y="0" type="line"/>
      <point x="359" y="593" type="line"/>
      <point x="551" y="593" type="line"/>
      <point x="551" y="709" type="line"/>
      <point x="7" y="709" type="line"/>
    </contour>
  </outline>
</glyph>
<glyph name="Utilde" format="1">
  <advance width="724"/>
  <unicode hex="0168"/>
  <outline>
    <contour>
      <point x="210" y="927"/>
      <point x="161" y="873"/>
      <point x="161" y="785" type="curve"/>
      <point x="246" y="785" type="line"/>
      <point x="246" y="821"/>
      <point x="264" y="842"/>
      <point x="292" y="842" type="curve" smooth="yes"/>
      <point x="338" y="842"/>
      <point x="358" y="774"/>
      <point x="435" y="774" type="curve" smooth="yes"/>
      <point x="510" y="774"/>
      <point x="559" y="830"/>
      <point x="559" y="916" type="curve"/>
      <point x="475" y="916" type="line"/>
      <point x="475" y="882"/>
      <point x="459" y="860"/>
      <point x="434" y="860" type="curve" smooth="yes"/>
      <point x="378" y="860"/>
      <point x="370" y="927"/>
      <point x="288" y="927" type="curve" smooth="yes"/>
    </contour>
    <contour>
      <point x="658" y="709" type="line"/>
      <point x="505" y="709" type="line"/>
      <point x="505" y="240" type="line" smooth="yes"/>
      <point x="505" y="154"/>
      <point x="456" y="111"/>
      <point x="362" y="111" type="curve" smooth="yes"/>
      <point x="266" y="111"/>
      <point x="219" y="154"/>
      <point x="219" y="240" type="curve" smooth="yes"/>
      <point x="219" y="709" type="line"/>
      <point x="66" y="709" type="line"/>
      <point x="66" y="242" type="line" smooth="yes"/>
      <point x="66" y="76"/>
      <point x="168" y="-10"/>
      <point x="362" y="-10" type="curve" smooth="yes"/>
      <point x="553" y="-10"/>
      <point x="658" y="78"/>
      <point x="658" y="242" type="curve" smooth="yes"/>
    </contour>
  </outline>
</glyph>
<glyph name="Zacute" format="1">
  <advance width="567"/>
  <unicode hex="0179"/>
  <outline>
    <contour>
      <point x="386" y="965" type="line"/>
      <point x="230" y="804" type="line"/>
      <point x="271" y="754" type="line"/>
      <point x="451" y="879" type="line"/>
    </contour>
    <contour>
      <point x="364" y="595" type="line"/>
      <point x="27" y="100" type="line"/>
      <point x="27" y="0" type="line"/>
      <point x="535" y="0" type="line"/>
      <point x="535" y="115" type="line"/>
      <point x="200" y="115" type="line"/>
      <point x="538" y="612" type="line"/>
      <point x="538" y="711" type="line"/>
      <point x="38" y="711" type="line"/>
      <point x="38" y="595" type="line"/>
    </contour>
  </outline>
</glyph>
<glyph name="zdotaccent" format="1">
  <advance width="473"/>
  <unicode hex="017C"/>
  <outline>
    <contour>
      <point x="307" y="720" type="line"/>
      <point x="185" y="720" type="line"/>
      <point x="185" y="602" type="line"/>
      <point x="307" y="602" type="line"/>
    </contour>
    <contour>
      <point x="271" y="413" type="line"/>
      <point x="28" y="93" type="line"/>
      <point x="28" y="0" type="line"/>
      <point x="447" y="0" type="line"/>
      <point x="447" y="111" type="line"/>
      <point x="195" y="111" type="line"/>
      <point x="438" y="434" type="line"/>
      <point x="438" y="524" type="line"/>
      <point x="39" y="524" type="line"/>
      <point x="39" y="413" type="line"/>
    </contour>
  </outline>
</glyph>
<glyph name="florin" format="1">
  <advance width="496"/>
  <unicode hex="0192"/>
  <outline>
    <contour>
      <point x="-9" y="-190" type="line"/>
      <point x="129" y="-129"/>
      <point x="188" y="-66"/>
      <point x="208" y="52" type="curve" smooth="yes"/>
      <point x="270" y="425" type="line"/>
      <point x="406" y="425" type="line"/>
      <point x="422" y="524" type="line"/>
      <point x="286" y="524" type="line"/>
      <point x="293" y="566" type="line" smooth="yes"/>
      <point x="301" y="616"/>
      <point x="335" y="647"/>
      <point x="381" y="647" type="curve" smooth="yes"/>
      <point x="403" y="647"/>
      <point x="425" y="644"/>
      <point x="456" y="638" type="curve"/>
      <point x="494" y="722" type="line"/>
      <point x="444" y="736"/>
      <point x="401" y="743"/>
      <point x="360" y="743" type="curve" smooth="yes"/>
      <point x="248" y="743"/>
      <point x="165" y="674"/>
      <point x="148" y="565" type="curve" smooth="yes"/>
      <point x="141" y="524" type="line"/>
      <point x="45" y="524" type="line"/>
      <point x="29" y="425" type="line"/>
      <point x="125" y="425" type="line"/>
      <point x="64" y="62" type="line" smooth="yes"/>
      <point x="51" y="-16"/>
      <point x="17" y="-64"/>
      <point x="-63" y="-116" type="curve"/>
    </contour>
  </outline>
</glyph>
<glyph name="dotlessj" format="1">
  <advance width="297"/>
  <unicode hex="0237"/>
  <outline>
    <contour>
      <point x="49" y="-197" type="line"/>
      <point x="164" y="-108"/>
      <point x="226" y="-7"/>
      <point x="226" y="99" type="curve" smooth="yes"/>
      <point x="226" y="517" type="line"/>
      <point x="76" y="517" type="line"/>
      <point x="76" y="99" type="line" smooth="yes"/>
      <point x="76" y="24"/>
      <point x="44" y="-52"/>
      <point x="-27" y="-140" type="curve"/>
    </contour>
  </outline>
</glyph>
<glyph name="breve" format="1">
  <advance width="387"/>
  <unicode hex="02D8"/>
  <outline>
    <contour>
      <point x="266" y="718" type="line"/>
      <point x="266" y="679"/>
      <point x="237" y="652"/>
      <point x="193" y="652" type="curve" smooth="yes"/>
      <point x="148" y="652"/>
      <point x="121" y="677"/>
      <point x="121" y="718" type="curve"/>
      <point x="36" y="718" type="line"/>
      <point x="36" y="630"/>
      <point x="97" y="573"/>
      <point x="193" y="573" type="curve" smooth="yes"/>
      <point x="289" y="573"/>
      <point x="351" y="630"/>
      <point x="351" y="718" type="curve"/>
    </contour>
  </outline>
</glyph>
<glyph name="hungarumlaut" format="1">
  <advance width="459"/>
  <unicode hex="02DD"/>
  <outline>
    <contour>
      <point x="161" y="783" type="line"/>
      <point x="36" y="608" type="line"/>
      <point x="88" y="570" type="line"/>
      <point x="244" y="717" type="line"/>
    </contour>
    <contour>
      <point x="340" y="783" type="line"/>
      <point x="214" y="608" type="line"/>
      <point x="266" y="570" type="line"/>
      <point x="423" y="717" type="line"/>
    </contour>
  </outline>
</glyph>
<glyph name="candraBindu-deva" format="1">
  <advance width="453"/>
  <unicode hex="0901"/>
  <outline>
    <component base="eCandraMatra-deva" xOffset="17"/>
    <component base="nukta-deva" xOffset="105" yOffset="1074"/>
    <contour>
      <point x="227" y="685" type="move" name="_top"/>
    </contour>
  </outline>
</glyph>
<glyph name="aShort-deva" format="1">
  <advance width="827"/>
  <unicode hex="0904"/>
  <outline>
    <component base="a-deva"/>
    <component base="eShortMatra-deva" xOffset="282"/>
    <contour>
      <point x="753" y="685" type="move" name="imatra"/>
    </contour>
    <contour>
      <point x="687" y="0" type="move" name="bottom"/>
    </contour>
    <contour>
      <point x="687" y="685" type="move" name="top"/>
    </contour>
  </outline>
</glyph>
<glyph name="u-deva" format="1">
  <advance width="527"/>
  <unicode hex="0909"/>
  <outline>
    <contour>
      <point x="245" y="344" type="line"/>
      <point x="302" y="325"/>
      <point x="349" y="280"/>
      <point x="349" y="223" type="curve" smooth="yes"/>
      <point x="349" y="173"/>
      <point x="311" y="142"/>
      <point x="261" y="142" type="curve" smooth="yes"/>
      <point x="199" y="142"/>
      <point x="146" y="173"/>
      <point x="103" y="231" type="curve"/>
      <point x="8" y="168" type="line"/>
      <point x="77" y="64"/>
      <point x="171" y="22"/>
      <point x="269" y="22" type="curve" smooth="yes"/>
      <point x="394" y="22"/>
      <point x="484" y="97"/>
      <point x="484" y="222" type="curve" smooth="yes"/>
      <point x="484" y="307"/>
      <point x="425" y="371"/>
      <point x="333" y="410" type="curve"/>
    </contour>
    <contour>
      <point x="252" y="596" type="line"/>
      <point x="278" y="578"/>
      <point x="303" y="545"/>
      <point x="303" y="512" type="curve" smooth="yes"/>
      <point x="303" y="458"/>
      <point x="264" y="430"/>
      <point x="149" y="406" type="curve"/>
      <point x="179" y="298" type="line"/>
      <point x="383" y="330"/>
      <point x="438" y="419"/>
      <point x="438" y="513" type="curve" smooth="yes"/>
      <point x="438" y="593"/>
      <point x="387" y="634"/>
      <point x="362" y="656" type="curve"/>
    </contour>
    <contour>
      <point x="-30" y="685" type="line"/>
      <point x="-30" y="575" type="line"/>
      <point x="557" y="575" type="line"/>
      <point x="557" y="685" type="line"/>
    </contour>
    <contour>
      <point x="316" y="685" type="move" name="top"/>
    </contour>
    <contour>
      <point x="306" y="0" type="move" name="bottom"/>
    </contour>
  </outline>
</glyph>
<glyph name="rVocalic-deva" format="1">
  <advance width="926"/>
  <unicode hex="090B"/>
  <outline>
    <contour>
      <point x="674" y="522"/>
      <point x="628" y="460"/>
      <point x="628" y="376" type="curve"/>
      <point x="648" y="308"/>
      <point x="673" y="242"/>
      <point x="699" y="195" type="curve"/>
      <point x="833" y="190" type="line"/>
      <point x="814" y="238"/>
      <point x="772" y="322"/>
      <point x="768" y="371" type="curve"/>
      <point x="677" y="429" type="line"/>
      <point x="593" y="386"/>
      <point x="559" y="377"/>
      <point x="473" y="377" type="curve"/>
      <point x="431" y="377"/>
      <point x="407" y="410"/>
      <point x="375" y="442" type="curve" smooth="yes"/>
      <point x="344" y="470"/>
      <point x="305" y="497"/>
      <point x="234" y="497" type="curve"/>
      <point x="164" y="497"/>
      <point x="82" y="451"/>
      <point x="35" y="430" type="curve"/>
      <point x="79" y="330" type="line"/>
      <point x="164" y="374"/>
      <point x="198" y="387"/>
      <point x="234" y="387" type="curve"/>
      <point x="267" y="387"/>
      <point x="290" y="360"/>
      <point x="323" y="333" type="curve" smooth="yes"/>
      <point x="357" y="300"/>
      <point x="400" y="267"/>
      <point x="473" y="267" type="curve"/>
      <point x="652" y="267"/>
      <point x="828" y="355"/>
      <point x="828" y="449" type="curve"/>
      <point x="828" y="492"/>
      <point x="792" y="522"/>
      <point x="739" y="522" type="curve"/>
    </contour>
    <contour>
      <point x="47" y="140" type="line"/>
      <point x="104" y="32" type="line"/>
      <point x="493" y="251" type="line"/>
      <point x="436" y="356" type="line"/>
    </contour>
    <contour>
      <point x="388" y="609" type="line"/>
      <point x="388" y="0" type="line"/>
      <point x="523" y="0" type="line"/>
      <point x="523" y="609" type="line"/>
    </contour>
    <contour>
      <point x="-20" y="685" type="line"/>
      <point x="-20" y="575" type="line"/>
      <point x="946" y="575" type="line"/>
      <point x="946" y="685" type="line"/>
    </contour>
    <component base="rVocalicMatra-deva" xOffset="561" yOffset="259"/>
    <contour>
      <point x="463" y="685" type="move" name="top"/>
    </contour>
    <contour>
      <point x="463" y="0" type="move" name="bottom"/>
    </contour>
  </outline>
</glyph>
<glyph name="oCandra-deva" format="1">
  <advance width="1182"/>
  <unicode hex="0911"/>
  <outline>
    <component base="aa-deva"/>
    <component base="eCandraMatra-deva" xOffset="800"/>
    <contour>
      <point x="1008" y="897" type="move" name="top"/>
    </contour>
    <contour>
      <point x="1008" y="0" type="move" name="bottom"/>
    </contour>
  </outline>
</glyph>
<glyph name="o-deva" format="1">
  <advance width="1182"/>
  <unicode hex="0913"/>
  <outline>
    <component base="aa-deva"/>
    <component base="eMatra-deva" xOffset="774"/>
    <contour>
      <point x="1010" y="867" type="move" name="top"/>
    </contour>
    <contour>
      <point x="1010" y="0" type="move" name="bottom"/>
    </contour>
  </outline>
</glyph>
<glyph name="ka-deva" format="1">
  <advance width="882"/>
  <unicode hex="0915"/>
  <outline>
    <contour>
      <point x="546" y="493"/>
      <point x="485" y="453"/>
      <point x="427" y="357" type="curve"/>
      <point x="501" y="278" type="line"/>
      <point x="532" y="345"/>
      <point x="570" y="383"/>
      <point x="630" y="383" type="curve" smooth="yes"/>
      <point x="682" y="383"/>
      <point x="712" y="351"/>
      <point x="712" y="297" type="curve" smooth="yes"/>
      <point x="712" y="241"/>
      <point x="674" y="212"/>
      <point x="621" y="212" type="curve" smooth="yes"/>
      <point x="601" y="212"/>
      <point x="579" y="216"/>
      <point x="556" y="221" type="curve"/>
      <point x="569" y="110" type="line"/>
      <point x="584" y="105"/>
      <point x="605" y="102"/>
      <point x="628" y="102" type="curve" smooth="yes"/>
      <point x="750" y="102"/>
      <point x="847" y="162"/>
      <point x="847" y="297" type="curve" smooth="yes"/>
      <point x="847" y="420"/>
      <point x="770" y="493"/>
      <point x="640" y="493" type="curve" smooth="yes"/>
    </contour>
    <contour>
      <point x="132" y="493"/>
      <point x="35" y="433"/>
      <point x="35" y="298" type="curve" smooth="yes"/>
      <point x="35" y="175"/>
      <point x="112" y="102"/>
      <point x="242" y="102" type="curve" smooth="yes"/>
      <point x="336" y="102"/>
      <point x="397" y="142"/>
      <point x="455" y="238" type="curve"/>
      <point x="381" y="317" type="line"/>
      <point x="350" y="250"/>
      <point x="312" y="212"/>
      <point x="252" y="212" type="curve" smooth="yes"/>
      <point x="200" y="212"/>
      <point x="170" y="244"/>
      <point x="170" y="298" type="curve" smooth="yes"/>
      <point x="170" y="354"/>
      <point x="208" y="383"/>
      <point x="261" y="383" type="curve" smooth="yes"/>
      <point x="281" y="383"/>
      <point x="303" y="380"/>
      <point x="326" y="374" type="curve"/>
      <point x="313" y="485" type="line"/>
      <point x="298" y="490"/>
      <point x="277" y="493"/>
      <point x="251" y="493" type="curve" smooth="yes"/>
    </contour>
    <contour>
      <point x="373" y="610" type="line"/>
      <point x="373" y="0" type="line"/>
      <point x="508" y="0" type="line"/>
      <point x="508" y="610" type="line"/>
    </contour>
    <contour>
      <point x="-30" y="685" type="line"/>
      <point x="-30" y="575" type="line"/>
      <point x="912" y="575" type="line"/>
      <point x="912" y="685" type="line"/>
    </contour>
    <contour>
      <point x="232" y="-10" type="move" name="nukta"/>
    </contour>
    <contour>
      <point x="441" y="0" type="move" name="bottom"/>
    </contour>
    <contour>
      <point x="441" y="685" type="move" name="top"/>
    </contour>
  </outline>
</glyph>
<glyph name="gha-deva" format="1">
  <advance width="706"/>
  <unicode hex="0918"/>
  <outline>
    <component base="gh-deva"/>
    <component base="aaMatra-deva" xOffset="361"/>
    <contour>
      <point x="534" y="685" type="move" name="top"/>
    </contour>
    <contour>
      <point x="534" y="0" type="move" name="bottom"/>
    </contour>
  </outline>
</glyph>
<glyph name="tta-deva" format="1">
  <advance width="560"/>
  <unicode hex="091F"/>
  <outline>
    <contour>
      <point x="337" y="594" type="line"/>
      <point x="337" y="493" type="line"/>
      <point x="306" y="493" type="line" smooth="yes"/>
      <point x="138" y="493"/>
      <point x="45" y="417"/>
      <point x="45" y="279" type="curve" smooth="yes"/>
      <point x="45" y="132"/>
      <point x="162" y="28"/>
      <point x="329" y="28" type="curve" smooth="yes"/>
      <point x="403" y="28"/>
      <point x="468" y="47"/>
      <point x="527" y="85" type="curve"/>
      <point x="477" y="184" type="line"/>
      <point x="413" y="151"/>
      <point x="379" y="140"/>
      <point x="339" y="140" type="curve" smooth="yes"/>
      <point x="249" y="140"/>
      <point x="199" y="186"/>
      <point x="199" y="269" type="curve" smooth="yes"/>
      <point x="199" y="342"/>
      <point x="243" y="383"/>
      <point x="321" y="383" type="curve" smooth="yes"/>
      <point x="471" y="383" type="line"/>
      <point x="471" y="594" type="line"/>
    </contour>
    <contour>
      <point x="-20" y="685" type="line"/>
      <point x="-20" y="575" type="line"/>
      <point x="580" y="575" type="line"/>
      <point x="580" y="685" type="line"/>
    </contour>
    <contour>
      <point x="402" y="685" type="move" name="top"/>
    </contour>
    <contour>
      <point x="310" y="0" type="move" name="bottom"/>
    </contour>
  </outline>
</glyph>
<glyph name="ttha-deva" format="1">
  <advance width="614"/>
  <unicode hex="0920"/>
  <outline>
    <contour>
      <point x="331" y="594" type="line"/>
      <point x="331" y="493" type="line"/>
      <point x="130" y="493"/>
      <point x="38" y="419"/>
      <point x="38" y="259" type="curve" smooth="yes"/>
      <point x="38" y="122"/>
      <point x="150" y="28"/>
      <point x="312" y="28" type="curve" smooth="yes"/>
      <point x="478" y="28"/>
      <point x="575" y="113"/>
      <point x="575" y="259" type="curve" smooth="yes"/>
      <point x="575" y="346"/>
      <point x="528" y="430"/>
      <point x="446" y="486" type="curve"/>
      <point x="360" y="400" type="line"/>
      <point x="415" y="364"/>
      <point x="440" y="320"/>
      <point x="440" y="259" type="curve" smooth="yes"/>
      <point x="440" y="190"/>
      <point x="385" y="138"/>
      <point x="312" y="138" type="curve" smooth="yes"/>
      <point x="222" y="138"/>
      <point x="173" y="180"/>
      <point x="173" y="259" type="curve" smooth="yes"/>
      <point x="173" y="344"/>
      <point x="224" y="383"/>
      <point x="334" y="383" type="curve" smooth="yes"/>
      <point x="466" y="383" type="line"/>
      <point x="466" y="594" type="line"/>
    </contour>
    <contour>
      <point x="-30" y="685" type="line"/>
      <point x="-30" y="575" type="line"/>
      <point x="644" y="575" type="line"/>
      <point x="644" y="685" type="line"/>
    </contour>
    <contour>
      <point x="398" y="685" type="move" name="top"/>
    </contour>
    <contour>
      <point x="312" y="0" type="move" name="bottom"/>
    </contour>
  </outline>
</glyph>
<glyph name="dda-deva" format="1">
  <advance width="617"/>
  <unicode hex="0921"/>
  <outline>
    <contour>
      <point x="250" y="517" type="line"/>
      <point x="159" y="517"/>
      <point x="103" y="474"/>
      <point x="103" y="404" type="curve"/>
      <point x="103" y="299"/>
      <point x="171" y="224"/>
      <point x="266" y="224" type="curve" smooth="yes"/>
      <point x="300" y="224"/>
      <point x="379" y="245"/>
      <point x="394" y="245" type="curve" smooth="yes"/>
      <point x="417" y="245"/>
      <point x="438" y="232"/>
      <point x="438" y="202" type="curve"/>
      <point x="438" y="150"/>
      <point x="389" y="128"/>
      <point x="326" y="128" type="curve" smooth="yes"/>
      <point x="238" y="128"/>
      <point x="192" y="155"/>
      <point x="110" y="253" type="curve"/>
      <point x="18" y="199" type="line"/>
      <point x="92" y="73"/>
      <point x="189" y="18"/>
      <point x="337" y="18" type="curve" smooth="yes"/>
      <point x="478" y="18"/>
      <point x="573" y="96"/>
      <point x="573" y="214" type="curve"/>
      <point x="573" y="303"/>
      <point x="521" y="355"/>
      <point x="434" y="355" type="curve" smooth="yes"/>
      <point x="409" y="355"/>
      <point x="298" y="334"/>
      <point x="281" y="334" type="curve" smooth="yes"/>
      <point x="257" y="334"/>
      <point x="238" y="347"/>
      <point x="238" y="386" type="curve"/>
      <point x="238" y="402"/>
      <point x="247" y="407"/>
      <point x="264" y="407" type="curve"/>
      <point x="502" y="407" type="line"/>
      <point x="400" y="517" type="line"/>
    </contour>
    <contour>
      <point x="-20" y="685" type="line"/>
      <point x="-20" y="575" type="line"/>
      <point x="637" y="575" type="line"/>
      <point x="637" y="685" type="line"/>
    </contour>
    <contour>
      <point x="367" y="619" type="line"/>
      <point x="367" y="444" type="line"/>
      <point x="502" y="407" type="line"/>
      <point x="502" y="619" type="line"/>
    </contour>
    <contour>
      <point x="616" y="390" type="move" name="nukta"/>
    </contour>
    <contour>
      <point x="337" y="-12" type="move" name="bottom"/>
    </contour>
    <contour>
      <point x="436" y="685" type="move" name="top"/>
    </contour>
  </outline>
</glyph>
<glyph name="ddha-deva" format="1">
  <advance width="600"/>
  <unicode hex="0922"/>
  <outline>
    <contour>
      <point x="345" y="594" type="line"/>
      <point x="345" y="493" type="line"/>
      <point x="323" y="493" type="line" smooth="yes"/>
      <point x="147" y="493"/>
      <point x="46" y="408"/>
      <point x="46" y="259" type="curve" smooth="yes"/>
      <point x="46" y="116"/>
      <point x="155" y="19"/>
      <point x="318" y="19" type="curve" smooth="yes"/>
      <point x="476" y="19"/>
      <point x="561" y="81"/>
      <point x="561" y="189" type="curve" smooth="yes"/>
      <point x="561" y="276"/>
      <point x="496" y="333"/>
      <point x="404" y="333" type="curve" smooth="yes"/>
      <point x="302" y="333"/>
      <point x="245" y="287"/>
      <point x="245" y="204" type="curve" smooth="yes"/>
      <point x="245" y="154"/>
      <point x="267" y="110"/>
      <point x="313" y="70" type="curve"/>
      <point x="401" y="95" type="line"/>
      <point x="376" y="134"/>
      <point x="365" y="161"/>
      <point x="365" y="195" type="curve" smooth="yes"/>
      <point x="365" y="223"/>
      <point x="379" y="238"/>
      <point x="404" y="238" type="curve" smooth="yes"/>
      <point x="428" y="238"/>
      <point x="441" y="224"/>
      <point x="441" y="198" type="curve" smooth="yes"/>
      <point x="441" y="157"/>
      <point x="403" y="129"/>
      <point x="328" y="129" type="curve" smooth="yes"/>
      <point x="229" y="129"/>
      <point x="181" y="172"/>
      <point x="181" y="259" type="curve" smooth="yes"/>
      <point x="181" y="336"/>
      <point x="233" y="383"/>
      <point x="318" y="383" type="curve" smooth="yes"/>
      <point x="479" y="383" type="line"/>
      <point x="479" y="594" type="line"/>
    </contour>
    <contour>
      <point x="-20" y="685" type="line"/>
      <point x="-20" y="575" type="line"/>
      <point x="620" y="575" type="line"/>
      <point x="620" y="685" type="line"/>
    </contour>
    <contour>
      <point x="424" y="685" type="move" name="top"/>
    </contour>
    <contour>
      <point x="317" y="0" type="move" name="bottom"/>
    </contour>
  </outline>
</glyph>
<glyph name="nna-deva" format="1">
  <advance width="765"/>
  <unicode hex="0923"/>
  <outline>
    <component base="nn-deva"/>
    <component base="aaMatra-deva" xOffset="420"/>
    <contour>
      <point x="593" y="685" type="move" name="top"/>
    </contour>
    <contour>
      <point x="593" y="0" type="move" name="bottom"/>
    </contour>
  </outline>
</glyph>
<glyph name="da-deva" format="1">
  <advance width="552"/>
  <unicode hex="0926"/>
  <outline>
    <contour>
      <point x="320" y="594" type="line"/>
      <point x="320" y="493" type="line"/>
      <point x="279" y="493" type="line" smooth="yes"/>
      <point x="123" y="493"/>
      <point x="37" y="442"/>
      <point x="37" y="286" type="curve" smooth="yes"/>
      <point x="37" y="148"/>
      <point x="153" y="58"/>
      <point x="291" y="58" type="curve" smooth="yes"/>
      <point x="410" y="58"/>
      <point x="504" y="91"/>
      <point x="504" y="159" type="curve" smooth="yes"/>
      <point x="504" y="213"/>
      <point x="439" y="269"/>
      <point x="364" y="269" type="curve" smooth="yes"/>
      <point x="309" y="269"/>
      <point x="288" y="232"/>
      <point x="288" y="197" type="curve" smooth="yes"/>
      <point x="288" y="158"/>
      <point x="305" y="120"/>
      <point x="318" y="93" type="curve"/>
      <point x="456" y="-114" type="line"/>
      <point x="560" y="-46" type="line"/>
      <point x="418" y="153" type="line"/>
      <point x="438" y="205" type="line"/>
      <point x="391" y="179"/>
      <point x="339" y="164"/>
      <point x="294" y="164" type="curve" smooth="yes"/>
      <point x="219" y="164"/>
      <point x="172" y="211"/>
      <point x="172" y="286" type="curve" smooth="yes"/>
      <point x="172" y="348"/>
      <point x="214" y="383"/>
      <point x="276" y="383" type="curve" smooth="yes"/>
      <point x="454" y="383" type="line"/>
      <point x="454" y="594" type="line"/>
    </contour>
    <contour>
      <point x="-30" y="685" type="line"/>
      <point x="-30" y="575" type="line"/>
      <point x="582" y="575" type="line"/>
      <point x="582" y="685" type="line"/>
    </contour>
    <contour>
      <point x="397" y="685" type="move" name="top"/>
    </contour>
    <contour>
      <point x="281" y="0" type="move" name="bottom"/>
    </contour>
  </outline>
</glyph>
<glyph name="ba-deva" format="1">
  <advance width="610"/>
  <unicode hex="092C"/>
  <outline>
    <component base="b-deva"/>
    <component base="aaMatra-deva" xOffset="265"/>
    <contour>
      <point x="438" y="685" type="move" name="top"/>
    </contour>
    <contour>
      <point x="438" y="0" type="move" name="bottom"/>
    </contour>
  </outline>
</glyph>
<glyph name="ra-deva" format="1">
  <advance width="431"/>
  <unicode hex="0930"/>
  <outline>
    <contour>
      <point x="145" y="613" type="line"/>
      <point x="203" y="553"/>
      <point x="241" y="482"/>
      <point x="241" y="435" type="curve" smooth="yes"/>
      <point x="241" y="381"/>
      <point x="214" y="347"/>
      <point x="167" y="347" type="curve" smooth="yes"/>
      <point x="142" y="347"/>
      <point x="115" y="358"/>
      <point x="88" y="376" type="curve"/>
      <point x="22" y="295" type="line"/>
      <point x="58" y="257"/>
      <point x="110" y="238"/>
      <point x="169" y="238" type="curve" smooth="yes"/>
      <point x="298" y="238"/>
      <point x="376" y="309"/>
      <point x="376" y="433" type="curve" smooth="yes"/>
      <point x="376" y="501"/>
      <point x="335" y="581"/>
      <point x="255" y="670" type="curve"/>
    </contour>
    <contour>
      <point x="22" y="295" type="line"/>
      <point x="266" y="-34" type="line"/>
      <point x="374" y="41" type="line"/>
      <point x="178" y="314" type="line"/>
      <point x="88" y="376" type="line"/>
    </contour>
    <contour>
      <point x="-20" y="685" type="line"/>
      <point x="-20" y="575" type="line"/>
      <point x="451" y="575" type="line"/>
      <point x="451" y="685" type="line"/>
    </contour>
    <contour>
      <point x="76" y="-20" type="move" name="nukta"/>
    </contour>
    <contour>
      <point x="208" y="0" type="move" name="bottom"/>
    </contour>
    <contour>
      <point x="223" y="685" type="move" name="top"/>
    </contour>
  </outline>
</glyph>
<glyph name="llla-deva" format="1">
  <advance width="868"/>
  <unicode hex="0934"/>
  <outline>
    <component base="lla-deva"/>
    <component base="nukta-deva" xOffset="307" yOffset="88"/>
    <contour>
      <point x="604" y="685" type="move" name="top"/>
    </contour>
    <contour>
      <point x="452" y="0" type="move" name="bottom"/>
    </contour>
  </outline>
</glyph>
<glyph name="sha-deva" format="1">
  <advance width="826"/>
  <unicode hex="0936"/>
  <outline>
    <component base="sh-deva"/>
    <component base="aaMatra-deva" xOffset="481"/>
    <contour>
      <point x="654" y="685" type="move" name="top"/>
    </contour>
    <contour>
      <point x="654" y="0" type="move" name="bottom"/>
    </contour>
  </outline>
</glyph>
<glyph name="ooeMatra-deva" format="1">
  <advance width="345"/>
  <unicode hex="093B"/>
  <outline>
    <contour>
      <point x="105" y="805" type="line"/>
      <point x="105" y="0" type="line"/>
      <point x="240" y="0" type="line"/>
      <point x="240" y="805" type="line"/>
    </contour>
    <contour>
      <point x="-20" y="685" type="line"/>
      <point x="-20" y="575" type="line"/>
      <point x="365" y="575" type="line"/>
      <point x="365" y="685" type="line"/>
    </contour>
    <contour>
      <point x="173" y="805" type="move" name="top"/>
    </contour>
    <contour>
      <point x="173" y="0" type="move" name="bottom"/>
    </contour>
  </outline>
</glyph>
<glyph name="avagraha-deva" format="1">
  <advance width="536"/>
  <unicode hex="093D"/>
  <outline>
    <contour>
      <point x="451" y="367"/>
      <point x="350" y="414" type="curve" smooth="yes"/>
      <point x="278" y="445"/>
      <point x="246" y="477"/>
      <point x="246" y="519" type="curve" smooth="yes"/>
      <point x="246" y="554"/>
      <point x="274" y="575"/>
      <point x="321" y="575" type="curve" smooth="yes"/>
      <point x="475" y="575" type="line"/>
      <point x="475" y="685" type="line"/>
      <point x="321" y="685" type="line" smooth="yes"/>
      <point x="184" y="685"/>
      <point x="102" y="622"/>
      <point x="102" y="518" type="curve" smooth="yes"/>
      <point x="102" y="422"/>
      <point x="150" y="363"/>
      <point x="263" y="320" type="curve" smooth="yes"/>
      <point x="331" y="292"/>
      <point x="358" y="262"/>
      <point x="358" y="213" type="curve" smooth="yes"/>
      <point x="358" y="171"/>
      <point x="322" y="142"/>
      <point x="270" y="142" type="curve" smooth="yes"/>
      <point x="209" y="142"/>
      <point x="156" y="172"/>
      <point x="112" y="231" type="curve"/>
      <point x="17" y="163" type="line"/>
      <point x="80" y="73"/>
      <point x="170" y="22"/>
      <point x="278" y="22" type="curve" smooth="yes"/>
      <point x="413" y="22"/>
      <point x="493" y="93"/>
      <point x="493" y="213" type="curve" smooth="yes"/>
      <point x="493" y="308"/>
    </contour>
  </outline>
</glyph>
<glyph name="iiMatra-deva" format="1">
  <advance width="345"/>
  <unicode hex="0940"/>
  <outline>
    <contour>
      <point x="-272" y="972"/>
      <point x="-347" y="927"/>
      <point x="-347" y="837" type="curve" smooth="yes"/>
      <point x="-347" y="804"/>
      <point x="-330" y="762"/>
      <point x="-313" y="737" type="curve"/>
      <point x="-206" y="768" type="line"/>
      <point x="-213" y="784"/>
      <point x="-218" y="797"/>
      <point x="-218" y="812" type="curve" smooth="yes"/>
      <point x="-218" y="831"/>
      <point x="-208" y="858"/>
      <point x="-158" y="858" type="curve" smooth="yes"/>
      <point x="-100" y="858"/>
      <point x="-50" y="844"/>
      <point x="-6" y="815" type="curve" smooth="yes"/>
      <point x="54" y="776"/>
      <point x="99" y="713"/>
      <point x="123" y="648" type="curve"/>
      <point x="252" y="648" type="line"/>
      <point x="223" y="737"/>
      <point x="162" y="845"/>
      <point x="50" y="911" type="curve" smooth="yes"/>
      <point x="-12" y="948"/>
      <point x="-70" y="972"/>
      <point x="-182" y="972" type="curve" smooth="yes"/>
    </contour>
    <component base="aaMatra-deva"/>
    <contour>
      <point x="224" y="685" type="move" name="imatra"/>
    </contour>
    <contour>
      <point x="173" y="0" type="move" name="bottom"/>
    </contour>
    <contour>
      <point x="240" y="879" type="move" name="top"/>
    </contour>
  </outline>
</glyph>
<glyph name="uMatra-deva" format="1">
  <advance width="387"/>
  <unicode hex="0941"/>
  <outline>
    <contour>
      <point x="174" y="44"/>
      <point x="130" y="30"/>
      <point x="100" y="1" type="curve"/>
      <point x="167" y="-77" type="line"/>
      <point x="189" y="-60"/>
      <point x="211" y="-53"/>
      <point x="227" y="-53" type="curve" smooth="yes"/>
      <point x="247" y="-53"/>
      <point x="261" y="-61"/>
      <point x="261" y="-82" type="curve" smooth="yes"/>
      <point x="261" y="-107"/>
      <point x="235" y="-123"/>
      <point x="195" y="-123" type="curve" smooth="yes"/>
      <point x="151" y="-123"/>
      <point x="111" y="-104"/>
      <point x="79" y="-74" type="curve"/>
      <point x="20" y="-140" type="line"/>
      <point x="71" y="-190"/>
      <point x="142" y="-219"/>
      <point x="211" y="-219" type="curve" smooth="yes"/>
      <point x="306" y="-219"/>
      <point x="367" y="-166"/>
      <point x="367" y="-84" type="curve" smooth="yes"/>
      <point x="367" y="-6"/>
      <point x="298" y="44"/>
      <point x="218" y="44" type="curve" smooth="yes"/>
    </contour>
    <contour>
      <point x="240" y="0" type="move" name="_bottom"/>
    </contour>
  </outline>
</glyph>
<glyph name="halant-deva" format="1">
  <advance width="317"/>
  <unicode hex="094D"/>
  <outline>
    <contour>
      <point x="130" y="-22" type="line"/>
      <point x="29" y="-112" type="line"/>
      <point x="243" y="-304" type="line"/>
      <point x="306" y="-242" type="line"/>
    </contour>
    <contour>
      <point x="121" y="0" type="move" name="_bottom"/>
    </contour>
  </outline>
</glyph>
<glyph name="anudatta-deva" format="1">
  <advance width="436"/>
  <unicode hex="0952"/>
  <outline>
    <contour>
      <point x="20" y="-168" type="line"/>
      <point x="416" y="-168" type="line"/>
      <point x="416" y="-68" type="line"/>
      <point x="20" y="-68" type="line"/>
    </contour>
    <contour>
      <point x="224" y="0" type="move" name="_bottom"/>
    </contour>
  </outline>
</glyph>
<glyph name="one-deva" format="1">
  <advance width="570"/>
  <unicode hex="0967"/>
  <outline>
    <contour>
      <point x="247" y="447" type="line"/>
      <point x="223" y="464"/>
      <point x="212" y="488"/>
      <point x="212" y="516" type="curve" smooth="yes"/>
      <point x="212" y="550"/>
      <point x="235" y="573"/>
      <point x="269" y="573" type="curve" smooth="yes"/>
      <point x="304" y="573"/>
      <point x="328" y="548"/>
      <point x="328" y="514" type="curve" smooth="yes"/>
      <point x="328" y="467"/>
      <point x="307" y="424"/>
      <point x="255" y="374" type="curve" smooth="yes"/>
      <point x="132" y="253" type="line"/>
      <point x="284" y="144" type="line" smooth="yes"/>
      <point x="319" y="118"/>
      <point x="331" y="95"/>
      <point x="331" y="67" type="curve" smooth="yes"/>
      <point x="331" y="51"/>
      <point x="327" y="33"/>
      <point x="321" y="13" type="curve"/>
      <point x="455" y="-15" type="line"/>
      <point x="462" y="18"/>
      <point x="467" y="47"/>
      <point x="467" y="73" type="curve" smooth="yes"/>
      <point x="467" y="118"/>
      <point x="456" y="165"/>
      <point x="416" y="194" type="curve" smooth="yes"/>
      <point x="315" y="268" type="line"/>
      <point x="406" y="347"/>
      <point x="463" y="445"/>
      <point x="463" y="514" type="curve" smooth="yes"/>
      <point x="463" y="613"/>
      <point x="386" y="683"/>
      <point x="274" y="683" type="curve" smooth="yes"/>
      <point x="153" y="683"/>
      <point x="77" y="618"/>
      <point x="77" y="516" type="curve" smooth="yes"/>
      <point x="77" y="455"/>
      <point x="114" y="397"/>
      <point x="177" y="362" type="curve"/>
    </contour>
  </outline>
</glyph>
<glyph name="five-deva" format="1">
  <advance width="570"/>
  <unicode hex="096B"/>
  <outline>
    <contour>
      <point x="182" y="695" type="line"/>
      <point x="83" y="628"/>
      <point x="21" y="531"/>
      <point x="21" y="442" type="curve" smooth="yes"/>
      <point x="21" y="304"/>
      <point x="114" y="218"/>
      <point x="261" y="218" type="curve" smooth="yes"/>
      <point x="381" y="218"/>
      <point x="490" y="291"/>
      <point x="490" y="372" type="curve" smooth="yes"/>
      <point x="490" y="429"/>
      <point x="427" y="482"/>
      <point x="360" y="482" type="curve" smooth="yes"/>
      <point x="314" y="482"/>
      <point x="284" y="454"/>
      <point x="284" y="410" type="curve" smooth="yes"/>
      <point x="284" y="384"/>
      <point x="289" y="368"/>
      <point x="317" y="304" type="curve" smooth="yes"/>
      <point x="456" y="-9" type="line"/>
      <point x="566" y="43" type="line"/>
      <point x="435" y="336" type="line"/>
      <point x="406" y="378" type="line"/>
      <point x="340" y="342"/>
      <point x="297" y="328"/>
      <point x="257" y="328" type="curve" smooth="yes"/>
      <point x="193" y="328"/>
      <point x="156" y="368"/>
      <point x="156" y="440" type="curve" smooth="yes"/>
      <point x="156" y="504"/>
      <point x="202" y="577"/>
      <point x="275" y="630" type="curve"/>
    </contour>
  </outline>
</glyph>
<glyph name="oe-deva" format="1">
  <advance width="837"/>
  <unicode hex="0973"/>
  <outline>
    <component base="a_compo" xOffset="-1"/>
    <component base="ooeMatra-deva" xOffset="503"/>
    <contour>
      <point x="675" y="799" type="move" name="top"/>
    </contour>
    <contour>
      <point x="675" y="0" type="move" name="bottom"/>
    </contour>
  </outline>
</glyph>
<glyph name="zha-deva" format="1">
  <advance width="840"/>
  <unicode hex="0979"/>
  <outline>
    <component base="ja-deva"/>
    <component base="anusvara-deva" xOffset="183" yOffset="-960"/>
    <component base="anusvara-deva" xOffset="74" yOffset="-796"/>
    <component base="anusvara-deva" xOffset="292" yOffset="-796"/>
    <contour>
      <point x="668" y="687" type="move" name="top"/>
    </contour>
    <contour>
      <point x="668" y="0" type="move" name="bottom"/>
    </contour>
  </outline>
</glyph>
<glyph name="ddda-deva" format="1">
  <advance width="623"/>
  <unicode hex="097E"/>
  <outline>
    <contour>
      <point x="58" y="-110" type="line"/>
      <point x="566" y="-110" type="line"/>
      <point x="566" y="0" type="line"/>
      <point x="58" y="0" type="line"/>
    </contour>
    <contour>
      <point x="252" y="517" type="line"/>
      <point x="161" y="517"/>
      <point x="105" y="474"/>
      <point x="105" y="404" type="curve"/>
      <point x="105" y="299"/>
      <point x="173" y="224"/>
      <point x="268" y="224" type="curve" smooth="yes"/>
      <point x="302" y="224"/>
      <point x="381" y="245"/>
      <point x="396" y="245" type="curve" smooth="yes"/>
      <point x="419" y="245"/>
      <point x="440" y="232"/>
      <point x="440" y="202" type="curve"/>
      <point x="440" y="150"/>
      <point x="391" y="128"/>
      <point x="328" y="128" type="curve" smooth="yes"/>
      <point x="240" y="128"/>
      <point x="194" y="155"/>
      <point x="112" y="253" type="curve"/>
      <point x="20" y="199" type="line"/>
      <point x="94" y="73"/>
      <point x="191" y="18"/>
      <point x="339" y="18" type="curve" smooth="yes"/>
      <point x="480" y="18"/>
      <point x="575" y="96"/>
      <point x="575" y="214" type="curve"/>
      <point x="575" y="303"/>
      <point x="523" y="355"/>
      <point x="436" y="355" type="curve" smooth="yes"/>
      <point x="411" y="355"/>
      <point x="300" y="334"/>
      <point x="283" y="334" type="curve" smooth="yes"/>
      <point x="259" y="334"/>
      <point x="240" y="347"/>
      <point x="240" y="386" type="curve"/>
      <point x="240" y="402"/>
      <point x="249" y="407"/>
      <point x="266" y="407" type="curve"/>
      <point x="504" y="407" type="line"/>
      <point x="402" y="517" type="line"/>
    </contour>
    <contour>
      <point x="-18" y="685" type="line"/>
      <point x="-18" y="575" type="line"/>
      <point x="639" y="575" type="line"/>
      <point x="639" y="685" type="line"/>
    </contour>
    <contour>
      <point x="369" y="619" type="line"/>
      <point x="369" y="444" type="line"/>
      <point x="504" y="407" type="line"/>
      <point x="504" y="619" type="line"/>
    </contour>
    <contour>
      <point x="618" y="390" type="move" name="nukta"/>
    </contour>
    <contour>
      <point x="319" y="-109" type="move" name="bottom"/>
    </contour>
    <contour>
      <point x="438" y="685" type="move" name="top"/>
    </contour>
  </outline>
</glyph>
<glyph name="wacute" format="1">
  <advance width="833"/>
  <unicode hex="1E83"/>
  <outline>
    <contour>
      <point x="501" y="781" type="line"/>
      <point x="345" y="620" type="line"/>
      <point x="386" y="570" type="line"/>
      <point x="566" y="695" type="line"/>
    </contour>
    <contour>
      <point x="681" y="0" type="line"/>
      <point x="823" y="524" type="line"/>
      <point x="678" y="524" type="line"/>
      <point x="623" y="292" type="line" smooth="yes"/>
      <point x="608" y="223"/>
      <point x="596" y="168"/>
      <point x="585" y="121" type="curve"/>
      <point x="570" y="177"/>
      <point x="554" y="243"/>
      <point x="540" y="291" type="curve" smooth="yes"/>
      <point x="476" y="524" type="line"/>
      <point x="357" y="524" type="line"/>
      <point x="292" y="291" type="line" smooth="yes"/>
      <point x="278" y="239"/>
      <point x="262" y="176"/>
      <point x="248" y="121" type="curve"/>
      <point x="237" y="170"/>
      <point x="225" y="229"/>
      <point x="210" y="291" type="curve" smooth="yes"/>
      <point x="155" y="524" type="line"/>
      <point x="10" y="524" type="line"/>
      <point x="151" y="0" type="line"/>
      <point x="330" y="0" type="line"/>
      <point x="387" y="220" type="line" smooth="yes"/>
      <point x="400" y="276"/>
      <point x="408" y="327"/>
      <point x="417" y="362" type="curve"/>
      <point x="425" y="327"/>
      <point x="432" y="276"/>
      <point x="446" y="220" type="curve" smooth="yes"/>
      <point x="502" y="0" type="line"/>
    </contour>
  </outline>
</glyph>
<glyph name="Ygrave" format="1">
  <advance width="622"/>
  <unicode hex="1EF2"/>
  <outline>
    <contour>
      <point x="354" y="804" type="line"/>
      <point x="198" y="965" type="line"/>
      <point x="133" y="879" type="line"/>
      <point x="313" y="754" type="line"/>
    </contour>
    <contour>
      <point x="0" y="709" type="line"/>
      <point x="234" y="275" type="line"/>
      <point x="234" y="0" type="line"/>
      <point x="387" y="0" type="line"/>
      <point x="387" y="275" type="line"/>
      <point x="622" y="709" type="line"/>
      <point x="458" y="709" type="line"/>
      <point x="371" y="534" type="line" smooth="yes"/>
      <point x="351" y="492"/>
      <point x="315" y="390"/>
      <point x="315" y="390" type="curve" smooth="yes"/>
      <point x="307" y="390" type="line" smooth="yes"/>
      <point x="307" y="390"/>
      <point x="270" y="492"/>
      <point x="251" y="534" type="curve" smooth="yes"/>
      <point x="165" y="709" type="line"/>
    </contour>
  </outline>
</glyph>
<glyph name="ygrave" format="1">
  <advance width="541"/>
  <unicode hex="1EF3"/>
  <outline>
    <contour>
      <point x="284" y="570" type="line"/>
      <point x="325" y="620" type="line"/>
      <point x="169" y="781" type="line"/>
      <point x="104" y="695" type="line"/>
    </contour>
    <contour>
      <point x="540" y="524" type="line"/>
      <point x="396" y="524" type="line"/>
      <point x="339" y="365" type="line" smooth="yes"/>
      <point x="312" y="287"/>
      <point x="293" y="201"/>
      <point x="273" y="124" type="curve"/>
      <point x="252" y="201"/>
      <point x="230" y="290"/>
      <point x="204" y="363" type="curve" smooth="yes"/>
      <point x="145" y="524" type="line"/>
      <point x="2" y="524" type="line"/>
      <point x="200" y="3" type="line"/>
      <point x="116" y="-229" type="line"/>
      <point x="253" y="-229" type="line"/>
    </contour>
  </outline>
</glyph>
<glyph name="underscoredbl" format="1">
  <advance width="600"/>
  <unicode hex="2017"/>
  <outline>
    <contour>
      <point x="538" y="-38" type="line"/>
      <point x="65" y="-38" type="line"/>
      <point x="65" y="-145" type="line"/>
      <point x="538" y="-145" type="line"/>
    </contour>
    <contour>
      <point x="538" y="-187" type="line"/>
      <point x="65" y="-187" type="line"/>
      <point x="65" y="-295" type="line"/>
      <point x="538" y="-295" type="line"/>
    </contour>
  </outline>
</glyph>
<glyph name="franc" format="1">
  <advance width="572"/>
  <unicode hex="20A3"/>
  <outline>
    <contour>
      <point x="272" y="594" type="line"/>
      <point x="555" y="594" type="line"/>
      <point x="555" y="709" type="line"/>
      <point x="119" y="709" type="line"/>
      <point x="119" y="204" type="line"/>
      <point x="8" y="204" type="line"/>
      <point x="8" y="111" type="line"/>
      <point x="119" y="111" type="line"/>
      <point x="119" y="0" type="line"/>
      <point x="272" y="0" type="line"/>
      <point x="272" y="111" type="line"/>
      <point x="406" y="111" type="line"/>
      <point x="406" y="204" type="line"/>
      <point x="272" y="204" type="line"/>
      <point x="272" y="323" type="line"/>
      <point x="508" y="323" type="line"/>
      <point x="508" y="438" type="line"/>
      <point x="272" y="438" type="line"/>
    </contour>
  </outline>
</glyph>
<glyph name="afii61248" format="1">
  <advance width="777"/>
  <unicode hex="2105"/>
  <outline>
    <contour>
      <point x="550" y="748" type="line"/>
      <point x="117" y="-1" type="line"/>
      <point x="195" y="-46" type="line"/>
      <point x="628" y="704" type="line"/>
    </contour>
    <contour>
      <point x="8" y="419"/>
      <point x="72" y="354"/>
      <point x="188" y="354" type="curve" smooth="yes"/>
      <point x="221" y="354"/>
      <point x="262" y="363"/>
      <point x="295" y="378" type="curve"/>
      <point x="278" y="450" type="line"/>
      <point x="253" y="439"/>
      <point x="226" y="432"/>
      <point x="204" y="432" type="curve" smooth="yes"/>
      <point x="148" y="432"/>
      <point x="116" y="469"/>
      <point x="116" y="535" type="curve" smooth="yes"/>
      <point x="116" y="600"/>
      <point x="146" y="638"/>
      <point x="200" y="638" type="curve" smooth="yes"/>
      <point x="222" y="638"/>
      <point x="243" y="632"/>
      <point x="269" y="618" type="curve"/>
      <point x="293" y="688" type="line"/>
      <point x="260" y="705"/>
      <point x="224" y="714"/>
      <point x="190" y="714" type="curve" smooth="yes"/>
      <point x="75" y="714"/>
      <point x="8" y="649"/>
      <point x="8" y="535" type="curve" smooth="yes"/>
    </contour>
    <contour>
      <point x="412" y="61"/>
      <point x="477" y="-5"/>
      <point x="590" y="-5" type="curve" smooth="yes"/>
      <point x="704" y="-5"/>
      <point x="769" y="61"/>
      <point x="769" y="176" type="curve" smooth="yes"/>
      <point x="769" y="290"/>
      <point x="705" y="355"/>
      <point x="590" y="355" type="curve" smooth="yes"/>
      <point x="476" y="355"/>
      <point x="412" y="290"/>
      <point x="412" y="176" type="curve" smooth="yes"/>
    </contour>
    <contour>
      <point x="661" y="104"/>
      <point x="637" y="72"/>
      <point x="590" y="72" type="curve" smooth="yes"/>
      <point x="543" y="72"/>
      <point x="520" y="105"/>
      <point x="520" y="176" type="curve" smooth="yes"/>
      <point x="520" y="246"/>
      <point x="543" y="279"/>
      <point x="590" y="279" type="curve" smooth="yes"/>
      <point x="638" y="279"/>
      <point x="661" y="247"/>
      <point x="661" y="176" type="curve" smooth="yes"/>
    </contour>
  </outline>
</glyph>
<glyph name="threeeighths" format="1">
  <advance width="908"/>
  <unicode hex="215C"/>
  <outline>
    <contour>
      <point x="609" y="748" type="line"/>
      <point x="177" y="-1" type="line"/>
      <point x="254" y="-46" type="line"/>
      <point x="687" y="704" type="line"/>
    </contour>
    <contour>
      <point x="14" y="274" type="line"/>
      <point x="49" y="261"/>
      <point x="96" y="254"/>
      <point x="137" y="254" type="curve" smooth="yes"/>
      <point x="256" y="254"/>
      <point x="322" y="300"/>
      <point x="322" y="380" type="curve" smooth="yes"/>
      <point x="322" y="437"/>
      <point x="286" y="475"/>
      <point x="222" y="488" type="curve"/>
      <point x="280" y="501"/>
      <point x="312" y="536"/>
      <point x="312" y="589" type="curve" smooth="yes"/>
      <point x="312" y="662"/>
      <point x="246" y="706"/>
      <point x="151" y="706" type="curve" smooth="yes"/>
      <point x="105" y="706"/>
      <point x="58" y="698"/>
      <point x="14" y="683" type="curve"/>
      <point x="30" y="607" type="line"/>
      <point x="65" y="620"/>
      <point x="102" y="627"/>
      <point x="129" y="627" type="curve" smooth="yes"/>
      <point x="172" y="627"/>
      <point x="198" y="611"/>
      <point x="198" y="579" type="curve" smooth="yes"/>
      <point x="198" y="542"/>
      <point x="168" y="521"/>
      <point x="114" y="521" type="curve" smooth="yes"/>
      <point x="81" y="521" type="line"/>
      <point x="81" y="446" type="line"/>
      <point x="119" y="446" type="line" smooth="yes"/>
      <point x="178" y="446"/>
      <point x="209" y="427"/>
      <point x="209" y="387" type="curve" smooth="yes"/>
      <point x="209" y="352"/>
      <point x="179" y="332"/>
      <point x="124" y="332" type="curve" smooth="yes"/>
      <point x="98" y="332"/>
      <point x="60" y="338"/>
      <point x="27" y="348" type="curve"/>
    </contour>
    <contour>
      <point x="540" y="39"/>
      <point x="606" y="-10"/>
      <point x="715" y="-10" type="curve" smooth="yes"/>
      <point x="821" y="-10"/>
      <point x="889" y="41"/>
      <point x="889" y="118" type="curve" smooth="yes"/>
      <point x="889" y="181"/>
      <point x="848" y="210"/>
      <point x="801" y="231" type="curve"/>
      <point x="848" y="256"/>
      <point x="873" y="289"/>
      <point x="873" y="329" type="curve" smooth="yes"/>
      <point x="873" y="403"/>
      <point x="811" y="450"/>
      <point x="714" y="450" type="curve" smooth="yes"/>
      <point x="616" y="450"/>
      <point x="555" y="403"/>
      <point x="555" y="331" type="curve" smooth="yes"/>
      <point x="555" y="276"/>
      <point x="582" y="247"/>
      <point x="618" y="228" type="curve"/>
      <point x="568" y="203"/>
      <point x="540" y="165"/>
      <point x="540" y="119" type="curve" smooth="yes"/>
    </contour>
    <contour>
      <point x="778" y="297"/>
      <point x="761" y="274"/>
      <point x="731" y="255" type="curve"/>
      <point x="687" y="270"/>
      <point x="650" y="287"/>
      <point x="650" y="325" type="curve" smooth="yes"/>
      <point x="650" y="356"/>
      <point x="675" y="375"/>
      <point x="714" y="375" type="curve" smooth="yes"/>
      <point x="752" y="375"/>
      <point x="778" y="355"/>
      <point x="778" y="325" type="curve" smooth="yes"/>
    </contour>
    <contour>
      <point x="790" y="88"/>
      <point x="759" y="65"/>
      <point x="715" y="65" type="curve" smooth="yes"/>
      <point x="669" y="65"/>
      <point x="638" y="87"/>
      <point x="638" y="123" type="curve" smooth="yes"/>
      <point x="638" y="152"/>
      <point x="652" y="174"/>
      <point x="689" y="199" type="curve"/>
      <point x="741" y="182"/>
      <point x="790" y="168"/>
      <point x="790" y="122" type="curve" smooth="yes"/>
    </contour>
  </outline>
</glyph>
<glyph name="radical" format="1">
  <advance width="650"/>
  <unicode hex="221A"/>
  <outline>
    <contour>
      <point x="52" y="348" type="line"/>
      <point x="143" y="389" type="line"/>
      <point x="276" y="0" type="line"/>
      <point x="425" y="0" type="line"/>
      <point x="619" y="760" type="line"/>
      <point x="496" y="760" type="line"/>
      <point x="349" y="127" type="line"/>
      <point x="227" y="520" type="line"/>
      <point x="20" y="436" type="line"/>
    </contour>
  </outline>
</glyph>
<glyph name="notequal" format="1">
  <advance width="600"/>
  <unicode hex="2260"/>
  <outline>
    <contour>
      <point x="154" y="126" type="line"/>
      <point x="109" y="46" type="line"/>
      <point x="173" y="8" type="line"/>
      <point x="241" y="126" type="line"/>
      <point x="543" y="126" type="line"/>
      <point x="543" y="227" type="line"/>
      <point x="299" y="227" type="line"/>
      <point x="375" y="358" type="line"/>
      <point x="543" y="358" type="line"/>
      <point x="543" y="459" type="line"/>
      <point x="433" y="459" type="line"/>
      <point x="477" y="534" type="line"/>
      <point x="413" y="572" type="line"/>
      <point x="347" y="459" type="line"/>
      <point x="59" y="459" type="line"/>
      <point x="59" y="358" type="line"/>
      <point x="289" y="358" type="line"/>
      <point x="213" y="227" type="line"/>
      <point x="59" y="227" type="line"/>
      <point x="59" y="126" type="line"/>
    </contour>
  </outline>
</glyph>
<glyph name="four-deva.comb" format="1">
  <advance width="257"/>
  <unicode hex="A8E4"/>
  <outline>
    <contour>
      <point x="162" y="962" type="line"/>
      <point x="162" y="949" type="line" smooth="yes"/>
      <point x="162" y="938"/>
      <point x="154" y="910"/>
      <point x="148" y="906" type="curve" smooth="yes"/>
      <point x="129" y="894" type="line"/>
      <point x="110" y="906" type="line" smooth="yes"/>
      <point x="104" y="910"/>
      <point x="95" y="938"/>
      <point x="95" y="949" type="curve" smooth="yes"/>
      <point x="95" y="962" type="line"/>
      <point x="9" y="966" type="line"/>
      <point x="9" y="950" type="line" smooth="yes"/>
      <point x="10" y="924"/>
      <point x="17" y="896"/>
      <point x="24" y="891" type="curve" smooth="yes"/>
      <point x="74" y="849" type="line"/>
      <point x="49" y="828" type="line" smooth="yes"/>
      <point x="31" y="818"/>
      <point x="24" y="786"/>
      <point x="24" y="769" type="curve" smooth="yes"/>
      <point x="24" y="712"/>
      <point x="68" y="679"/>
      <point x="129" y="679" type="curve" smooth="yes"/>
      <point x="190" y="679"/>
      <point x="233" y="712"/>
      <point x="233" y="769" type="curve" smooth="yes"/>
      <point x="233" y="786"/>
      <point x="227" y="818"/>
      <point x="209" y="828" type="curve" smooth="yes"/>
      <point x="184" y="849" type="line"/>
      <point x="233" y="891" type="line" smooth="yes"/>
      <point x="241" y="896"/>
      <point x="248" y="924"/>
      <point x="248" y="950" type="curve" smooth="yes"/>
      <point x="248" y="966" type="line"/>
    </contour>
    <contour>
      <point x="149" y="783" type="line" smooth="yes"/>
      <point x="149" y="785"/>
      <point x="147" y="776"/>
      <point x="147" y="775" type="curve" smooth="yes"/>
      <point x="147" y="756"/>
      <point x="141" y="747"/>
      <point x="129" y="747" type="curve" smooth="yes"/>
      <point x="117" y="747"/>
      <point x="111" y="756"/>
      <point x="111" y="775" type="curve" smooth="yes"/>
      <point x="111" y="776"/>
      <point x="108" y="785"/>
      <point x="108" y="783" type="curve" smooth="yes"/>
      <point x="129" y="801" type="line"/>
    </contour>
    <contour>
      <point x="128" y="687" type="move" name="_top"/>
    </contour>
  </outline>
</glyph>
<glyph name="five-deva.comb" format="1">
  <advance width="280"/>
  <unicode hex="A8E5"/>
  <outline>
    <contour>
      <point x="42" y="957"/>
      <point x="9" y="913"/>
      <point x="9" y="871" type="curve" smooth="yes"/>
      <point x="9" y="802"/>
      <point x="48" y="755"/>
      <point x="127" y="755" type="curve" smooth="yes"/>
      <point x="139" y="755"/>
      <point x="150" y="757"/>
      <point x="162" y="759" type="curve"/>
      <point x="203" y="660" type="line"/>
      <point x="271" y="690" type="line"/>
      <point x="224" y="796" type="line"/>
      <point x="234" y="808"/>
      <point x="239" y="822"/>
      <point x="239" y="836" type="curve" smooth="yes"/>
      <point x="239" y="867"/>
      <point x="206" y="895"/>
      <point x="171" y="895" type="curve" smooth="yes"/>
      <point x="144" y="895"/>
      <point x="127" y="879"/>
      <point x="127" y="853" type="curve" smooth="yes"/>
      <point x="127" y="845"/>
      <point x="128" y="840"/>
      <point x="135" y="822" type="curve"/>
      <point x="131" y="822"/>
      <point x="129" y="822"/>
      <point x="125" y="822" type="curve" smooth="yes"/>
      <point x="103" y="822"/>
      <point x="95" y="838"/>
      <point x="95" y="868" type="curve" smooth="yes"/>
      <point x="95" y="896"/>
      <point x="117" y="930"/>
      <point x="151" y="952" type="curve"/>
      <point x="93" y="988" type="line"/>
    </contour>
    <contour>
      <point x="140" y="687" type="move" name="_top"/>
    </contour>
  </outline>
</glyph>
<glyph name="eight-deva.comb" format="1">
  <advance width="247"/>
  <unicode hex="A8E8"/>
  <outline>
    <contour>
      <point x="87" y="924" type="line" smooth="yes"/>
      <point x="37" y="885"/>
      <point x="9" y="842"/>
      <point x="9" y="802" type="curve" smooth="yes"/>
      <point x="9" y="756"/>
      <point x="58" y="701"/>
      <point x="135" y="701" type="curve" smooth="yes"/>
      <point x="165" y="701"/>
      <point x="198" y="709"/>
      <point x="238" y="726" type="curve"/>
      <point x="212" y="787" type="line"/>
      <point x="185" y="775"/>
      <point x="159" y="770"/>
      <point x="138" y="770" type="curve" smooth="yes"/>
      <point x="109" y="770"/>
      <point x="95" y="789"/>
      <point x="95" y="802" type="curve" smooth="yes"/>
      <point x="95" y="822"/>
      <point x="114" y="852"/>
      <point x="142" y="873" type="curve" smooth="yes"/>
      <point x="216" y="929" type="line"/>
      <point x="161" y="982" type="line"/>
    </contour>
    <contour>
      <point x="123" y="687" type="move" name="_top"/>
    </contour>
  </outline>
</glyph>
<glyph name="a-deva.comb" format="1">
  <advance width="437"/>
  <unicode hex="A8EA"/>
  <outline>
    <contour>
      <point x="233" y="991" type="line"/>
      <point x="233" y="923" type="line"/>
      <point x="288" y="923" type="line"/>
      <point x="288" y="853" type="line"/>
      <point x="273" y="848"/>
      <point x="256" y="845"/>
      <point x="234" y="845" type="curve" smooth="yes"/>
      <point x="224" y="845"/>
      <point x="213" y="846"/>
      <point x="203" y="846" type="curve"/>
      <point x="215" y="862"/>
      <point x="221" y="882"/>
      <point x="221" y="901" type="curve" smooth="yes"/>
      <point x="221" y="930"/>
      <point x="203" y="990"/>
      <point x="113" y="990" type="curve" smooth="yes"/>
      <point x="89" y="990"/>
      <point x="65" y="987"/>
      <point x="44" y="973" type="curve"/>
      <point x="66" y="911" type="line"/>
      <point x="85" y="918"/>
      <point x="86" y="923"/>
      <point x="103" y="923" type="curve" smooth="yes"/>
      <point x="131" y="923"/>
      <point x="135" y="909"/>
      <point x="135" y="901" type="curve" smooth="yes"/>
      <point x="135" y="881"/>
      <point x="111" y="871"/>
      <point x="75" y="865" type="curve"/>
      <point x="94" y="797" type="line"/>
      <point x="115" y="799"/>
      <point x="134" y="803"/>
      <point x="150" y="809" type="curve"/>
      <point x="156" y="804"/>
      <point x="165" y="787"/>
      <point x="165" y="774" type="curve" smooth="yes"/>
      <point x="165" y="756"/>
      <point x="147" y="750"/>
      <point x="139" y="750" type="curve" smooth="yes"/>
      <point x="109" y="750"/>
      <point x="92" y="759"/>
      <point x="68" y="780" type="curve"/>
      <point x="9" y="737" type="line"/>
      <point x="50" y="687"/>
      <point x="97" y="673"/>
      <point x="146" y="673" type="curve" smooth="yes"/>
      <point x="213" y="673"/>
      <point x="251" y="706"/>
      <point x="251" y="774" type="curve" smooth="yes"/>
      <point x="251" y="777"/>
      <point x="253" y="778"/>
      <point x="255" y="781" type="curve"/>
      <point x="255" y="781"/>
      <point x="253" y="782"/>
      <point x="252" y="782" type="curve" smooth="yes"/>
      <point x="268" y="782"/>
      <point x="277" y="786"/>
      <point x="288" y="789" type="curve"/>
      <point x="288" y="669" type="line"/>
      <point x="374" y="669" type="line"/>
      <point x="374" y="923" type="line"/>
      <point x="428" y="923" type="line"/>
      <point x="428" y="991" type="line"/>
    </contour>
    <contour>
      <point x="218" y="687" type="move" name="_top"/>
    </contour>
  </outline>
</glyph>
<glyph name="ka-deva.comb" format="1">
  <advance width="467"/>
  <unicode hex="A8EC"/>
  <outline>
    <contour>
      <point x="9" y="991" type="line"/>
      <point x="9" y="923" type="line"/>
      <point x="190" y="923" type="line"/>
      <point x="190" y="812" type="line"/>
      <point x="183" y="793"/>
      <point x="167" y="776"/>
      <point x="146" y="776" type="curve" smooth="yes"/>
      <point x="128" y="776"/>
      <point x="121" y="786"/>
      <point x="121" y="805" type="curve" smooth="yes"/>
      <point x="121" y="823"/>
      <point x="130" y="831"/>
      <point x="151" y="831" type="curve" smooth="yes"/>
      <point x="151" y="831"/>
      <point x="150" y="831"/>
      <point x="155" y="830" type="curve"/>
      <point x="149" y="898" type="line"/>
      <point x="146" y="898"/>
      <point x="147" y="898"/>
      <point x="144" y="898" type="curve" smooth="yes"/>
      <point x="71" y="898"/>
      <point x="34" y="867"/>
      <point x="34" y="805" type="curve" smooth="yes"/>
      <point x="34" y="741"/>
      <point x="69" y="709"/>
      <point x="141" y="709" type="curve" smooth="yes"/>
      <point x="160" y="709"/>
      <point x="176" y="714"/>
      <point x="190" y="723" type="curve"/>
      <point x="190" y="669" type="line"/>
      <point x="275" y="669" type="line"/>
      <point x="275" y="794" type="line"/>
      <point x="285" y="818"/>
      <point x="302" y="831"/>
      <point x="321" y="831" type="curve" smooth="yes"/>
      <point x="338" y="831"/>
      <point x="347" y="822"/>
      <point x="347" y="803" type="curve" smooth="yes"/>
      <point x="347" y="784"/>
      <point x="337" y="776"/>
      <point x="315" y="776" type="curve" smooth="yes"/>
      <point x="313" y="776"/>
      <point x="306" y="777"/>
      <point x="298" y="778" type="curve"/>
      <point x="302" y="710" type="line"/>
      <point x="308" y="709"/>
      <point x="312" y="709"/>
      <point x="323" y="709" type="curve" smooth="yes"/>
      <point x="395" y="709"/>
      <point x="433" y="740"/>
      <point x="433" y="803" type="curve" smooth="yes"/>
      <point x="433" y="865"/>
      <point x="400" y="898"/>
      <point x="326" y="898" type="curve" smooth="yes"/>
      <point x="307" y="898"/>
      <point x="290" y="894"/>
      <point x="275" y="884" type="curve"/>
      <point x="275" y="923" type="line"/>
      <point x="458" y="923" type="line"/>
      <point x="458" y="991" type="line"/>
    </contour>
    <contour>
      <point x="233" y="687" type="move" name="_top"/>
    </contour>
  </outline>
</glyph>
<glyph name="three_candraBindu-deva" format="1">
  <advance width="600"/>
  <unicode hex="A8F6"/>
  <outline>
    <contour>
      <point x="293" y="98" type="line"/>
      <point x="338" y="88"/>
      <point x="382" y="70"/>
      <point x="382" y="26" type="curve" smooth="yes"/>
      <point x="382" y="-21"/>
      <point x="314" y="-55"/>
      <point x="208" y="-42" type="curve"/>
      <point x="400" y="-72" type="line"/>
      <point x="297" y="-7"/>
      <point x="259" y="0"/>
      <point x="209" y="0" type="curve" smooth="yes"/>
      <point x="167" y="0"/>
      <point x="131" y="-29"/>
      <point x="131" y="-70" type="curve" smooth="yes"/>
      <point x="131" y="-132"/>
      <point x="180" y="-161"/>
      <point x="270" y="-161" type="curve" smooth="yes"/>
      <point x="384" y="-161"/>
      <point x="512" y="-90"/>
      <point x="512" y="17" type="curve" smooth="yes"/>
      <point x="512" y="98"/>
      <point x="450" y="151"/>
      <point x="383" y="174" type="curve"/>
    </contour>
    <contour>
      <point x="269" y="-122" type="line"/>
      <point x="469" y="-256" type="line"/>
      <point x="537" y="-162" type="line"/>
      <point x="378" y="-58" type="line"/>
    </contour>
    <contour>
      <point x="242" y="375"/>
      <point x="174" y="363"/>
      <point x="124" y="342" type="curve"/>
      <point x="155" y="238" type="line"/>
      <point x="204" y="256"/>
      <point x="248" y="264"/>
      <point x="283" y="264" type="curve" smooth="yes"/>
      <point x="328" y="264"/>
      <point x="362" y="255"/>
      <point x="362" y="225" type="curve" smooth="yes"/>
      <point x="362" y="181"/>
      <point x="317" y="169"/>
      <point x="211" y="160" type="curve"/>
      <point x="237" y="60" type="line"/>
      <point x="351" y="64"/>
      <point x="492" y="118"/>
      <point x="492" y="225" type="curve" smooth="yes"/>
      <point x="492" y="335"/>
      <point x="406" y="375"/>
      <point x="296" y="375" type="curve" smooth="yes"/>
    </contour>
    <component base="candraBindu-deva" xOffset="74" yOffset="-305"/>
  </outline>
</glyph>
<glyph name="pushpika-deva" format="1">
  <advance width="749"/>
  <unicode hex="A8F8"/>
  <outline>
    <contour>
      <point x="431" y="534"/>
      <point x="370" y="485"/>
      <point x="370" y="396" type="curve" smooth="yes"/>
      <point x="370" y="359"/>
      <point x="388" y="311"/>
      <point x="415" y="278" type="curve"/>
      <point x="518" y="323" type="line"/>
      <point x="501" y="354"/>
      <point x="495" y="372"/>
      <point x="495" y="390" type="curve" smooth="yes"/>
      <point x="495" y="411"/>
      <point x="511" y="424"/>
      <point x="535" y="424" type="curve" smooth="yes"/>
      <point x="571" y="424"/>
      <point x="578" y="385"/>
      <point x="578" y="354" type="curve" smooth="yes"/>
      <point x="578" y="237"/>
      <point x="475" y="157"/>
      <point x="318" y="157" type="curve" smooth="yes"/>
      <point x="244" y="157"/>
      <point x="203" y="191"/>
      <point x="203" y="242" type="curve" smooth="yes"/>
      <point x="203" y="287"/>
      <point x="237" y="313"/>
      <point x="294" y="313" type="curve" smooth="yes"/>
      <point x="299" y="313"/>
      <point x="272" y="314"/>
      <point x="331" y="311" type="curve"/>
      <point x="312" y="422" type="line"/>
      <point x="307" y="423"/>
      <point x="303" y="423"/>
      <point x="287" y="423" type="curve" smooth="yes"/>
      <point x="150" y="423"/>
      <point x="66" y="348"/>
      <point x="66" y="252" type="curve" smooth="yes"/>
      <point x="66" y="121"/>
      <point x="153" y="47"/>
      <point x="317" y="47" type="curve" smooth="yes"/>
      <point x="554" y="47"/>
      <point x="702" y="167"/>
      <point x="702" y="350" type="curve" smooth="yes"/>
      <point x="702" y="457"/>
      <point x="635" y="534"/>
      <point x="541" y="534" type="curve" smooth="yes"/>
    </contour>
    <contour>
      <point x="83" y="587"/>
      <point x="67" y="545"/>
      <point x="67" y="501" type="curve" smooth="yes"/>
      <point x="67" y="441"/>
      <point x="98" y="387"/>
      <point x="152" y="355" type="curve"/>
      <point x="251" y="399" type="line"/>
      <point x="222" y="417"/>
      <point x="195" y="454"/>
      <point x="195" y="495" type="curve" smooth="yes"/>
      <point x="195" y="534"/>
      <point x="214" y="571"/>
      <point x="245" y="595" type="curve"/>
      <point x="112" y="620" type="line"/>
    </contour>
    <contour>
      <point x="375" y="685" type="move" name="top"/>
    </contour>
    <contour>
      <point x="375" y="0" type="move" name="bottom"/>
    </contour>
  </outline>
</glyph>
<glyph name="gapfiller-deva" format="1">
  <advance width="749"/>
  <unicode hex="A8F9"/>
  <outline>
    <contour>
      <point x="431" y="534"/>
      <point x="370" y="485"/>
      <point x="370" y="396" type="curve" smooth="yes"/>
      <point x="370" y="359"/>
      <point x="388" y="311"/>
      <point x="415" y="278" type="curve"/>
      <point x="518" y="323" type="line"/>
      <point x="501" y="354"/>
      <point x="495" y="372"/>
      <point x="495" y="390" type="curve" smooth="yes"/>
      <point x="495" y="411"/>
      <point x="511" y="424"/>
      <point x="535" y="424" type="curve" smooth="yes"/>
      <point x="571" y="424"/>
      <point x="578" y="385"/>
      <point x="578" y="354" type="curve" smooth="yes"/>
      <point x="578" y="237"/>
      <point x="475" y="157"/>
      <point x="318" y="157" type="curve" smooth="yes"/>
      <point x="244" y="157"/>
      <point x="203" y="191"/>
      <point x="203" y="242" type="curve" smooth="yes"/>
      <point x="203" y="287"/>
      <point x="237" y="313"/>
      <point x="294" y="313" type="curve" smooth="yes"/>
      <point x="299" y="313"/>
      <point x="272" y="314"/>
      <point x="331" y="311" type="curve"/>
      <point x="312" y="422" type="line"/>
      <point x="307" y="423"/>
      <point x="303" y="423"/>
      <point x="287" y="423" type="curve" smooth="yes"/>
      <point x="150" y="423"/>
      <point x="66" y="348"/>
      <point x="66" y="252" type="curve" smooth="yes"/>
      <point x="66" y="121"/>
      <point x="153" y="47"/>
      <point x="317" y="47" type="curve" smooth="yes"/>
      <point x="554" y="47"/>
      <point x="702" y="167"/>
      <point x="702" y="350" type="curve" smooth="yes"/>
      <point x="702" y="457"/>
      <point x="635" y="534"/>
      <point x="541" y="534" type="curve" smooth="yes"/>
    </contour>
    <contour>
      <point x="375" y="685" type="move" name="top"/>
    </contour>
    <contour>
      <point x="375" y="0" type="move" name="bottom"/>
    </contour>
  </outline>
</glyph>
<glyph name="headstroke-deva" format="1">
  <advance width="319"/>
  <unicode hex="A8FB"/>
  <outline>
    <contour>
      <point x="-10" y="685" type="line"/>
      <point x="-10" y="575" type="line"/>
      <point x="329" y="575" type="line"/>
      <point x="329" y="685" type="line"/>
    </contour>
  </outline>
</glyph>
<glyph name="aiMatra_reph-deva" format="1">
  <advance width="270"/>
  <note>
	dMatraAiReph
  </note>
  <outline>
    <contour>
      <point x="168" y="946"/>
      <point x="109" y="888"/>
      <point x="109" y="792" type="curve" smooth="yes"/>
      <point x="109" y="754"/>
      <point x="116" y="712"/>
      <point x="142" y="670" type="curve"/>
      <point x="246" y="670" type="line"/>
      <point x="232" y="713"/>
      <point x="220" y="753"/>
      <point x="220" y="783" type="curve" smooth="yes"/>
      <point x="220" y="825"/>
      <point x="244" y="845"/>
      <point x="284" y="845" type="curve" smooth="yes"/>
      <point x="303" y="845"/>
      <point x="328" y="840"/>
      <point x="354" y="831" type="curve"/>
      <point x="378" y="922" type="line"/>
      <point x="340" y="938"/>
      <point x="302" y="946"/>
      <point x="266" y="946" type="curve" smooth="yes"/>
    </contour>
    <component base="aiMatra-deva" xOffset="-221"/>
    <contour>
      <point x="159" y="685" type="move" name="_top"/>
    </contour>
  </outline>
</glyph>
<glyph name="auMatra_reph-deva" format="1">
  <advance width="345"/>
  <outline>
    <component base="aaMatra-deva"/>
    <component base="aiMatra-deva" xOffset="-224"/>
    <component base="reph-deva.alt" xOffset="60"/>
    <contour>
      <point x="261" y="943" type="move" name="top"/>
    </contour>
  </outline>
</glyph>
<glyph name="auMatra_reph_anusvara-deva" format="1">
  <advance width="345"/>
  <outline>
    <component base="aaMatra-deva"/>
    <component base="aiMatra-deva" xOffset="-224"/>
    <component base="reph_anusvara-deva.imatra" xOffset="96"/>
    <contour>
      <point x="262" y="943" type="move" name="top"/>
    </contour>
  </outline>
</glyph>
<glyph name="b_la-deva.loclMAR" format="1">
  <advance width="650"/>
  <outline>
    <contour>
      <point x="333" y="173" type="line"/>
      <point x="395" y="234" type="line"/>
      <point x="224" y="419" type="line"/>
      <point x="160" y="358" type="line"/>
    </contour>
    <contour>
      <point x="124" y="493"/>
      <point x="42" y="422"/>
      <point x="42" y="295" type="curve" smooth="yes"/>
      <point x="42" y="182"/>
      <point x="132" y="102"/>
      <point x="259" y="102" type="curve" smooth="yes"/>
      <point x="344" y="102"/>
      <point x="411" y="141"/>
      <point x="470" y="225" type="curve"/>
      <point x="415" y="321" type="line"/>
      <point x="377" y="246"/>
      <point x="332" y="212"/>
      <point x="269" y="212" type="curve" smooth="yes"/>
      <point x="212" y="212"/>
      <point x="177" y="244"/>
      <point x="177" y="295" type="curve" smooth="yes"/>
      <point x="177" y="350"/>
      <point x="216" y="383"/>
      <point x="280" y="383" type="curve" smooth="yes"/>
      <point x="290" y="383"/>
      <point x="297" y="382"/>
      <point x="306" y="381" type="curve"/>
      <point x="293" y="492" type="line"/>
      <point x="289" y="493"/>
      <point x="285" y="493"/>
      <point x="272" y="493" type="curve" smooth="yes"/>
    </contour>
    <contour>
      <point x="-20" y="685" type="line"/>
      <point x="-20" y="575" type="line"/>
      <point x="415" y="575" type="line"/>
      <point x="415" y="685" type="line"/>
    </contour>
    <contour>
      <point x="410" y="608" type="line"/>
      <point x="410" y="0" type="line"/>
      <point x="545" y="0" type="line"/>
      <point x="545" y="608" type="line"/>
    </contour>
    <contour>
      <point x="285" y="685" type="line"/>
      <point x="285" y="575" type="line"/>
      <point x="670" y="575" type="line"/>
      <point x="670" y="685" type="line"/>
    </contour>
    <contour>
      <point x="304" y="67"/>
      <point x="235" y="-6"/>
      <point x="213" y="-140" type="curve"/>
      <point x="326" y="-161" type="line"/>
      <point x="337" y="-77"/>
      <point x="366" y="-37"/>
      <point x="413" y="-37" type="curve" smooth="yes"/>
      <point x="451" y="-37"/>
      <point x="472" y="-54"/>
      <point x="472" y="-94" type="curve" smooth="yes"/>
      <point x="472" y="-129"/>
      <point x="462" y="-157"/>
      <point x="443" y="-188" type="curve"/>
      <point x="548" y="-244" type="line"/>
      <point x="581" y="-193"/>
      <point x="598" y="-142"/>
      <point x="598" y="-94" type="curve" smooth="yes"/>
      <point x="598" y="9"/>
      <point x="531" y="67"/>
      <point x="413" y="67" type="curve" smooth="yes"/>
    </contour>
    <contour>
      <point x="42" y="68"/>
      <point x="-18" y="2"/>
      <point x="-18" y="-94" type="curve" smooth="yes"/>
      <point x="-18" y="-144"/>
      <point x="1" y="-193"/>
      <point x="31" y="-244" type="curve"/>
      <point x="136" y="-188" type="line"/>
      <point x="117" y="-156"/>
      <point x="108" y="-136"/>
      <point x="108" y="-102" type="curve" smooth="yes"/>
      <point x="108" y="-64"/>
      <point x="133" y="-36"/>
      <point x="169" y="-36" type="curve" smooth="yes"/>
      <point x="195" y="-36"/>
      <point x="223" y="-47"/>
      <point x="267" y="-102" type="curve"/>
      <point x="326" y="-12" type="line"/>
      <point x="273" y="55"/>
      <point x="196" y="68"/>
      <point x="148" y="68" type="curve" smooth="yes"/>
    </contour>
    <contour>
      <point x="544" y="685" type="move" name="imatra"/>
    </contour>
    <contour>
      <point x="478" y="0" type="move" name="bottom"/>
    </contour>
    <contour>
      <point x="478" y="685" type="move" name="top"/>
    </contour>
  </outline>
</glyph>
<glyph name="bh-deva" format="1">
  <advance width="453"/>
  <outline>
    <contour>
      <point x="86" y="690"/>
      <point x="24" y="637"/>
      <point x="24" y="548" type="curve" smooth="yes"/>
      <point x="24" y="475"/>
      <point x="68" y="423"/>
      <point x="142" y="400" type="curve"/>
      <point x="190" y="493" type="line"/>
      <point x="169" y="504"/>
      <point x="159" y="522"/>
      <point x="159" y="540" type="curve" smooth="yes"/>
      <point x="159" y="561"/>
      <point x="170" y="576"/>
      <point x="193" y="576" type="curve" smooth="yes"/>
      <point x="218" y="576"/>
      <point x="233" y="557"/>
      <point x="233" y="526" type="curve" smooth="yes"/>
      <point x="233" y="337" type="line"/>
      <point x="368" y="337" type="line"/>
      <point x="369" y="534" type="line" smooth="yes"/>
      <point x="369" y="624"/>
      <point x="296" y="690"/>
      <point x="194" y="690" type="curve" smooth="yes"/>
    </contour>
    <contour>
      <point x="189" y="385"/>
      <point x="162" y="358"/>
      <point x="162" y="311" type="curve" smooth="yes"/>
      <point x="162" y="233"/>
      <point x="235" y="166"/>
      <point x="304" y="166" type="curve" smooth="yes"/>
      <point x="347" y="166"/>
      <point x="369" y="199"/>
      <point x="369" y="297" type="curve"/>
      <point x="262" y="297" type="line"/>
      <point x="262" y="225" type="line"/>
      <point x="338" y="266" type="line"/>
      <point x="583" y="266" type="line"/>
      <point x="569" y="376" type="line"/>
      <point x="283" y="376" type="line"/>
      <point x="242" y="385" type="line"/>
    </contour>
    <contour>
      <point x="295" y="685" type="move" name="top"/>
    </contour>
    <contour>
      <point x="295" y="0" type="move" name="bottom"/>
    </contour>
  </outline>
</glyph>
<glyph name="bh_ra-deva" format="1">
  <advance width="682"/>
  <outline>
    <contour>
      <point x="124" y="32" type="line"/>
      <point x="205" y="-55" type="line"/>
      <point x="488" y="184" type="line"/>
      <point x="488" y="330" type="line"/>
    </contour>
    <component base="bha-deva"/>
    <contour>
      <point x="502" y="685" type="move" name="top"/>
    </contour>
    <contour>
      <point x="502" y="0" type="move" name="bottom"/>
    </contour>
  </outline>
</glyph>
<glyph name="c-deva" format="1">
  <advance width="369"/>
  <outline>
    <contour>
      <point x="218" y="493"/>
      <point x="138" y="409"/>
      <point x="138" y="295" type="curve" smooth="yes"/>
      <point x="138" y="182"/>
      <point x="228" y="102"/>
      <point x="355" y="102" type="curve" smooth="yes"/>
      <point x="441" y="102"/>
      <point x="509" y="140"/>
      <point x="569" y="223" type="curve"/>
      <point x="511" y="321" type="line"/>
      <point x="473" y="246"/>
      <point x="428" y="212"/>
      <point x="365" y="212" type="curve" smooth="yes"/>
      <point x="308" y="212"/>
      <point x="273" y="244"/>
      <point x="273" y="295" type="curve" smooth="yes"/>
      <point x="273" y="350"/>
      <point x="303" y="383"/>
      <point x="355" y="383" type="curve"/>
      <point x="326" y="493" type="line"/>
    </contour>
    <contour>
      <point x="31" y="493" type="line"/>
      <point x="31" y="383" type="line"/>
      <point x="355" y="383" type="line"/>
      <point x="335" y="493" type="line"/>
    </contour>
    <contour>
      <point x="-20" y="685" type="line"/>
      <point x="-20" y="575" type="line"/>
      <point x="416" y="575" type="line"/>
      <point x="416" y="685" type="line"/>
    </contour>
    <contour>
      <point x="198" y="685" type="move" name="top"/>
    </contour>
    <contour>
      <point x="198" y="0" type="move" name="bottom"/>
    </contour>
  </outline>
</glyph>
<glyph name="c_ca-deva.alt" format="1">
  <advance width="765"/>
  <outline>
    <contour>
      <point x="243" y="304"/>
      <point x="163" y="225"/>
      <point x="163" y="131" type="curve" smooth="yes"/>
      <point x="163" y="38"/>
      <point x="233" y="-38"/>
      <point x="360" y="-38" type="curve" smooth="yes"/>
      <point x="446" y="-38"/>
      <point x="534" y="-6"/>
      <point x="594" y="62" type="curve"/>
      <point x="556" y="182" type="line"/>
      <point x="505" y="110"/>
      <point x="428" y="72"/>
      <point x="365" y="72" type="curve" smooth="yes"/>
      <point x="319" y="72"/>
      <point x="298" y="101"/>
      <point x="298" y="131" type="curve" smooth="yes"/>
      <point x="298" y="170"/>
      <point x="328" y="194"/>
      <point x="380" y="194" type="curve"/>
      <point x="351" y="304" type="line"/>
    </contour>
    <contour>
      <point x="56" y="304" type="line"/>
      <point x="56" y="194" type="line"/>
      <point x="420" y="194" type="line"/>
      <point x="400" y="304" type="line"/>
    </contour>
    <contour>
      <point x="536" y="28" type="line"/>
      <point x="536" y="-55" type="line"/>
      <point x="671" y="-55" type="line"/>
      <point x="671" y="28" type="line"/>
    </contour>
    <contour>
      <point x="243" y="536"/>
      <point x="163" y="457"/>
      <point x="163" y="363" type="curve" smooth="yes"/>
      <point x="163" y="270"/>
      <point x="233" y="194"/>
      <point x="360" y="194" type="curve"/>
      <point x="365" y="304" type="line"/>
      <point x="319" y="304"/>
      <point x="298" y="333"/>
      <point x="298" y="363" type="curve" smooth="yes"/>
      <point x="298" y="402"/>
      <point x="328" y="426"/>
      <point x="380" y="426" type="curve"/>
      <point x="351" y="536" type="line"/>
    </contour>
    <contour>
      <point x="56" y="536" type="line"/>
      <point x="56" y="426" type="line"/>
      <point x="420" y="426" type="line"/>
      <point x="400" y="536" type="line"/>
    </contour>
    <contour>
      <point x="-5" y="685" type="line"/>
      <point x="-5" y="575" type="line"/>
      <point x="770" y="575" type="line"/>
      <point x="770" y="685" type="line"/>
    </contour>
    <contour>
      <point x="536" y="608" type="line"/>
      <point x="536" y="0" type="line"/>
      <point x="671" y="0" type="line"/>
      <point x="671" y="608" type="line"/>
    </contour>
    <contour>
      <point x="411" y="685" type="line"/>
      <point x="411" y="575" type="line"/>
      <point x="796" y="575" type="line"/>
      <point x="796" y="685" type="line"/>
    </contour>
    <contour>
      <point x="670" y="685" type="move" name="imatra"/>
    </contour>
    <contour>
      <point x="593" y="-55" type="move" name="bottom"/>
    </contour>
    <contour>
      <point x="593" y="685" type="move" name="top"/>
    </contour>
  </outline>
</glyph>
<glyph name="candraBindu-deva.alt" format="1">
  <advance width="453"/>
  <outline>
    <component base="candraBindu-deva" xOffset="220"/>
    <contour>
      <point x="197" y="685" type="move" name="_top"/>
    </contour>
  </outline>
</glyph>
<glyph name="d_ba-deva" format="1">
  <advance width="624"/>
  <outline>
    <contour>
      <point x="302" y="-20" type="line"/>
      <point x="349" y="22" type="line"/>
      <point x="189" y="186" type="line"/>
      <point x="147" y="137" type="line"/>
    </contour>
    <component base="d_va-deva"/>
    <contour>
      <point x="300" y="685" type="move" name="top"/>
    </contour>
    <contour>
      <point x="538" y="0" type="move" name="bottom"/>
    </contour>
  </outline>
</glyph>
<glyph name="d_d_ya-deva" format="1">
  <advance width="1132"/>
  <outline>
    <contour>
      <point x="545" y="685" type="line"/>
      <point x="545" y="575" type="line"/>
      <point x="826" y="575" type="line"/>
      <point x="826" y="685" type="line"/>
    </contour>
    <contour>
      <point x="215" y="517" type="line"/>
      <point x="125" y="517"/>
      <point x="58" y="464"/>
      <point x="58" y="374" type="curve"/>
      <point x="58" y="269"/>
      <point x="126" y="224"/>
      <point x="221" y="224" type="curve"/>
      <point x="313" y="334" type="line"/>
      <point x="236" y="334" type="line"/>
      <point x="212" y="334"/>
      <point x="193" y="350"/>
      <point x="193" y="372" type="curve"/>
      <point x="193" y="394"/>
      <point x="206" y="408"/>
      <point x="228" y="408" type="curve"/>
      <point x="457" y="408" type="line"/>
      <point x="355" y="517" type="line"/>
    </contour>
    <contour>
      <point x="-5" y="685" type="line"/>
      <point x="-5" y="575" type="line"/>
      <point x="596" y="575" type="line"/>
      <point x="596" y="685" type="line"/>
    </contour>
    <contour>
      <point x="322" y="619" type="line"/>
      <point x="322" y="444" type="line"/>
      <point x="457" y="408" type="line"/>
      <point x="457" y="619" type="line"/>
    </contour>
    <contour>
      <point x="310" y="334" type="line" smooth="yes"/>
      <point x="190" y="334"/>
      <point x="79" y="274"/>
      <point x="79" y="154" type="curve" smooth="yes"/>
      <point x="79" y="14"/>
      <point x="214" y="-46"/>
      <point x="354" y="-46" type="curve" smooth="yes"/>
      <point x="473" y="-46"/>
      <point x="567" y="-13"/>
      <point x="567" y="55" type="curve" smooth="yes"/>
      <point x="567" y="109"/>
      <point x="502" y="165"/>
      <point x="427" y="165" type="curve" smooth="yes"/>
      <point x="372" y="165"/>
      <point x="351" y="128"/>
      <point x="351" y="93" type="curve" smooth="yes"/>
      <point x="351" y="54"/>
      <point x="375" y="1"/>
      <point x="382" y="-11" type="curve"/>
      <point x="501" y="101" type="line"/>
      <point x="452" y="77"/>
      <point x="394" y="62"/>
      <point x="342" y="62" type="curve" smooth="yes"/>
      <point x="267" y="62"/>
      <point x="214" y="89"/>
      <point x="214" y="154" type="curve" smooth="yes"/>
      <point x="214" y="204"/>
      <point x="257" y="224"/>
      <point x="307" y="224" type="curve" smooth="yes"/>
      <point x="447" y="224" type="line"/>
      <point x="427" y="334" type="line"/>
    </contour>
    <contour>
      <point x="1003" y="294" type="line"/>
      <point x="951" y="211"/>
      <point x="887" y="163"/>
      <point x="816" y="163" type="curve" smooth="yes"/>
      <point x="759" y="163"/>
      <point x="708" y="182"/>
      <point x="683" y="228" type="curve"/>
      <point x="765" y="268"/>
      <point x="803" y="331"/>
      <point x="803" y="409" type="curve" smooth="yes"/>
      <point x="803" y="476"/>
      <point x="754" y="517"/>
      <point x="687" y="517" type="curve" smooth="yes"/>
      <point x="312" y="517" type="line"/>
      <point x="312" y="408" type="line"/>
      <point x="644" y="408" type="line" smooth="yes"/>
      <point x="661" y="409"/>
      <point x="672" y="399"/>
      <point x="672" y="382" type="curve" smooth="yes"/>
      <point x="672" y="334"/>
      <point x="620" y="297"/>
      <point x="534" y="274" type="curve"/>
      <point x="573" y="125"/>
      <point x="658" y="53"/>
      <point x="815" y="53" type="curve" smooth="yes"/>
      <point x="882" y="53"/>
      <point x="945" y="78"/>
      <point x="1003" y="126" type="curve"/>
    </contour>
    <contour>
      <point x="903" y="608" type="line"/>
      <point x="903" y="0" type="line"/>
      <point x="1038" y="0" type="line"/>
      <point x="1038" y="608" type="line"/>
    </contour>
    <contour>
      <point x="778" y="685" type="line"/>
      <point x="778" y="575" type="line"/>
      <point x="1163" y="575" type="line"/>
      <point x="1163" y="685" type="line"/>
    </contour>
    <contour>
      <point x="382" y="-11" type="line"/>
      <point x="536" y="-218" type="line"/>
      <point x="629" y="-147" type="line"/>
      <point x="493" y="29" type="line"/>
    </contour>
    <contour>
      <point x="1037" y="685" type="move" name="imatra"/>
    </contour>
    <contour>
      <point x="960" y="0" type="move" name="bottom"/>
    </contour>
    <contour>
      <point x="960" y="685" type="move" name="top"/>
    </contour>
  </outline>
</glyph>
<glyph name="d_da-deva" format="1">
  <advance width="591"/>
  <outline>
    <contour>
      <point x="215" y="517" type="line"/>
      <point x="125" y="517"/>
      <point x="58" y="464"/>
      <point x="58" y="374" type="curve"/>
      <point x="58" y="269"/>
      <point x="126" y="224"/>
      <point x="221" y="224" type="curve"/>
      <point x="313" y="334" type="line"/>
      <point x="236" y="334" type="line"/>
      <point x="212" y="334"/>
      <point x="193" y="350"/>
      <point x="193" y="372" type="curve"/>
      <point x="193" y="394"/>
      <point x="206" y="408"/>
      <point x="228" y="408" type="curve"/>
      <point x="457" y="408" type="line"/>
      <point x="355" y="517" type="line"/>
    </contour>
    <contour>
      <point x="-5" y="685" type="line"/>
      <point x="-5" y="575" type="line"/>
      <point x="596" y="575" type="line"/>
      <point x="596" y="685" type="line"/>
    </contour>
    <contour>
      <point x="322" y="619" type="line"/>
      <point x="322" y="444" type="line"/>
      <point x="457" y="408" type="line"/>
      <point x="457" y="619" type="line"/>
    </contour>
    <contour>
      <point x="310" y="334" type="line" smooth="yes"/>
      <point x="190" y="334"/>
      <point x="79" y="274"/>
      <point x="79" y="154" type="curve" smooth="yes"/>
      <point x="79" y="14"/>
      <point x="214" y="-46"/>
      <point x="354" y="-46" type="curve" smooth="yes"/>
      <point x="473" y="-46"/>
      <point x="567" y="-13"/>
      <point x="567" y="55" type="curve" smooth="yes"/>
      <point x="567" y="109"/>
      <point x="502" y="165"/>
      <point x="427" y="165" type="curve" smooth="yes"/>
      <point x="372" y="165"/>
      <point x="351" y="128"/>
      <point x="351" y="93" type="curve" smooth="yes"/>
      <point x="351" y="54"/>
      <point x="375" y="1"/>
      <point x="382" y="-11" type="curve"/>
      <point x="501" y="101" type="line"/>
      <point x="452" y="77"/>
      <point x="394" y="62"/>
      <point x="342" y="62" type="curve" smooth="yes"/>
      <point x="267" y="62"/>
      <point x="214" y="89"/>
      <point x="214" y="154" type="curve" smooth="yes"/>
      <point x="214" y="204"/>
      <point x="257" y="224"/>
      <point x="307" y="224" type="curve" smooth="yes"/>
      <point x="447" y="224" type="line"/>
      <point x="427" y="334" type="line"/>
    </contour>
    <contour>
      <point x="382" y="-11" type="line"/>
      <point x="536" y="-218" type="line"/>
      <point x="629" y="-147" type="line"/>
      <point x="493" y="29" type="line"/>
    </contour>
    <contour>
      <point x="388" y="685" type="move" name="top"/>
    </contour>
    <contour>
      <point x="255" y="0" type="move" name="bottom"/>
    </contour>
  </outline>
</glyph>
<glyph name="d_ddh_r_ya-deva" format="1">
  <advance width="1282"/>
  <outline>
    <component base="d_dha-deva"/>
    <component base="ya.connect" xOffset="728"/>
    <contour>
      <point x="1110" y="685" type="move" name="top"/>
    </contour>
    <contour>
      <point x="1110" y="0" type="move" name="bottom"/>
    </contour>
  </outline>
</glyph>
<glyph name="d_dha-deva" format="1">
  <advance width="784"/>
  <outline>
    <contour>
      <point x="493" y="81"/>
      <point x="452" y="-8"/>
      <point x="371" y="-8" type="curve" smooth="yes"/>
      <point x="331" y="-8"/>
      <point x="311" y="18"/>
      <point x="311" y="47" type="curve" smooth="yes"/>
      <point x="311" y="66"/>
      <point x="325" y="88"/>
      <point x="354" y="102" type="curve"/>
      <point x="262" y="168" type="line"/>
      <point x="208" y="131"/>
      <point x="180" y="83"/>
      <point x="180" y="37" type="curve" smooth="yes"/>
      <point x="180" y="-56"/>
      <point x="277" y="-107"/>
      <point x="366" y="-107" type="curve" smooth="yes"/>
      <point x="460" y="-107"/>
      <point x="554" y="-44"/>
      <point x="590" y="84" type="curve"/>
      <point x="520" y="185" type="line"/>
    </contour>
    <contour>
      <point x="68" y="297"/>
      <point x="26" y="256"/>
      <point x="26" y="188" type="curve" smooth="yes"/>
      <point x="26" y="92"/>
      <point x="100" y="32"/>
      <point x="200" y="32" type="curve" smooth="yes"/>
      <point x="224" y="32"/>
      <point x="248" y="35"/>
      <point x="271" y="41" type="curve"/>
      <point x="254" y="128" type="line"/>
      <point x="240" y="122"/>
      <point x="225" y="119"/>
      <point x="209" y="119" type="curve" smooth="yes"/>
      <point x="171" y="119"/>
      <point x="149" y="150"/>
      <point x="149" y="173" type="curve" smooth="yes"/>
      <point x="149" y="190"/>
      <point x="162" y="213"/>
      <point x="193" y="219" type="curve"/>
      <point x="143" y="303" type="line"/>
    </contour>
    <contour>
      <point x="-30" y="685" type="line"/>
      <point x="-30" y="575" type="line"/>
      <point x="814" y="575" type="line"/>
      <point x="814" y="685" type="line"/>
    </contour>
    <component base="da_small" xOffset="173"/>
    <contour>
      <point x="611" y="685" type="move" name="top"/>
    </contour>
    <contour>
      <point x="719" y="0" type="move" name="bottom"/>
    </contour>
  </outline>
</glyph>
<glyph name="d_dha_uMatra-deva" format="1">
  <advance width="784"/>
  <outline>
    <component base="d_dha-deva"/>
    <component base="uMatra-deva" xOffset="479"/>
    <contour>
      <point x="611" y="685" type="move" name="top"/>
    </contour>
    <contour>
      <point x="709" y="0" type="move" name="bottom"/>
    </contour>
  </outline>
</glyph>
<glyph name="d_ga-deva" format="1">
  <advance width="616"/>
  <outline>
    <contour>
      <point x="164" y="84" type="line"/>
      <point x="110" y="84"/>
      <point x="84" y="69"/>
      <point x="84" y="19" type="curve" smooth="yes"/>
      <point x="84" y="-42"/>
      <point x="166" y="-110"/>
      <point x="216" y="-110" type="curve" smooth="yes"/>
      <point x="261" y="-110"/>
      <point x="269" y="-81"/>
      <point x="269" y="-35" type="curve" smooth="yes"/>
      <point x="269" y="229" type="line"/>
      <point x="164" y="249" type="line"/>
    </contour>
    <contour>
      <point x="-30" y="685" type="line"/>
      <point x="-30" y="575" type="line"/>
      <point x="646" y="575" type="line"/>
      <point x="646" y="685" type="line"/>
    </contour>
    <component base="da_small"/>
    <contour>
      <point x="437" y="685" type="move" name="top"/>
    </contour>
    <contour>
      <point x="533" y="7" type="move" name="bottom"/>
    </contour>
  </outline>
</glyph>
<glyph name="d_ga_uMatra-deva" format="1">
  <advance width="616"/>
  <outline>
    <component base="d_ga-deva"/>
    <component base="uMatra-deva" xOffset="293" yOffset="7"/>
    <contour>
      <point x="435" y="685" type="move" name="top"/>
    </contour>
    <contour>
      <point x="315" y="38" type="move" name="bottom"/>
    </contour>
  </outline>
</glyph>
<glyph name="d_gha_uMatra-deva" format="1">
  <advance width="763"/>
  <outline>
    <component base="d_gha-deva"/>
    <component base="uMatra-deva" xOffset="460" yOffset="6"/>
    <contour>
      <point x="558" y="685" type="move" name="top"/>
    </contour>
  </outline>
</glyph>
<glyph name="d_ma-deva" format="1">
  <advance width="815"/>
  <outline>
    <contour>
      <point x="-5" y="685" type="line"/>
      <point x="-5" y="575" type="line"/>
      <point x="820" y="575" type="line"/>
      <point x="820" y="685" type="line"/>
    </contour>
    <contour>
      <point x="291" y="619" type="line"/>
      <point x="291" y="444" type="line"/>
      <point x="426" y="408" type="line"/>
      <point x="426" y="619" type="line"/>
    </contour>
    <contour>
      <point x="194" y="517" type="line" smooth="yes"/>
      <point x="104" y="517"/>
      <point x="37" y="464"/>
      <point x="37" y="374" type="curve" smooth="yes"/>
      <point x="37" y="269"/>
      <point x="105" y="224"/>
      <point x="200" y="224" type="curve" smooth="yes"/>
      <point x="285" y="224" type="line" smooth="yes"/>
      <point x="313" y="224"/>
      <point x="321" y="216"/>
      <point x="321" y="188" type="curve" smooth="yes"/>
      <point x="321" y="147" type="line"/>
      <point x="446" y="147" type="line"/>
      <point x="446" y="228" type="line" smooth="yes"/>
      <point x="446" y="308"/>
      <point x="415" y="334"/>
      <point x="335" y="334" type="curve" smooth="yes"/>
      <point x="215" y="334" type="line" smooth="yes"/>
      <point x="191" y="334"/>
      <point x="172" y="350"/>
      <point x="172" y="372" type="curve" smooth="yes"/>
      <point x="172" y="394"/>
      <point x="185" y="408"/>
      <point x="207" y="408" type="curve" smooth="yes"/>
      <point x="426" y="408" type="line"/>
      <point x="324" y="517" type="line"/>
    </contour>
    <contour>
      <point x="586" y="28" type="line"/>
      <point x="586" y="-55" type="line"/>
      <point x="721" y="-55" type="line"/>
      <point x="721" y="28" type="line"/>
    </contour>
    <contour>
      <point x="305" y="181" type="line" smooth="yes"/>
      <point x="255" y="181"/>
      <point x="219" y="164"/>
      <point x="219" y="114" type="curve" smooth="yes"/>
      <point x="219" y="44"/>
      <point x="312" y="-13"/>
      <point x="382" y="-13" type="curve" smooth="yes"/>
      <point x="427" y="-13"/>
      <point x="442" y="14"/>
      <point x="445" y="71" type="curve"/>
      <point x="673" y="71" type="line"/>
      <point x="673" y="181" type="line"/>
    </contour>
    <contour>
      <point x="586" y="608" type="line"/>
      <point x="586" y="0" type="line"/>
      <point x="721" y="0" type="line"/>
      <point x="721" y="608" type="line"/>
    </contour>
    <contour>
      <point x="461" y="685" type="line"/>
      <point x="461" y="575" type="line"/>
      <point x="846" y="575" type="line"/>
      <point x="846" y="685" type="line"/>
    </contour>
    <contour>
      <point x="720" y="685" type="move" name="imatra"/>
    </contour>
    <contour>
      <point x="643" y="-55" type="move" name="bottom"/>
    </contour>
    <contour>
      <point x="643" y="685" type="move" name="top"/>
    </contour>
  </outline>
</glyph>
<glyph name="d_r_ya-deva" format="1">
  <advance width="825"/>
  <outline>
    <contour>
      <point x="242" y="-81" type="line"/>
      <point x="323" y="-168" type="line"/>
      <point x="606" y="71" type="line"/>
      <point x="606" y="217" type="line"/>
    </contour>
    <component base="d_ya-deva"/>
    <contour>
      <point x="660" y="685" type="move" name="top"/>
    </contour>
    <contour>
      <point x="660" y="-55" type="move" name="bottom"/>
    </contour>
  </outline>
</glyph>
<glyph name="d_v_ya-deva" format="1">
  <advance width="1184"/>
  <outline>
    <component base="d_va-deva" xOffset="10"/>
    <component base="ya.connect" xOffset="630"/>
    <contour>
      <point x="1012" y="685" type="move" name="top"/>
    </contour>
    <contour>
      <point x="1012" y="0" type="move" name="bottom"/>
    </contour>
  </outline>
</glyph>
<glyph name="d_va_uMatra-deva" format="1">
  <advance width="624"/>
  <outline>
    <component base="d_va-deva"/>
    <component base="uMatra-deva" xOffset="317"/>
    <contour>
      <point x="442" y="685" type="move" name="top"/>
    </contour>
    <contour>
      <point x="544" y="0" type="move" name="bottom"/>
    </contour>
  </outline>
</glyph>
<glyph name="d_ya-deva" format="1">
  <advance width="825"/>
  <outline>
    <contour>
      <point x="215" y="517" type="line"/>
      <point x="125" y="517"/>
      <point x="58" y="464"/>
      <point x="58" y="374" type="curve"/>
      <point x="58" y="269"/>
      <point x="126" y="224"/>
      <point x="221" y="224" type="curve"/>
      <point x="313" y="334" type="line"/>
      <point x="236" y="334" type="line"/>
      <point x="212" y="334"/>
      <point x="193" y="350"/>
      <point x="193" y="372" type="curve"/>
      <point x="193" y="394"/>
      <point x="206" y="408"/>
      <point x="228" y="408" type="curve"/>
      <point x="457" y="408" type="line"/>
      <point x="355" y="517" type="line"/>
    </contour>
    <contour>
      <point x="-5" y="685" type="line"/>
      <point x="-5" y="575" type="line"/>
      <point x="596" y="575" type="line"/>
      <point x="596" y="685" type="line"/>
    </contour>
    <contour>
      <point x="322" y="619" type="line"/>
      <point x="322" y="444" type="line"/>
      <point x="457" y="408" type="line"/>
      <point x="457" y="619" type="line"/>
    </contour>
    <contour>
      <point x="310" y="334" type="line" smooth="yes"/>
      <point x="200" y="334"/>
      <point x="79" y="264"/>
      <point x="79" y="154" type="curve" smooth="yes"/>
      <point x="79" y="27"/>
      <point x="207" y="-26"/>
      <point x="334" y="-26" type="curve" smooth="yes"/>
      <point x="489" y="-26"/>
      <point x="598" y="49"/>
      <point x="642" y="107" type="curve"/>
      <point x="622" y="285" type="line"/>
      <point x="598" y="207"/>
      <point x="490" y="82"/>
      <point x="334" y="82" type="curve" smooth="yes"/>
      <point x="279" y="82"/>
      <point x="214" y="99"/>
      <point x="214" y="154" type="curve" smooth="yes"/>
      <point x="214" y="199"/>
      <point x="247" y="224"/>
      <point x="292" y="224" type="curve" smooth="yes"/>
      <point x="447" y="224" type="line"/>
      <point x="427" y="334" type="line"/>
    </contour>
    <contour>
      <point x="596" y="10" type="line"/>
      <point x="596" y="-55" type="line"/>
      <point x="731" y="-55" type="line"/>
      <point x="731" y="10" type="line"/>
    </contour>
    <contour>
      <point x="596" y="608" type="line"/>
      <point x="596" y="0" type="line"/>
      <point x="731" y="0" type="line"/>
      <point x="731" y="608" type="line"/>
    </contour>
    <contour>
      <point x="471" y="685" type="line"/>
      <point x="471" y="575" type="line"/>
      <point x="856" y="575" type="line"/>
      <point x="856" y="685" type="line"/>
    </contour>
    <contour>
      <point x="730" y="685" type="move" name="imatra"/>
    </contour>
    <contour>
      <point x="653" y="-55" type="move" name="bottom"/>
    </contour>
    <contour>
      <point x="653" y="685" type="move" name="top"/>
    </contour>
  </outline>
</glyph>
<glyph name="da-deva-compo" format="1">
  <advance width="570"/>
  <outline>
    <contour>
      <point x="347" y="524" type="line"/>
      <point x="255" y="524" type="line" smooth="yes"/>
      <point x="115" y="524"/>
      <point x="24" y="472"/>
      <point x="24" y="332" type="curve" smooth="yes"/>
      <point x="24" y="192"/>
      <point x="159" y="119"/>
      <point x="299" y="119" type="curve" smooth="yes"/>
      <point x="418" y="119"/>
      <point x="512" y="152"/>
      <point x="512" y="220" type="curve" smooth="yes"/>
      <point x="512" y="274"/>
      <point x="447" y="330"/>
      <point x="372" y="330" type="curve" smooth="yes"/>
      <point x="317" y="330"/>
      <point x="296" y="293"/>
      <point x="296" y="258" type="curve" smooth="yes"/>
      <point x="296" y="219"/>
      <point x="320" y="166"/>
      <point x="327" y="154" type="curve"/>
      <point x="446" y="266" type="line"/>
      <point x="397" y="242"/>
      <point x="339" y="227"/>
      <point x="287" y="227" type="curve" smooth="yes"/>
      <point x="216" y="227"/>
      <point x="159" y="256"/>
      <point x="159" y="332" type="curve" smooth="yes"/>
      <point x="159" y="392"/>
      <point x="192" y="415"/>
      <point x="252" y="415" type="curve" smooth="yes"/>
      <point x="462" y="415" type="line"/>
      <point x="462" y="625" type="line"/>
      <point x="347" y="625" type="line"/>
    </contour>
    <contour>
      <point x="405" y="685" type="move" name="top"/>
    </contour>
    <contour>
      <point x="289" y="38" type="move" name="bottom"/>
    </contour>
  </outline>
</glyph>
<glyph name="dd_dda-deva" format="1">
  <advance width="628"/>
  <outline>
    <contour>
      <point x="-20" y="685" type="line"/>
      <point x="-20" y="575" type="line"/>
      <point x="648" y="575" type="line"/>
      <point x="648" y="685" type="line"/>
    </contour>
    <contour>
      <point x="202" y="539" type="line"/>
      <point x="145" y="539"/>
      <point x="110" y="504"/>
      <point x="110" y="448" type="curve" smooth="yes"/>
      <point x="110" y="371"/>
      <point x="185" y="293"/>
      <point x="268" y="293" type="curve" smooth="yes"/>
      <point x="305" y="293"/>
      <point x="417" y="312"/>
      <point x="432" y="312" type="curve" smooth="yes"/>
      <point x="447" y="312"/>
      <point x="454" y="307"/>
      <point x="454" y="292" type="curve" smooth="yes"/>
      <point x="454" y="264"/>
      <point x="390" y="252"/>
      <point x="329" y="252" type="curve" smooth="yes"/>
      <point x="227" y="252"/>
      <point x="162" y="287"/>
      <point x="93" y="369" type="curve"/>
      <point x="19" y="310" type="line"/>
      <point x="84" y="211"/>
      <point x="190" y="152"/>
      <point x="341" y="152" type="curve" smooth="yes"/>
      <point x="476" y="152"/>
      <point x="581" y="218"/>
      <point x="581" y="313" type="curve" smooth="yes"/>
      <point x="581" y="378"/>
      <point x="539" y="417"/>
      <point x="469" y="417" type="curve" smooth="yes"/>
      <point x="450" y="417"/>
      <point x="312" y="396"/>
      <point x="276" y="396" type="curve" smooth="yes"/>
      <point x="250" y="396"/>
      <point x="237" y="404"/>
      <point x="237" y="427" type="curve" smooth="yes"/>
      <point x="237" y="439"/>
      <point x="245" y="441"/>
      <point x="257" y="441" type="curve" smooth="yes"/>
      <point x="519" y="441" type="line"/>
      <point x="419" y="539" type="line"/>
    </contour>
    <contour>
      <point x="414" y="642" type="line"/>
      <point x="414" y="469" type="line"/>
      <point x="519" y="441" type="line"/>
      <point x="519" y="642" type="line"/>
    </contour>
    <contour>
      <point x="202" y="122" type="line"/>
      <point x="145" y="122"/>
      <point x="110" y="87"/>
      <point x="110" y="31" type="curve" smooth="yes"/>
      <point x="110" y="-46"/>
      <point x="185" y="-124"/>
      <point x="268" y="-124" type="curve" smooth="yes"/>
      <point x="305" y="-124"/>
      <point x="417" y="-105"/>
      <point x="432" y="-105" type="curve" smooth="yes"/>
      <point x="447" y="-105"/>
      <point x="454" y="-110"/>
      <point x="454" y="-125" type="curve" smooth="yes"/>
      <point x="454" y="-153"/>
      <point x="390" y="-165"/>
      <point x="329" y="-165" type="curve" smooth="yes"/>
      <point x="227" y="-165"/>
      <point x="162" y="-130"/>
      <point x="93" y="-48" type="curve"/>
      <point x="19" y="-107" type="line"/>
      <point x="84" y="-206"/>
      <point x="190" y="-265"/>
      <point x="341" y="-265" type="curve" smooth="yes"/>
      <point x="476" y="-265"/>
      <point x="581" y="-199"/>
      <point x="581" y="-104" type="curve" smooth="yes"/>
      <point x="581" y="-39"/>
      <point x="539" y="0"/>
      <point x="469" y="0" type="curve" smooth="yes"/>
      <point x="450" y="0"/>
      <point x="312" y="-21"/>
      <point x="276" y="-21" type="curve" smooth="yes"/>
      <point x="250" y="-21"/>
      <point x="237" y="-13"/>
      <point x="237" y="10" type="curve" smooth="yes"/>
      <point x="237" y="22"/>
      <point x="245" y="24"/>
      <point x="257" y="24" type="curve" smooth="yes"/>
      <point x="519" y="24" type="line"/>
      <point x="419" y="122" type="line"/>
    </contour>
    <contour>
      <point x="414" y="225" type="line"/>
      <point x="414" y="52" type="line"/>
      <point x="519" y="24" type="line"/>
      <point x="519" y="225" type="line"/>
    </contour>
    <contour>
      <point x="660" y="443" type="move" name="nukta"/>
    </contour>
    <contour>
      <point x="314" y="-265" type="move" name="bottom"/>
    </contour>
    <contour>
      <point x="470" y="685" type="move" name="top"/>
    </contour>
  </outline>
</glyph>
<glyph name="dd_ddha-deva" format="1">
  <advance width="599"/>
  <outline>
    <contour>
      <point x="-20" y="685" type="line"/>
      <point x="-20" y="575" type="line"/>
      <point x="619" y="575" type="line"/>
      <point x="619" y="685" type="line"/>
    </contour>
    <contour>
      <point x="203" y="539" type="line"/>
      <point x="146" y="539"/>
      <point x="111" y="504"/>
      <point x="111" y="448" type="curve" smooth="yes"/>
      <point x="111" y="371"/>
      <point x="186" y="293"/>
      <point x="269" y="293" type="curve" smooth="yes"/>
      <point x="306" y="293"/>
      <point x="418" y="312"/>
      <point x="433" y="312" type="curve" smooth="yes"/>
      <point x="448" y="312"/>
      <point x="455" y="307"/>
      <point x="455" y="292" type="curve" smooth="yes"/>
      <point x="455" y="264"/>
      <point x="391" y="252"/>
      <point x="330" y="252" type="curve" smooth="yes"/>
      <point x="228" y="252"/>
      <point x="163" y="287"/>
      <point x="94" y="369" type="curve"/>
      <point x="20" y="310" type="line"/>
      <point x="85" y="211"/>
      <point x="191" y="152"/>
      <point x="342" y="152" type="curve" smooth="yes"/>
      <point x="477" y="152"/>
      <point x="582" y="218"/>
      <point x="582" y="313" type="curve" smooth="yes"/>
      <point x="582" y="378"/>
      <point x="540" y="417"/>
      <point x="470" y="417" type="curve" smooth="yes"/>
      <point x="451" y="417"/>
      <point x="313" y="396"/>
      <point x="277" y="396" type="curve" smooth="yes"/>
      <point x="251" y="396"/>
      <point x="238" y="404"/>
      <point x="238" y="427" type="curve" smooth="yes"/>
      <point x="238" y="439"/>
      <point x="246" y="441"/>
      <point x="258" y="441" type="curve" smooth="yes"/>
      <point x="520" y="441" type="line"/>
      <point x="420" y="539" type="line"/>
    </contour>
    <contour>
      <point x="415" y="642" type="line"/>
      <point x="415" y="469" type="line"/>
      <point x="520" y="441" type="line"/>
      <point x="520" y="642" type="line"/>
    </contour>
    <contour>
      <point x="414" y="109" type="line"/>
      <point x="275" y="109" type="line" smooth="yes"/>
      <point x="170" y="109"/>
      <point x="75" y="63"/>
      <point x="75" y="-42" type="curve" smooth="yes"/>
      <point x="75" y="-172"/>
      <point x="208" y="-245"/>
      <point x="338" y="-245" type="curve" smooth="yes"/>
      <point x="507" y="-245"/>
      <point x="604" y="-195"/>
      <point x="604" y="-105" type="curve" smooth="yes"/>
      <point x="604" y="-34"/>
      <point x="527" y="-11"/>
      <point x="450" y="-11" type="curve" smooth="yes"/>
      <point x="349" y="-11"/>
      <point x="291" y="-41"/>
      <point x="291" y="-98" type="curve" smooth="yes"/>
      <point x="291" y="-147"/>
      <point x="326" y="-177"/>
      <point x="359" y="-208" type="curve"/>
      <point x="455" y="-188" type="line"/>
      <point x="432" y="-168"/>
      <point x="408" y="-139"/>
      <point x="408" y="-117" type="curve" smooth="yes"/>
      <point x="408" y="-98"/>
      <point x="419" y="-83"/>
      <point x="443" y="-83" type="curve" smooth="yes"/>
      <point x="458" y="-83"/>
      <point x="470" y="-91"/>
      <point x="470" y="-106" type="curve" smooth="yes"/>
      <point x="470" y="-126"/>
      <point x="457" y="-149"/>
      <point x="357" y="-149" type="curve" smooth="yes"/>
      <point x="271" y="-149"/>
      <point x="208" y="-125"/>
      <point x="208" y="-55" type="curve" smooth="yes"/>
      <point x="208" y="-5"/>
      <point x="245" y="14"/>
      <point x="295" y="13" type="curve" smooth="yes"/>
      <point x="519" y="13" type="line"/>
      <point x="519" y="242" type="line"/>
      <point x="414" y="242" type="line"/>
    </contour>
    <contour>
      <point x="471" y="685" type="move" name="top"/>
    </contour>
    <contour>
      <point x="307" y="-245" type="move" name="bottom"/>
    </contour>
  </outline>
</glyph>
<glyph name="dd_ma-deva" format="1">
  <advance width="1242"/>
  <outline>
    <contour>
      <point x="661" y="316"/>
      <point x="635" y="298"/>
      <point x="635" y="244" type="curve" smooth="yes"/>
      <point x="635" y="166"/>
      <point x="708" y="99"/>
      <point x="777" y="99" type="curve" smooth="yes"/>
      <point x="820" y="99"/>
      <point x="842" y="132"/>
      <point x="842" y="230" type="curve"/>
      <point x="735" y="230" type="line"/>
      <point x="735" y="158" type="line"/>
      <point x="811" y="199" type="line"/>
      <point x="1039" y="199" type="line"/>
      <point x="1039" y="309" type="line"/>
      <point x="756" y="309" type="line"/>
      <point x="741" y="316" type="line" smooth="yes"/>
    </contour>
    <contour>
      <point x="472" y="517" type="line"/>
      <point x="472" y="407" type="line"/>
      <point x="661" y="407" type="line" smooth="yes"/>
      <point x="691" y="407"/>
      <point x="707" y="388"/>
      <point x="707" y="354" type="curve" smooth="yes"/>
      <point x="707" y="270" type="line"/>
      <point x="842" y="270" type="line"/>
      <point x="842" y="411" type="line" smooth="yes"/>
      <point x="842" y="476"/>
      <point x="795" y="517"/>
      <point x="721" y="517" type="curve" smooth="yes"/>
    </contour>
    <contour>
      <point x="630" y="575" type="line"/>
      <point x="887" y="575" type="line"/>
      <point x="887" y="685" type="line"/>
      <point x="630" y="685" type="line"/>
    </contour>
    <contour>
      <point x="250" y="517" type="line"/>
      <point x="159" y="517"/>
      <point x="103" y="474"/>
      <point x="103" y="404" type="curve"/>
      <point x="103" y="299"/>
      <point x="171" y="224"/>
      <point x="266" y="224" type="curve" smooth="yes"/>
      <point x="300" y="224"/>
      <point x="379" y="245"/>
      <point x="394" y="245" type="curve" smooth="yes"/>
      <point x="417" y="245"/>
      <point x="438" y="232"/>
      <point x="438" y="202" type="curve"/>
      <point x="438" y="150"/>
      <point x="389" y="128"/>
      <point x="326" y="128" type="curve" smooth="yes"/>
      <point x="238" y="128"/>
      <point x="192" y="155"/>
      <point x="110" y="253" type="curve"/>
      <point x="18" y="199" type="line"/>
      <point x="92" y="73"/>
      <point x="189" y="18"/>
      <point x="337" y="18" type="curve" smooth="yes"/>
      <point x="478" y="18"/>
      <point x="573" y="96"/>
      <point x="573" y="214" type="curve"/>
      <point x="573" y="303"/>
      <point x="521" y="355"/>
      <point x="434" y="355" type="curve" smooth="yes"/>
      <point x="409" y="355"/>
      <point x="298" y="334"/>
      <point x="281" y="334" type="curve" smooth="yes"/>
      <point x="257" y="334"/>
      <point x="238" y="347"/>
      <point x="238" y="386" type="curve"/>
      <point x="238" y="402"/>
      <point x="247" y="407"/>
      <point x="264" y="407" type="curve"/>
      <point x="502" y="407" type="line"/>
      <point x="400" y="517" type="line"/>
    </contour>
    <contour>
      <point x="-20" y="685" type="line"/>
      <point x="-20" y="575" type="line"/>
      <point x="637" y="575" type="line"/>
      <point x="637" y="685" type="line"/>
    </contour>
    <contour>
      <point x="367" y="619" type="line"/>
      <point x="367" y="444" type="line"/>
      <point x="502" y="407" type="line"/>
      <point x="502" y="619" type="line"/>
    </contour>
    <contour>
      <point x="1002" y="608" type="line"/>
      <point x="1002" y="0" type="line"/>
      <point x="1137" y="0" type="line"/>
      <point x="1137" y="608" type="line"/>
    </contour>
    <contour>
      <point x="877" y="685" type="line"/>
      <point x="877" y="575" type="line"/>
      <point x="1262" y="575" type="line"/>
      <point x="1262" y="685" type="line"/>
    </contour>
    <contour>
      <point x="1136" y="685" type="move" name="imatra"/>
    </contour>
    <contour>
      <point x="616" y="390" type="move" name="nukta"/>
    </contour>
    <contour>
      <point x="1070" y="685" type="move" name="top"/>
    </contour>
    <contour>
      <point x="1070" y="0" type="move" name="bottom"/>
    </contour>
  </outline>
</glyph>
<glyph name="dd_na-deva" format="1">
  <advance width="600"/>
  <outline>
    <contour>
      <point x="-20" y="685" type="line"/>
      <point x="-20" y="575" type="line"/>
      <point x="620" y="575" type="line"/>
      <point x="620" y="685" type="line"/>
    </contour>
    <contour>
      <point x="204" y="539" type="line"/>
      <point x="147" y="539"/>
      <point x="112" y="504"/>
      <point x="112" y="448" type="curve" smooth="yes"/>
      <point x="112" y="371"/>
      <point x="187" y="293"/>
      <point x="270" y="293" type="curve" smooth="yes"/>
      <point x="307" y="293"/>
      <point x="419" y="312"/>
      <point x="434" y="312" type="curve" smooth="yes"/>
      <point x="449" y="312"/>
      <point x="456" y="307"/>
      <point x="456" y="292" type="curve" smooth="yes"/>
      <point x="456" y="264"/>
      <point x="392" y="252"/>
      <point x="331" y="252" type="curve" smooth="yes"/>
      <point x="229" y="252"/>
      <point x="164" y="287"/>
      <point x="95" y="369" type="curve"/>
      <point x="21" y="310" type="line"/>
      <point x="86" y="211"/>
      <point x="192" y="152"/>
      <point x="343" y="152" type="curve" smooth="yes"/>
      <point x="478" y="152"/>
      <point x="583" y="218"/>
      <point x="583" y="313" type="curve" smooth="yes"/>
      <point x="583" y="378"/>
      <point x="541" y="417"/>
      <point x="471" y="417" type="curve" smooth="yes"/>
      <point x="452" y="417"/>
      <point x="314" y="396"/>
      <point x="278" y="396" type="curve" smooth="yes"/>
      <point x="252" y="396"/>
      <point x="239" y="404"/>
      <point x="239" y="427" type="curve" smooth="yes"/>
      <point x="239" y="439"/>
      <point x="247" y="441"/>
      <point x="259" y="441" type="curve" smooth="yes"/>
      <point x="521" y="441" type="line"/>
      <point x="421" y="539" type="line"/>
    </contour>
    <contour>
      <point x="416" y="642" type="line"/>
      <point x="416" y="469" type="line"/>
      <point x="521" y="441" type="line"/>
      <point x="521" y="642" type="line"/>
    </contour>
    <contour>
      <point x="146" y="36"/>
      <point x="114" y="29"/>
      <point x="114" y="-29" type="curve" smooth="yes"/>
      <point x="114" y="-77"/>
      <point x="159" y="-164"/>
      <point x="231" y="-164" type="curve"/>
      <point x="282" y="-164"/>
      <point x="294" y="-108"/>
      <point x="291" y="-33" type="curve"/>
      <point x="194" y="-33" type="line"/>
      <point x="194" y="-105" type="line"/>
      <point x="270" y="-64" type="line"/>
      <point x="506" y="-64" type="line"/>
      <point x="506" y="36" type="line"/>
      <point x="200" y="36" type="line" smooth="yes"/>
    </contour>
    <contour>
      <point x="521" y="-232" type="line"/>
      <point x="521" y="220" type="line"/>
      <point x="416" y="220" type="line"/>
      <point x="416" y="-232" type="line"/>
    </contour>
    <contour>
      <point x="474" y="685" type="move" name="top"/>
    </contour>
    <contour>
      <point x="472" y="-232" type="move" name="bottom"/>
    </contour>
  </outline>
</glyph>
<glyph name="ddh_ddha-deva" format="1">
  <advance width="605"/>
  <outline>
    <contour>
      <point x="-20" y="685" type="line"/>
      <point x="-20" y="575" type="line"/>
      <point x="625" y="575" type="line"/>
      <point x="625" y="685" type="line"/>
    </contour>
    <contour>
      <point x="384" y="517" type="line"/>
      <point x="245" y="517" type="line" smooth="yes"/>
      <point x="140" y="517"/>
      <point x="45" y="471"/>
      <point x="45" y="366" type="curve" smooth="yes"/>
      <point x="45" y="236"/>
      <point x="178" y="163"/>
      <point x="308" y="163" type="curve" smooth="yes"/>
      <point x="477" y="163"/>
      <point x="574" y="213"/>
      <point x="574" y="303" type="curve" smooth="yes"/>
      <point x="574" y="374"/>
      <point x="497" y="397"/>
      <point x="420" y="397" type="curve" smooth="yes"/>
      <point x="319" y="397"/>
      <point x="261" y="367"/>
      <point x="261" y="310" type="curve" smooth="yes"/>
      <point x="261" y="261"/>
      <point x="296" y="231"/>
      <point x="329" y="200" type="curve"/>
      <point x="425" y="220" type="line"/>
      <point x="402" y="240"/>
      <point x="378" y="269"/>
      <point x="378" y="291" type="curve" smooth="yes"/>
      <point x="378" y="310"/>
      <point x="389" y="325"/>
      <point x="413" y="325" type="curve" smooth="yes"/>
      <point x="428" y="325"/>
      <point x="440" y="317"/>
      <point x="440" y="302" type="curve" smooth="yes"/>
      <point x="440" y="282"/>
      <point x="427" y="259"/>
      <point x="327" y="259" type="curve" smooth="yes"/>
      <point x="241" y="259"/>
      <point x="178" y="283"/>
      <point x="178" y="353" type="curve" smooth="yes"/>
      <point x="178" y="403"/>
      <point x="215" y="422"/>
      <point x="265" y="421" type="curve" smooth="yes"/>
      <point x="489" y="421" type="line"/>
      <point x="489" y="650" type="line"/>
      <point x="384" y="650" type="line"/>
    </contour>
    <contour>
      <point x="384" y="109" type="line"/>
      <point x="245" y="109" type="line" smooth="yes"/>
      <point x="140" y="109"/>
      <point x="45" y="63"/>
      <point x="45" y="-42" type="curve" smooth="yes"/>
      <point x="45" y="-172"/>
      <point x="178" y="-245"/>
      <point x="308" y="-245" type="curve" smooth="yes"/>
      <point x="477" y="-245"/>
      <point x="574" y="-195"/>
      <point x="574" y="-105" type="curve" smooth="yes"/>
      <point x="574" y="-34"/>
      <point x="497" y="-11"/>
      <point x="420" y="-11" type="curve" smooth="yes"/>
      <point x="319" y="-11"/>
      <point x="261" y="-41"/>
      <point x="261" y="-98" type="curve" smooth="yes"/>
      <point x="261" y="-147"/>
      <point x="296" y="-177"/>
      <point x="329" y="-208" type="curve"/>
      <point x="425" y="-188" type="line"/>
      <point x="402" y="-168"/>
      <point x="378" y="-139"/>
      <point x="378" y="-117" type="curve" smooth="yes"/>
      <point x="378" y="-98"/>
      <point x="389" y="-83"/>
      <point x="413" y="-83" type="curve" smooth="yes"/>
      <point x="428" y="-83"/>
      <point x="440" y="-91"/>
      <point x="440" y="-106" type="curve" smooth="yes"/>
      <point x="440" y="-126"/>
      <point x="427" y="-149"/>
      <point x="327" y="-149" type="curve" smooth="yes"/>
      <point x="241" y="-149"/>
      <point x="178" y="-125"/>
      <point x="178" y="-55" type="curve" smooth="yes"/>
      <point x="178" y="-5"/>
      <point x="215" y="14"/>
      <point x="265" y="13" type="curve" smooth="yes"/>
      <point x="489" y="13" type="line"/>
      <point x="489" y="242" type="line"/>
      <point x="384" y="242" type="line"/>
    </contour>
    <contour>
      <point x="441" y="685" type="move" name="top"/>
    </contour>
    <contour>
      <point x="328" y="-245" type="move" name="bottom"/>
    </contour>
  </outline>
</glyph>
<glyph name="ddh_na-deva" format="1">
  <advance width="614"/>
  <outline>
    <contour>
      <point x="-20" y="685" type="line"/>
      <point x="-20" y="575" type="line"/>
      <point x="634" y="575" type="line"/>
      <point x="634" y="685" type="line"/>
    </contour>
    <contour>
      <point x="378" y="517" type="line"/>
      <point x="239" y="517" type="line" smooth="yes"/>
      <point x="134" y="517"/>
      <point x="39" y="471"/>
      <point x="39" y="366" type="curve" smooth="yes"/>
      <point x="39" y="236"/>
      <point x="172" y="163"/>
      <point x="302" y="163" type="curve" smooth="yes"/>
      <point x="471" y="163"/>
      <point x="568" y="213"/>
      <point x="568" y="303" type="curve" smooth="yes"/>
      <point x="568" y="374"/>
      <point x="491" y="397"/>
      <point x="414" y="397" type="curve" smooth="yes"/>
      <point x="313" y="397"/>
      <point x="255" y="367"/>
      <point x="255" y="310" type="curve" smooth="yes"/>
      <point x="255" y="261"/>
      <point x="290" y="231"/>
      <point x="323" y="200" type="curve"/>
      <point x="419" y="220" type="line"/>
      <point x="396" y="240"/>
      <point x="372" y="269"/>
      <point x="372" y="291" type="curve" smooth="yes"/>
      <point x="372" y="310"/>
      <point x="383" y="325"/>
      <point x="407" y="325" type="curve" smooth="yes"/>
      <point x="422" y="325"/>
      <point x="434" y="317"/>
      <point x="434" y="302" type="curve" smooth="yes"/>
      <point x="434" y="282"/>
      <point x="421" y="259"/>
      <point x="321" y="259" type="curve" smooth="yes"/>
      <point x="235" y="259"/>
      <point x="172" y="283"/>
      <point x="172" y="353" type="curve" smooth="yes"/>
      <point x="172" y="403"/>
      <point x="209" y="422"/>
      <point x="259" y="421" type="curve" smooth="yes"/>
      <point x="483" y="421" type="line"/>
      <point x="483" y="650" type="line"/>
      <point x="378" y="650" type="line"/>
    </contour>
    <contour>
      <point x="108" y="36"/>
      <point x="76" y="29"/>
      <point x="76" y="-29" type="curve" smooth="yes"/>
      <point x="76" y="-77"/>
      <point x="121" y="-164"/>
      <point x="193" y="-164" type="curve"/>
      <point x="244" y="-164"/>
      <point x="256" y="-108"/>
      <point x="253" y="-33" type="curve"/>
      <point x="156" y="-33" type="line"/>
      <point x="156" y="-105" type="line"/>
      <point x="232" y="-64" type="line"/>
      <point x="468" y="-64" type="line"/>
      <point x="468" y="36" type="line"/>
      <point x="162" y="36" type="line" smooth="yes"/>
    </contour>
    <contour>
      <point x="483" y="-232" type="line"/>
      <point x="483" y="220" type="line"/>
      <point x="378" y="220" type="line"/>
      <point x="378" y="-232" type="line"/>
    </contour>
    <contour>
      <point x="437" y="685" type="move" name="top"/>
    </contour>
    <contour>
      <point x="299" y="-232" type="move" name="bottom"/>
    </contour>
  </outline>
</glyph>
<glyph name="devaHeight" format="1">
  <advance width="319"/>
  <outline>
    <contour>
      <point x="92" y="570" type="line"/>
      <point x="92" y="0" type="line"/>
      <point x="227" y="0" type="line"/>
      <point x="227" y="570" type="line"/>
    </contour>
  </outline>
</glyph>
<glyph name="dh-deva" format="1">
  <advance width="480"/>
  <outline>
    <contour>
      <point x="156" y="423"/>
      <point x="68" y="358"/>
      <point x="68" y="252" type="curve" smooth="yes"/>
      <point x="68" y="135"/>
      <point x="157" y="62"/>
      <point x="299" y="62" type="curve" smooth="yes"/>
      <point x="438" y="62"/>
      <point x="545" y="109"/>
      <point x="648" y="217" type="curve"/>
      <point x="591" y="319" type="line"/>
      <point x="525" y="236"/>
      <point x="402" y="174"/>
      <point x="300" y="174" type="curve" smooth="yes"/>
      <point x="242" y="174"/>
      <point x="205" y="201"/>
      <point x="205" y="242" type="curve" smooth="yes"/>
      <point x="205" y="287"/>
      <point x="242" y="313"/>
      <point x="306" y="313" type="curve" smooth="yes"/>
      <point x="330" y="313"/>
      <point x="364" y="309"/>
      <point x="387" y="304" type="curve"/>
      <point x="375" y="415" type="line"/>
      <point x="352" y="420"/>
      <point x="320" y="423"/>
      <point x="299" y="423" type="curve" smooth="yes"/>
    </contour>
    <contour>
      <point x="142" y="687"/>
      <point x="62" y="622"/>
      <point x="62" y="526" type="curve" smooth="yes"/>
      <point x="62" y="449"/>
      <point x="117" y="378"/>
      <point x="200" y="345" type="curve"/>
      <point x="309" y="389" type="line"/>
      <point x="238" y="413"/>
      <point x="195" y="474"/>
      <point x="195" y="520" type="curve" smooth="yes"/>
      <point x="195" y="551"/>
      <point x="216" y="576"/>
      <point x="261" y="576" type="curve" smooth="yes"/>
      <point x="301" y="576"/>
      <point x="319" y="555"/>
      <point x="319" y="527" type="curve" smooth="yes"/>
      <point x="319" y="510"/>
      <point x="312" y="492"/>
      <point x="299" y="474" type="curve"/>
      <point x="418" y="448" type="line"/>
      <point x="434" y="477"/>
      <point x="443" y="506"/>
      <point x="443" y="535" type="curve" smooth="yes"/>
      <point x="443" y="623"/>
      <point x="367" y="687"/>
      <point x="260" y="687" type="curve" smooth="yes"/>
    </contour>
    <contour>
      <point x="274" y="685" type="move" name="top"/>
    </contour>
    <contour>
      <point x="274" y="0" type="move" name="bottom"/>
    </contour>
  </outline>
</glyph>
<glyph name="dh_ra-deva" format="1">
  <advance width="795"/>
  <outline>
    <contour>
      <point x="227" y="2" type="line"/>
      <point x="308" y="-85" type="line"/>
      <point x="591" y="154" type="line"/>
      <point x="591" y="300" type="line"/>
    </contour>
    <component base="dha-deva"/>
    <contour>
      <point x="623" y="685" type="move" name="top"/>
    </contour>
    <contour>
      <point x="623" y="0" type="move" name="bottom"/>
    </contour>
  </outline>
</glyph>
<glyph name="eMatra_anusvara-deva" format="1">
  <advance width="270"/>
  <note>
	dMatraEAnusvara
  </note>
  <outline>
    <component base="anusvara-deva" xOffset="168" yOffset="97" xScale="0.928" yScale="0.928"/>
    <component base="eMatra-deva" xOffset="-11"/>
    <contour>
      <point x="225" y="685" type="move" name="_top"/>
    </contour>
  </outline>
</glyph>
<glyph name="eMatra_reph_anusvara-deva" format="1">
  <advance width="270"/>
  <note>
	dMatraERephAnusvara
  </note>
  <outline>
    <component base="eMatra_reph-deva" xOffset="-84"/>
    <component base="anusvara-deva" xOffset="152" yOffset="127" xScale="0.8" yScale="0.8"/>
    <contour>
      <point x="135" y="685" type="move" name="_top"/>
    </contour>
  </outline>
</glyph>
<glyph name="g_ra-deva" format="1">
  <advance width="659"/>
  <outline>
    <contour>
      <point x="114" y="32" type="line"/>
      <point x="195" y="-55" type="line"/>
      <point x="478" y="184" type="line"/>
      <point x="478" y="330" type="line"/>
    </contour>
    <component base="ga-deva"/>
    <contour>
      <point x="487" y="685" type="move" name="top"/>
    </contour>
    <contour>
      <point x="487" y="0" type="move" name="bottom"/>
    </contour>
  </outline>
</glyph>
<glyph name="gha_compo" format="1">
  <advance width="584"/>
  <outline>
    <contour>
      <point x="154" y="468"/>
      <point x="43" y="429"/>
      <point x="43" y="317" type="curve" smooth="yes"/>
      <point x="43" y="217"/>
      <point x="126" y="164"/>
      <point x="218" y="164" type="curve" smooth="yes"/>
      <point x="335" y="164"/>
      <point x="410" y="213"/>
      <point x="474" y="262" type="curve"/>
      <point x="420" y="352" type="line"/>
      <point x="363" y="294"/>
      <point x="302" y="267"/>
      <point x="241" y="267" type="curve" smooth="yes"/>
      <point x="191" y="267"/>
      <point x="157" y="281"/>
      <point x="157" y="321" type="curve" smooth="yes"/>
      <point x="157" y="359"/>
      <point x="193" y="374"/>
      <point x="253" y="374" type="curve" smooth="yes"/>
      <point x="272" y="374"/>
      <point x="289" y="372"/>
      <point x="314" y="368" type="curve"/>
      <point x="299" y="465" type="line"/>
      <point x="284" y="467"/>
      <point x="269" y="468"/>
      <point x="254" y="468" type="curve" smooth="yes"/>
    </contour>
    <contour>
      <point x="54" y="612"/>
      <point x="43" y="573"/>
      <point x="43" y="536" type="curve" smooth="yes"/>
      <point x="43" y="487"/>
      <point x="71" y="429"/>
      <point x="138" y="410" type="curve"/>
      <point x="237" y="448" type="line"/>
      <point x="191" y="455"/>
      <point x="157" y="494"/>
      <point x="157" y="534" type="curve" smooth="yes"/>
      <point x="157" y="574"/>
      <point x="181" y="596"/>
      <point x="220" y="617" type="curve"/>
      <point x="77" y="639" type="line"/>
    </contour>
    <contour>
      <point x="407" y="630" type="line"/>
      <point x="407" y="147" type="line"/>
      <point x="517" y="147" type="line"/>
      <point x="517" y="630" type="line"/>
    </contour>
  </outline>
</glyph>
<glyph name="ghh-deva" format="1">
  <advance width="314"/>
  <outline>
    <component base="g-deva"/>
    <component base="nukta-deva" xOffset="48" yOffset="178"/>
    <contour>
      <point x="177" y="685" type="move" name="top"/>
    </contour>
    <contour>
      <point x="176" y="0" type="move" name="bottom"/>
    </contour>
  </outline>
</glyph>
<glyph name="h_rVocalic-deva" format="1">
  <advance width="647"/>
  <outline>
    <contour>
      <point x="157" y="323"/>
      <point x="47" y="231"/>
      <point x="47" y="78" type="curve" smooth="yes"/>
      <point x="47" y="-107"/>
      <point x="161" y="-206"/>
      <point x="401" y="-246" type="curve"/>
      <point x="417" y="-129" type="line"/>
      <point x="257" y="-105"/>
      <point x="182" y="-40"/>
      <point x="182" y="78" type="curve" smooth="yes"/>
      <point x="182" y="160"/>
      <point x="244" y="213"/>
      <point x="341" y="213" type="curve" smooth="yes"/>
      <point x="431" y="213"/>
      <point x="481" y="175"/>
      <point x="481" y="94" type="curve"/>
      <point x="604" y="94" type="line" smooth="yes"/>
      <point x="604" y="236"/>
      <point x="505" y="323"/>
      <point x="341" y="323" type="curve" smooth="yes"/>
    </contour>
    <contour>
      <point x="356" y="199"/>
      <point x="275" y="143"/>
      <point x="275" y="43" type="curve" smooth="yes"/>
      <point x="275" y="-42"/>
      <point x="336" y="-101"/>
      <point x="423" y="-101" type="curve" smooth="yes"/>
      <point x="477" y="-101"/>
      <point x="529" y="-81"/>
      <point x="577" y="-41" type="curve"/>
      <point x="529" y="45" type="line"/>
      <point x="482" y="13"/>
      <point x="463" y="4"/>
      <point x="435" y="4" type="curve" smooth="yes"/>
      <point x="408" y="4"/>
      <point x="392" y="18"/>
      <point x="392" y="43" type="curve" smooth="yes"/>
      <point x="392" y="77"/>
      <point x="430" y="94"/>
      <point x="506" y="94" type="curve"/>
      <point x="498" y="199" type="line"/>
    </contour>
    <contour>
      <point x="225" y="493" type="line" smooth="yes"/>
      <point x="146" y="493"/>
      <point x="100" y="454"/>
      <point x="100" y="386" type="curve" smooth="yes"/>
      <point x="100" y="322"/>
      <point x="134" y="258"/>
      <point x="196" y="207" type="curve"/>
      <point x="310" y="258" type="line"/>
      <point x="267" y="291"/>
      <point x="244" y="323"/>
      <point x="244" y="349" type="curve" smooth="yes"/>
      <point x="244" y="371"/>
      <point x="257" y="383"/>
      <point x="280" y="383" type="curve" smooth="yes"/>
      <point x="527" y="383" type="line"/>
      <point x="423" y="493" type="line"/>
    </contour>
    <contour>
      <point x="392" y="599" type="line"/>
      <point x="392" y="415" type="line"/>
      <point x="527" y="383" type="line"/>
      <point x="527" y="599" type="line"/>
    </contour>
    <contour>
      <point x="-20" y="685" type="line"/>
      <point x="-20" y="575" type="line"/>
      <point x="667" y="575" type="line"/>
      <point x="667" y="685" type="line"/>
    </contour>
    <contour>
      <point x="462" y="685" type="move" name="top"/>
    </contour>
    <contour>
      <point x="359" y="-226" type="move" name="bottom"/>
    </contour>
  </outline>
</glyph>
<glyph name="h_ra-deva" format="1">
  <advance width="647"/>
  <outline>
    <contour>
      <point x="260" y="105" type="line"/>
      <point x="324" y="8" type="line"/>
      <point x="518" y="171" type="line"/>
      <point x="456" y="266" type="line"/>
    </contour>
    <component base="ha-deva.alt"/>
    <contour>
      <point x="469" y="685" type="move" name="top"/>
    </contour>
    <contour>
      <point x="298" y="-101" type="move" name="bottom"/>
    </contour>
  </outline>
</glyph>
<glyph name="h_va-deva" format="1">
  <advance width="636"/>
  <outline>
    <contour>
      <point x="278" y="187"/>
      <point x="228" y="134"/>
      <point x="228" y="60" type="curve" smooth="yes"/>
      <point x="228" y="-20"/>
      <point x="301" y="-68"/>
      <point x="382" y="-68" type="curve" smooth="yes"/>
      <point x="446" y="-68"/>
      <point x="512" y="-41"/>
      <point x="573" y="20" type="curve"/>
      <point x="501" y="96" type="line"/>
      <point x="465" y="51"/>
      <point x="425" y="29"/>
      <point x="389" y="29" type="curve" smooth="yes"/>
      <point x="367" y="29"/>
      <point x="344" y="38"/>
      <point x="344" y="64" type="curve" smooth="yes"/>
      <point x="344" y="89"/>
      <point x="366" y="99"/>
      <point x="387" y="99" type="curve" smooth="yes"/>
      <point x="399" y="99"/>
      <point x="412" y="98"/>
      <point x="421" y="96" type="curve"/>
      <point x="407" y="186" type="line"/>
      <point x="397" y="187"/>
      <point x="391" y="187"/>
      <point x="386" y="187" type="curve" smooth="yes"/>
    </contour>
    <contour>
      <point x="157" y="323"/>
      <point x="47" y="227"/>
      <point x="47" y="68" type="curve" smooth="yes"/>
      <point x="47" y="-87"/>
      <point x="154" y="-181"/>
      <point x="371" y="-216" type="curve"/>
      <point x="387" y="-99" type="line"/>
      <point x="253" y="-80"/>
      <point x="182" y="-22"/>
      <point x="182" y="68" type="curve" smooth="yes"/>
      <point x="182" y="156"/>
      <point x="244" y="213"/>
      <point x="341" y="213" type="curve" smooth="yes"/>
      <point x="419" y="213"/>
      <point x="461" y="172"/>
      <point x="461" y="98" type="curve" smooth="yes"/>
      <point x="461" y="-115" type="line"/>
      <point x="582" y="-115" type="line"/>
      <point x="584" y="114" type="line" smooth="yes"/>
      <point x="585" y="229"/>
      <point x="493" y="323"/>
      <point x="341" y="323" type="curve" smooth="yes"/>
    </contour>
    <contour>
      <point x="225" y="493" type="line" smooth="yes"/>
      <point x="146" y="493"/>
      <point x="100" y="454"/>
      <point x="100" y="386" type="curve" smooth="yes"/>
      <point x="100" y="322"/>
      <point x="134" y="258"/>
      <point x="196" y="207" type="curve"/>
      <point x="310" y="258" type="line"/>
      <point x="267" y="291"/>
      <point x="244" y="323"/>
      <point x="244" y="349" type="curve" smooth="yes"/>
      <point x="244" y="371"/>
      <point x="257" y="383"/>
      <point x="280" y="383" type="curve" smooth="yes"/>
      <point x="527" y="383" type="line"/>
      <point x="423" y="493" type="line"/>
    </contour>
    <contour>
      <point x="392" y="599" type="line"/>
      <point x="392" y="415" type="line"/>
      <point x="527" y="383" type="line"/>
      <point x="527" y="599" type="line"/>
    </contour>
    <contour>
      <point x="-20" y="685" type="line"/>
      <point x="-20" y="575" type="line"/>
      <point x="656" y="575" type="line"/>
      <point x="656" y="685" type="line"/>
    </contour>
    <contour>
      <point x="464" y="685" type="move" name="top"/>
    </contour>
    <contour>
      <point x="371" y="-236" type="move" name="bottom"/>
    </contour>
  </outline>
</glyph>
<glyph name="ha_uMatra-deva" format="1">
  <advance width="560"/>
  <outline>
    <contour>
      <point x="165" y="310"/>
      <point x="76" y="235"/>
      <point x="76" y="122" type="curve" smooth="yes"/>
      <point x="76" y="-20"/>
      <point x="179" y="-77"/>
      <point x="373" y="-116" type="curve" smooth="yes"/>
      <point x="388" y="-119"/>
      <point x="400" y="-124"/>
      <point x="400" y="-146" type="curve" smooth="yes"/>
      <point x="400" y="-178"/>
      <point x="363" y="-192"/>
      <point x="321" y="-192" type="curve" smooth="yes"/>
      <point x="255" y="-192"/>
      <point x="194" y="-168"/>
      <point x="135" y="-97" type="curve"/>
      <point x="49" y="-157" type="line"/>
      <point x="118" y="-249"/>
      <point x="224" y="-295"/>
      <point x="324" y="-295" type="curve" smooth="yes"/>
      <point x="429" y="-295"/>
      <point x="519" y="-251"/>
      <point x="519" y="-146" type="curve" smooth="yes"/>
      <point x="519" y="-61"/>
      <point x="471" y="-24"/>
      <point x="386" y="-8" type="curve" smooth="yes"/>
      <point x="270" y="14"/>
      <point x="211" y="48"/>
      <point x="211" y="122" type="curve" smooth="yes"/>
      <point x="211" y="167"/>
      <point x="246" y="200"/>
      <point x="300" y="200" type="curve" smooth="yes"/>
      <point x="332" y="200"/>
      <point x="360" y="184"/>
      <point x="360" y="161" type="curve" smooth="yes"/>
      <point x="360" y="142"/>
      <point x="351" y="125"/>
      <point x="325" y="98" type="curve"/>
      <point x="394" y="22" type="line"/>
      <point x="466" y="61"/>
      <point x="495" y="109"/>
      <point x="495" y="169" type="curve" smooth="yes"/>
      <point x="495" y="254"/>
      <point x="418" y="310"/>
      <point x="300" y="310" type="curve" smooth="yes"/>
    </contour>
    <contour>
      <point x="187" y="493" type="line" smooth="yes"/>
      <point x="109" y="493"/>
      <point x="62" y="455"/>
      <point x="62" y="386" type="curve" smooth="yes"/>
      <point x="62" y="322"/>
      <point x="96" y="258"/>
      <point x="158" y="207" type="curve"/>
      <point x="272" y="258" type="line"/>
      <point x="242" y="281"/>
      <point x="206" y="315"/>
      <point x="206" y="349" type="curve" smooth="yes"/>
      <point x="206" y="370"/>
      <point x="218" y="383"/>
      <point x="242" y="383" type="curve" smooth="yes"/>
      <point x="489" y="383" type="line"/>
      <point x="385" y="493" type="line"/>
    </contour>
    <contour>
      <point x="354" y="599" type="line"/>
      <point x="354" y="415" type="line"/>
      <point x="489" y="383" type="line"/>
      <point x="489" y="599" type="line"/>
    </contour>
    <contour>
      <point x="-20" y="685" type="line"/>
      <point x="-20" y="575" type="line"/>
      <point x="580" y="575" type="line"/>
      <point x="580" y="685" type="line"/>
    </contour>
    <contour>
      <point x="429" y="685" type="move" name="top"/>
    </contour>
  </outline>
</glyph>
<glyph name="iMatra-deva.04" format="1">
  <advance width="323"/>
  <outline>
    <contour>
      <point x="188" y="972"/>
      <point x="69" y="902"/>
      <point x="69" y="782" type="curve" smooth="yes"/>
      <point x="69" y="744"/>
      <point x="80" y="698"/>
      <point x="102" y="648" type="curve"/>
      <point x="237" y="648" type="line"/>
      <point x="213" y="684"/>
      <point x="204" y="722"/>
      <point x="204" y="768" type="curve" smooth="yes"/>
      <point x="204" y="827"/>
      <point x="273" y="858"/>
      <point x="425" y="858" type="curve" smooth="yes"/>
      <point x="558" y="858"/>
      <point x="727" y="826"/>
      <point x="948" y="739" type="curve"/>
      <point x="1029" y="813" type="line"/>
      <point x="759" y="928"/>
      <point x="606" y="972"/>
      <point x="420" y="972" type="curve" smooth="yes"/>
    </contour>
    <contour>
      <point x="94" y="608" type="line"/>
      <point x="94" y="0" type="line"/>
      <point x="229" y="0" type="line"/>
      <point x="229" y="608" type="line"/>
    </contour>
    <contour>
      <point x="-31" y="685" type="line"/>
      <point x="-31" y="575" type="line"/>
      <point x="354" y="575" type="line"/>
      <point x="354" y="685" type="line"/>
    </contour>
    <contour>
      <point x="1029" y="813" type="move" name="imatra"/>
    </contour>
    <contour>
      <point x="161" y="0" type="move" name="bottom"/>
    </contour>
    <contour>
      <point x="1029" y="863" type="move" name="top"/>
    </contour>
  </outline>
</glyph>
<glyph name="iMatra-deva.09" format="1">
  <advance width="323"/>
  <outline>
    <contour>
      <point x="233" y="972"/>
      <point x="69" y="904"/>
      <point x="69" y="768" type="curve" smooth="yes"/>
      <point x="69" y="736"/>
      <point x="79" y="695"/>
      <point x="98" y="648" type="curve"/>
      <point x="232" y="648" type="line"/>
      <point x="213" y="679"/>
      <point x="204" y="714"/>
      <point x="204" y="755" type="curve" smooth="yes"/>
      <point x="204" y="827"/>
      <point x="321" y="860"/>
      <point x="594" y="860" type="curve" smooth="yes"/>
      <point x="814" y="860"/>
      <point x="1147" y="824"/>
      <point x="1575" y="740" type="curve"/>
      <point x="1626" y="833" type="line"/>
      <point x="1117" y="935"/>
      <point x="870" y="972"/>
      <point x="593" y="972" type="curve" smooth="yes"/>
    </contour>
    <contour>
      <point x="94" y="608" type="line"/>
      <point x="94" y="0" type="line"/>
      <point x="229" y="0" type="line"/>
      <point x="229" y="608" type="line"/>
    </contour>
    <contour>
      <point x="-31" y="685" type="line"/>
      <point x="-31" y="575" type="line"/>
      <point x="354" y="575" type="line"/>
      <point x="354" y="685" type="line"/>
    </contour>
    <contour>
      <point x="1626" y="833" type="move" name="imatra"/>
    </contour>
    <contour>
      <point x="161" y="0" type="move" name="bottom"/>
    </contour>
    <contour>
      <point x="1626" y="883" type="move" name="top"/>
    </contour>
  </outline>
</glyph>
<glyph name="iMatra_reph-deva.01" format="1">
  <advance width="323"/>
  <outline>
    <component base="iMatra-deva.01"/>
    <component base="reph-deva.imatra" xOffset="446" yOffset="142"/>
    <contour>
      <point x="671" y="802" type="move" name="imatra"/>
    </contour>
    <contour>
      <point x="161" y="0" type="move" name="bottom"/>
    </contour>
    <contour>
      <point x="657" y="1117" type="move" name="top"/>
    </contour>
  </outline>
</glyph>
<glyph name="iMatra_reph-deva.11" format="1">
  <advance width="323"/>
  <outline>
    <component base="iMatra-deva.11"/>
    <component base="reph-deva.imatra" xOffset="1640" yOffset="181"/>
    <contour>
      <point x="1865" y="841" type="move" name="imatra"/>
    </contour>
    <contour>
      <point x="161" y="0" type="move" name="bottom"/>
    </contour>
    <contour>
      <point x="1851" y="1156" type="move" name="top"/>
    </contour>
  </outline>
</glyph>
<glyph name="iMatra_reph-deva.15" format="1">
  <advance width="323"/>
  <outline>
    <component base="iMatra-deva.15"/>
    <component base="reph-deva.imatra" xOffset="2117" yOffset="196"/>
    <contour>
      <point x="2342" y="856" type="move" name="imatra"/>
    </contour>
    <contour>
      <point x="161" y="0" type="move" name="bottom"/>
    </contour>
    <contour>
      <point x="2328" y="1171" type="move" name="top"/>
    </contour>
  </outline>
</glyph>
<glyph name="iMatra_reph_anusvara-deva" format="1">
  <advance width="323"/>
  <outline>
    <component base="iMatra-deva.01"/>
    <component base="reph_anusvara-deva.imatra" xOffset="483" yOffset="142"/>
    <contour>
      <point x="671" y="802" type="move" name="imatra"/>
    </contour>
    <contour>
      <point x="161" y="0" type="move" name="bottom"/>
    </contour>
    <contour>
      <point x="780" y="1140" type="move" name="top"/>
    </contour>
  </outline>
</glyph>
<glyph name="iiMatra_reph_anusvara-deva" format="1">
  <advance width="345"/>
  <note>
	dMatraIiRephAnusvara
  </note>
  <outline>
    <component base="iiMatra-deva"/>
    <component base="reph_anusvara-deva.imatra" xOffset="36" yOffset="25"/>
    <contour>
      <point x="226" y="943" type="move" name="top"/>
    </contour>
    <contour>
      <point x="173" y="0" type="move" name="bottom"/>
    </contour>
  </outline>
</glyph>
<glyph name="j_compo" format="1">
  <advance width="640"/>
  <outline>
    <contour>
      <point x="14" y="464" type="line"/>
      <point x="72" y="257"/>
      <point x="168" y="163"/>
      <point x="299" y="163" type="curve" smooth="yes"/>
      <point x="404" y="163"/>
      <point x="473" y="223"/>
      <point x="473" y="302" type="curve" smooth="yes"/>
      <point x="473" y="350"/>
      <point x="449" y="410"/>
      <point x="385" y="471" type="curve"/>
      <point x="286" y="403" type="line"/>
      <point x="315" y="376"/>
      <point x="333" y="357"/>
      <point x="338" y="327" type="curve" smooth="yes"/>
      <point x="342" y="304"/>
      <point x="330" y="283"/>
      <point x="300" y="283" type="curve" smooth="yes"/>
      <point x="247" y="283"/>
      <point x="195" y="350"/>
      <point x="153" y="496" type="curve"/>
    </contour>
    <contour>
      <point x="333" y="513" type="line"/>
      <point x="286" y="403" type="line"/>
      <point x="626" y="403" type="line"/>
      <point x="626" y="513" type="line"/>
    </contour>
  </outline>
</glyph>
<glyph name="j_j-deva" format="1">
  <advance width="512"/>
  <outline>
    <contour>
      <point x="-20" y="685" type="line"/>
      <point x="-20" y="575" type="line"/>
      <point x="547" y="575" type="line"/>
      <point x="547" y="685" type="line"/>
    </contour>
    <contour>
      <point x="27" y="464" type="line"/>
      <point x="85" y="257"/>
      <point x="181" y="163"/>
      <point x="312" y="163" type="curve" smooth="yes"/>
      <point x="417" y="163"/>
      <point x="486" y="223"/>
      <point x="486" y="302" type="curve" smooth="yes"/>
      <point x="486" y="350"/>
      <point x="462" y="410"/>
      <point x="398" y="471" type="curve"/>
      <point x="299" y="403" type="line"/>
      <point x="328" y="376"/>
      <point x="346" y="357"/>
      <point x="351" y="327" type="curve" smooth="yes"/>
      <point x="355" y="304"/>
      <point x="343" y="283"/>
      <point x="313" y="283" type="curve" smooth="yes"/>
      <point x="260" y="283"/>
      <point x="208" y="350"/>
      <point x="166" y="496" type="curve"/>
    </contour>
    <contour>
      <point x="346" y="513" type="line"/>
      <point x="299" y="403" type="line"/>
      <point x="639" y="403" type="line"/>
      <point x="639" y="513" type="line"/>
    </contour>
    <contour>
      <point x="76" y="-70" type="line"/>
      <point x="168" y="-189"/>
      <point x="263" y="-244"/>
      <point x="373" y="-244" type="curve" smooth="yes"/>
      <point x="483" y="-244"/>
      <point x="558" y="-188"/>
      <point x="558" y="-78" type="curve" smooth="yes"/>
      <point x="558" y="-12"/>
      <point x="496" y="59"/>
      <point x="410" y="88" type="curve"/>
      <point x="349" y="-15" type="line"/>
      <point x="402" y="-29"/>
      <point x="424" y="-48"/>
      <point x="424" y="-80" type="curve" smooth="yes"/>
      <point x="424" y="-113"/>
      <point x="392" y="-123"/>
      <point x="367" y="-123" type="curve" smooth="yes"/>
      <point x="320" y="-123"/>
      <point x="250" y="-92"/>
      <point x="177" y="11" type="curve"/>
    </contour>
    <contour>
      <point x="332" y="98" type="line"/>
      <point x="349" y="-15" type="line"/>
      <point x="684" y="141" type="line"/>
      <point x="636" y="241" type="line"/>
    </contour>
  </outline>
</glyph>
<glyph name="j_ny-deva" format="1">
  <advance width="599"/>
  <outline>
    <contour>
      <point x="208" y="518" type="line"/>
      <point x="117" y="518"/>
      <point x="61" y="474"/>
      <point x="61" y="404" type="curve"/>
      <point x="61" y="299"/>
      <point x="129" y="224"/>
      <point x="224" y="224" type="curve" smooth="yes"/>
      <point x="258" y="224"/>
      <point x="347" y="245"/>
      <point x="372" y="245" type="curve" smooth="yes"/>
      <point x="395" y="245"/>
      <point x="416" y="232"/>
      <point x="416" y="202" type="curve" smooth="yes"/>
      <point x="416" y="120"/>
      <point x="313" y="118"/>
      <point x="246" y="118" type="curve"/>
      <point x="250" y="8" type="line"/>
      <point x="369" y="8"/>
      <point x="551" y="32"/>
      <point x="551" y="214" type="curve" smooth="yes"/>
      <point x="551" y="303"/>
      <point x="499" y="355"/>
      <point x="412" y="355" type="curve" smooth="yes"/>
      <point x="377" y="355"/>
      <point x="266" y="334"/>
      <point x="239" y="334" type="curve" smooth="yes"/>
      <point x="215" y="334"/>
      <point x="196" y="347"/>
      <point x="196" y="386" type="curve"/>
      <point x="196" y="402"/>
      <point x="205" y="408"/>
      <point x="222" y="408" type="curve"/>
      <point x="659" y="407" type="line"/>
      <point x="659" y="518" type="line"/>
    </contour>
    <contour>
      <point x="79" y="204"/>
      <point x="60" y="155"/>
      <point x="60" y="122" type="curve" smooth="yes"/>
      <point x="60" y="33"/>
      <point x="123" y="9"/>
      <point x="269" y="9" type="curve"/>
      <point x="305" y="85" type="line"/>
      <point x="268" y="150"/>
      <point x="200" y="204"/>
      <point x="148" y="204" type="curve" smooth="yes"/>
    </contour>
    <contour>
      <point x="199" y="37" type="line"/>
      <point x="367" y="-163" type="line"/>
      <point x="452" y="-90" type="line"/>
      <point x="296" y="100" type="line"/>
    </contour>
    <contour>
      <point x="-20" y="685" type="line"/>
      <point x="-20" y="575" type="line"/>
      <point x="619" y="575" type="line"/>
      <point x="619" y="685" type="line"/>
    </contour>
    <contour>
      <point x="300" y="685" type="move" name="top"/>
    </contour>
    <contour>
      <point x="300" y="-163" type="move" name="bottom"/>
    </contour>
  </outline>
</glyph>
<glyph name="j_r-deva" format="1">
  <advance width="501"/>
  <outline>
    <contour>
      <point x="29" y="438" type="line"/>
      <point x="101" y="184"/>
      <point x="167" y="112"/>
      <point x="326" y="112" type="curve" smooth="yes"/>
      <point x="431" y="112"/>
      <point x="501" y="175"/>
      <point x="501" y="271" type="curve" smooth="yes"/>
      <point x="501" y="326"/>
      <point x="470" y="378"/>
      <point x="399" y="450" type="curve"/>
      <point x="301" y="383" type="line"/>
      <point x="343" y="334"/>
      <point x="366" y="294"/>
      <point x="366" y="261" type="curve" smooth="yes"/>
      <point x="366" y="237"/>
      <point x="347" y="222"/>
      <point x="317" y="222" type="curve" smooth="yes"/>
      <point x="264" y="222"/>
      <point x="220" y="302"/>
      <point x="168" y="472" type="curve"/>
    </contour>
    <contour>
      <point x="283" y="-23" type="line"/>
      <point x="359" y="-114" type="line"/>
      <point x="677" y="121" type="line"/>
      <point x="611" y="217" type="line"/>
    </contour>
    <contour>
      <point x="348" y="493" type="line"/>
      <point x="301" y="383" type="line"/>
      <point x="611" y="383" type="line"/>
      <point x="581" y="493" type="line"/>
    </contour>
    <contour>
      <point x="-20" y="685" type="line"/>
      <point x="-20" y="575" type="line"/>
      <point x="611" y="575" type="line"/>
      <point x="611" y="685" type="line"/>
    </contour>
    <contour>
      <point x="301" y="685" type="move" name="top"/>
    </contour>
    <contour>
      <point x="301" y="0" type="move" name="bottom"/>
    </contour>
  </outline>
</glyph>
<glyph name="j_ra-deva" format="1">
  <advance width="850"/>
  <outline>
    <contour>
      <point x="-5" y="685" type="line"/>
      <point x="-5" y="575" type="line"/>
      <point x="855" y="575" type="line"/>
      <point x="855" y="685" type="line"/>
    </contour>
    <contour>
      <point x="319" y="32" type="line"/>
      <point x="400" y="-55" type="line"/>
      <point x="683" y="184" type="line"/>
      <point x="683" y="330" type="line"/>
    </contour>
    <component base="aaMatra-deva" xOffset="516"/>
    <component base="j_compo" xOffset="21"/>
    <contour>
      <point x="678" y="685" type="move" name="top"/>
    </contour>
    <contour>
      <point x="678" y="0" type="move" name="bottom"/>
    </contour>
  </outline>
</glyph>
